%TF.GenerationSoftware,KiCad,Pcbnew,7.0.2*%
%TF.CreationDate,2023-04-27T09:09:23+02:00*%
%TF.ProjectId,STM32_RF,53544d33-325f-4524-962e-6b696361645f,rev?*%
%TF.SameCoordinates,Original*%
%TF.FileFunction,Paste,Top*%
%TF.FilePolarity,Positive*%
%FSLAX46Y46*%
G04 Gerber Fmt 4.6, Leading zero omitted, Abs format (unit mm)*
G04 Created by KiCad (PCBNEW 7.0.2) date 2023-04-27 09:09:23*
%MOMM*%
%LPD*%
G01*
G04 APERTURE LIST*
G04 Aperture macros list*
%AMRoundRect*
0 Rectangle with rounded corners*
0 $1 Rounding radius*
0 $2 $3 $4 $5 $6 $7 $8 $9 X,Y pos of 4 corners*
0 Add a 4 corners polygon primitive as box body*
4,1,4,$2,$3,$4,$5,$6,$7,$8,$9,$2,$3,0*
0 Add four circle primitives for the rounded corners*
1,1,$1+$1,$2,$3*
1,1,$1+$1,$4,$5*
1,1,$1+$1,$6,$7*
1,1,$1+$1,$8,$9*
0 Add four rect primitives between the rounded corners*
20,1,$1+$1,$2,$3,$4,$5,0*
20,1,$1+$1,$4,$5,$6,$7,0*
20,1,$1+$1,$6,$7,$8,$9,0*
20,1,$1+$1,$8,$9,$2,$3,0*%
G04 Aperture macros list end*
%ADD10RoundRect,0.250000X0.475000X-0.250000X0.475000X0.250000X-0.475000X0.250000X-0.475000X-0.250000X0*%
%ADD11RoundRect,0.243750X0.456250X-0.243750X0.456250X0.243750X-0.456250X0.243750X-0.456250X-0.243750X0*%
%ADD12RoundRect,0.225000X0.250000X-0.225000X0.250000X0.225000X-0.250000X0.225000X-0.250000X-0.225000X0*%
%ADD13RoundRect,0.225000X-0.225000X-0.250000X0.225000X-0.250000X0.225000X0.250000X-0.225000X0.250000X0*%
%ADD14RoundRect,0.218750X0.256250X-0.218750X0.256250X0.218750X-0.256250X0.218750X-0.256250X-0.218750X0*%
%ADD15RoundRect,0.225000X-0.250000X0.225000X-0.250000X-0.225000X0.250000X-0.225000X0.250000X0.225000X0*%
%ADD16RoundRect,0.250000X-0.450000X0.262500X-0.450000X-0.262500X0.450000X-0.262500X0.450000X0.262500X0*%
%ADD17R,2.000000X1.500000*%
%ADD18R,2.000000X3.800000*%
%ADD19RoundRect,0.225000X0.225000X0.250000X-0.225000X0.250000X-0.225000X-0.250000X0.225000X-0.250000X0*%
%ADD20R,1.650000X0.400000*%
%ADD21R,0.700000X1.825000*%
%ADD22R,1.500000X2.000000*%
%ADD23R,2.000000X1.350000*%
%ADD24R,2.500000X1.430000*%
%ADD25RoundRect,0.218750X-0.218750X-0.256250X0.218750X-0.256250X0.218750X0.256250X-0.218750X0.256250X0*%
%ADD26RoundRect,0.250000X-0.262500X-0.450000X0.262500X-0.450000X0.262500X0.450000X-0.262500X0.450000X0*%
%ADD27R,5.080000X1.500000*%
%ADD28RoundRect,0.232500X0.232500X-0.232500X0.232500X0.232500X-0.232500X0.232500X-0.232500X-0.232500X0*%
%ADD29RoundRect,0.062500X0.062500X-0.375000X0.062500X0.375000X-0.062500X0.375000X-0.062500X-0.375000X0*%
%ADD30RoundRect,0.062500X0.375000X-0.062500X0.375000X0.062500X-0.375000X0.062500X-0.375000X-0.062500X0*%
%ADD31R,1.560000X0.650000*%
%ADD32RoundRect,0.250000X-0.625000X0.375000X-0.625000X-0.375000X0.625000X-0.375000X0.625000X0.375000X0*%
%ADD33R,1.400000X1.200000*%
%ADD34RoundRect,0.222500X-0.222500X-0.222500X0.222500X-0.222500X0.222500X0.222500X-0.222500X0.222500X0*%
%ADD35RoundRect,0.062500X-0.375000X-0.062500X0.375000X-0.062500X0.375000X0.062500X-0.375000X0.062500X0*%
%ADD36RoundRect,0.062500X-0.062500X-0.375000X0.062500X-0.375000X0.062500X0.375000X-0.062500X0.375000X0*%
%ADD37RoundRect,0.250000X0.450000X-0.262500X0.450000X0.262500X-0.450000X0.262500X-0.450000X-0.262500X0*%
%ADD38RoundRect,0.250000X-0.475000X0.250000X-0.475000X-0.250000X0.475000X-0.250000X0.475000X0.250000X0*%
G04 APERTURE END LIST*
D10*
%TO.C,C1*%
X92521251Y-78876414D03*
X92521251Y-76976414D03*
%TD*%
D11*
%TO.C,D2*%
X95620051Y-77760714D03*
X95620051Y-75885714D03*
%TD*%
D12*
%TO.C,C9*%
X105427392Y-62434203D03*
X105427392Y-60884203D03*
%TD*%
D11*
%TO.C,D1*%
X97855251Y-77789214D03*
X97855251Y-75914214D03*
%TD*%
D13*
%TO.C,C17*%
X116489692Y-63597603D03*
X118039692Y-63597603D03*
%TD*%
D14*
%TO.C,L3*%
X114063392Y-67763203D03*
X114063392Y-66188203D03*
%TD*%
D13*
%TO.C,C18*%
X116489692Y-65629603D03*
X118039692Y-65629603D03*
%TD*%
D15*
%TO.C,C15*%
X111523392Y-66213203D03*
X111523392Y-67763203D03*
%TD*%
D13*
%TO.C,C19*%
X116489692Y-71725603D03*
X118039692Y-71725603D03*
%TD*%
D16*
%TO.C,R4*%
X97855251Y-71796714D03*
X97855251Y-73621714D03*
%TD*%
D17*
%TO.C,U1*%
X80227251Y-74574814D03*
X80227251Y-76874814D03*
D18*
X86527251Y-76874814D03*
D17*
X80227251Y-79174814D03*
%TD*%
D19*
%TO.C,C16*%
X113822392Y-69528203D03*
X112272392Y-69528203D03*
%TD*%
D20*
%TO.C,J3*%
X81142051Y-66654814D03*
X81142051Y-67304814D03*
X81142051Y-67954814D03*
X81142051Y-68604814D03*
X81142051Y-69254814D03*
D21*
X79942051Y-65004814D03*
D22*
X81242051Y-65104814D03*
D23*
X79192051Y-65224814D03*
D24*
X77992051Y-66994814D03*
X77992051Y-68914814D03*
D23*
X79192051Y-70704814D03*
D22*
X81262051Y-70854814D03*
D21*
X79942051Y-70954814D03*
%TD*%
D13*
%TO.C,C14*%
X112272392Y-64448203D03*
X113822392Y-64448203D03*
%TD*%
D12*
%TO.C,C7*%
X94654851Y-60161614D03*
X94654851Y-58611614D03*
%TD*%
D10*
%TO.C,C3*%
X97906051Y-61431614D03*
X97906051Y-59531614D03*
%TD*%
D25*
%TO.C,L2*%
X116477192Y-69693603D03*
X118052192Y-69693603D03*
%TD*%
D26*
%TO.C,R3*%
X103498892Y-77923203D03*
X105323892Y-77923203D03*
%TD*%
D12*
%TO.C,C20*%
X100855392Y-75220203D03*
X100855392Y-73670203D03*
%TD*%
D15*
%TO.C,C10*%
X109891392Y-72055203D03*
X109891392Y-73605203D03*
%TD*%
D10*
%TO.C,C13*%
X102227892Y-61601203D03*
X102227892Y-59701203D03*
%TD*%
D27*
%TO.C,J2*%
X123432892Y-68474403D03*
X123432892Y-64224403D03*
X123432892Y-72724403D03*
%TD*%
D28*
%TO.C,U2*%
X91930051Y-68118814D03*
X93080051Y-68118814D03*
X94230051Y-68118814D03*
X91930051Y-66968814D03*
X93080051Y-66968814D03*
X94230051Y-66968814D03*
X91930051Y-65818814D03*
X93080051Y-65818814D03*
X94230051Y-65818814D03*
D29*
X91330051Y-69406314D03*
X91830051Y-69406314D03*
X92330051Y-69406314D03*
X92830051Y-69406314D03*
X93330051Y-69406314D03*
X93830051Y-69406314D03*
X94330051Y-69406314D03*
X94830051Y-69406314D03*
D30*
X95517551Y-68718814D03*
X95517551Y-68218814D03*
X95517551Y-67718814D03*
X95517551Y-67218814D03*
X95517551Y-66718814D03*
X95517551Y-66218814D03*
X95517551Y-65718814D03*
X95517551Y-65218814D03*
D29*
X94830051Y-64531314D03*
X94330051Y-64531314D03*
X93830051Y-64531314D03*
X93330051Y-64531314D03*
X92830051Y-64531314D03*
X92330051Y-64531314D03*
X91830051Y-64531314D03*
X91330051Y-64531314D03*
D30*
X90642551Y-65218814D03*
X90642551Y-65718814D03*
X90642551Y-66218814D03*
X90642551Y-66718814D03*
X90642551Y-67218814D03*
X90642551Y-67718814D03*
X90642551Y-68218814D03*
X90642551Y-68718814D03*
%TD*%
D31*
%TO.C,U3*%
X88283251Y-63753214D03*
X88283251Y-62803214D03*
X88283251Y-61853214D03*
X85583251Y-61853214D03*
X85583251Y-62803214D03*
X85583251Y-63753214D03*
%TD*%
D16*
%TO.C,R1*%
X89117651Y-71670314D03*
X89117651Y-73495314D03*
%TD*%
D32*
%TO.C,F1*%
X85206051Y-69023214D03*
X85206051Y-71823214D03*
%TD*%
D15*
%TO.C,C5*%
X91454451Y-71744014D03*
X91454451Y-73294014D03*
%TD*%
D33*
%TO.C,Y1*%
X103227392Y-75129203D03*
X105427392Y-75129203D03*
X105427392Y-73429203D03*
X103227392Y-73429203D03*
%TD*%
D34*
%TO.C,U4*%
X105445892Y-65921203D03*
X105445892Y-67021203D03*
X105445892Y-68121203D03*
X106545892Y-65921203D03*
X106545892Y-67021203D03*
X106545892Y-68121203D03*
X107645892Y-65921203D03*
X107645892Y-67021203D03*
X107645892Y-68121203D03*
D35*
X104108392Y-65271203D03*
X104108392Y-65771203D03*
X104108392Y-66271203D03*
X104108392Y-66771203D03*
X104108392Y-67271203D03*
X104108392Y-67771203D03*
X104108392Y-68271203D03*
X104108392Y-68771203D03*
D36*
X104795892Y-69458703D03*
X105295892Y-69458703D03*
X105795892Y-69458703D03*
X106295892Y-69458703D03*
X106795892Y-69458703D03*
X107295892Y-69458703D03*
X107795892Y-69458703D03*
X108295892Y-69458703D03*
D35*
X108983392Y-68771203D03*
X108983392Y-68271203D03*
X108983392Y-67771203D03*
X108983392Y-67271203D03*
X108983392Y-66771203D03*
X108983392Y-66271203D03*
X108983392Y-65771203D03*
X108983392Y-65271203D03*
D36*
X108295892Y-64583703D03*
X107795892Y-64583703D03*
X107295892Y-64583703D03*
X106795892Y-64583703D03*
X106295892Y-64583703D03*
X105795892Y-64583703D03*
X105295892Y-64583703D03*
X104795892Y-64583703D03*
%TD*%
D37*
%TO.C,R2*%
X109999392Y-62571703D03*
X109999392Y-60746703D03*
%TD*%
D25*
%TO.C,L1*%
X116477192Y-67661603D03*
X118052192Y-67661603D03*
%TD*%
D13*
%TO.C,C6*%
X97282551Y-64400814D03*
X98832551Y-64400814D03*
%TD*%
D12*
%TO.C,C12*%
X107459392Y-62434203D03*
X107459392Y-60884203D03*
%TD*%
D38*
%TO.C,C2*%
X90235251Y-76991614D03*
X90235251Y-78891614D03*
%TD*%
D16*
%TO.C,R5*%
X95620051Y-71768214D03*
X95620051Y-73593214D03*
%TD*%
D15*
%TO.C,C21*%
X107967392Y-73670203D03*
X107967392Y-75220203D03*
%TD*%
%TO.C,C8*%
X111923392Y-72068203D03*
X111923392Y-73618203D03*
%TD*%
D19*
%TO.C,C11*%
X102541851Y-66562414D03*
X100991851Y-66562414D03*
%TD*%
D15*
%TO.C,C4*%
X93591892Y-71738603D03*
X93591892Y-73288603D03*
%TD*%
D20*
%TO.C,J3*%
X81127600Y-91278400D03*
X81127600Y-91928400D03*
X81127600Y-92578400D03*
X81127600Y-93228400D03*
X81127600Y-93878400D03*
D21*
X79927600Y-89628400D03*
D22*
X81227600Y-89728400D03*
D23*
X79177600Y-89848400D03*
D24*
X77977600Y-91618400D03*
X77977600Y-93538400D03*
D23*
X79177600Y-95328400D03*
D22*
X81247600Y-95478400D03*
D21*
X79927600Y-95578400D03*
%TD*%
D31*
%TO.C,U3*%
X85568800Y-88376800D03*
X85568800Y-87426800D03*
X85568800Y-86476800D03*
X88268800Y-86476800D03*
X88268800Y-87426800D03*
X88268800Y-88376800D03*
%TD*%
D14*
%TO.C,L3*%
X114048941Y-92386789D03*
X114048941Y-90811789D03*
%TD*%
D25*
%TO.C,L1*%
X116462741Y-92285189D03*
X118037741Y-92285189D03*
%TD*%
D13*
%TO.C,C17*%
X116475241Y-88221189D03*
X118025241Y-88221189D03*
%TD*%
D19*
%TO.C,C16*%
X113807941Y-94151789D03*
X112257941Y-94151789D03*
%TD*%
D12*
%TO.C,C12*%
X107444941Y-87057789D03*
X107444941Y-85507789D03*
%TD*%
D30*
%TO.C,U2*%
X90628100Y-93342400D03*
X90628100Y-92842400D03*
X90628100Y-92342400D03*
X90628100Y-91842400D03*
X90628100Y-91342400D03*
X90628100Y-90842400D03*
X90628100Y-90342400D03*
X90628100Y-89842400D03*
D29*
X91315600Y-89154900D03*
X91815600Y-89154900D03*
X92315600Y-89154900D03*
X92815600Y-89154900D03*
X93315600Y-89154900D03*
X93815600Y-89154900D03*
X94315600Y-89154900D03*
X94815600Y-89154900D03*
D30*
X95503100Y-89842400D03*
X95503100Y-90342400D03*
X95503100Y-90842400D03*
X95503100Y-91342400D03*
X95503100Y-91842400D03*
X95503100Y-92342400D03*
X95503100Y-92842400D03*
X95503100Y-93342400D03*
D29*
X94815600Y-94029900D03*
X94315600Y-94029900D03*
X93815600Y-94029900D03*
X93315600Y-94029900D03*
X92815600Y-94029900D03*
X92315600Y-94029900D03*
X91815600Y-94029900D03*
X91315600Y-94029900D03*
D28*
X94215600Y-90442400D03*
X93065600Y-90442400D03*
X91915600Y-90442400D03*
X94215600Y-91592400D03*
X93065600Y-91592400D03*
X91915600Y-91592400D03*
X94215600Y-92742400D03*
X93065600Y-92742400D03*
X91915600Y-92742400D03*
%TD*%
D37*
%TO.C,R2*%
X109984941Y-87195289D03*
X109984941Y-85370289D03*
%TD*%
D15*
%TO.C,C4*%
X93577441Y-96362189D03*
X93577441Y-97912189D03*
%TD*%
D19*
%TO.C,C11*%
X102527400Y-91186000D03*
X100977400Y-91186000D03*
%TD*%
D16*
%TO.C,R5*%
X95605600Y-98216800D03*
X95605600Y-96391800D03*
%TD*%
D15*
%TO.C,C15*%
X111508941Y-90836789D03*
X111508941Y-92386789D03*
%TD*%
D13*
%TO.C,C19*%
X116475241Y-96349189D03*
X118025241Y-96349189D03*
%TD*%
D16*
%TO.C,R4*%
X97840800Y-98245300D03*
X97840800Y-96420300D03*
%TD*%
D13*
%TO.C,C18*%
X116475241Y-90253189D03*
X118025241Y-90253189D03*
%TD*%
D11*
%TO.C,D1*%
X97840800Y-102412800D03*
X97840800Y-100537800D03*
%TD*%
D13*
%TO.C,C14*%
X112257941Y-89071789D03*
X113807941Y-89071789D03*
%TD*%
D32*
%TO.C,F1*%
X85191600Y-96446800D03*
X85191600Y-93646800D03*
%TD*%
D38*
%TO.C,C2*%
X90220800Y-101615200D03*
X90220800Y-103515200D03*
%TD*%
D13*
%TO.C,C6*%
X98818100Y-89024400D03*
X97268100Y-89024400D03*
%TD*%
D10*
%TO.C,C1*%
X92506800Y-103500000D03*
X92506800Y-101600000D03*
%TD*%
D17*
%TO.C,U1*%
X80212800Y-103798400D03*
D18*
X86512800Y-101498400D03*
D17*
X80212800Y-101498400D03*
X80212800Y-99198400D03*
%TD*%
D10*
%TO.C,C3*%
X97891600Y-86055200D03*
X97891600Y-84155200D03*
%TD*%
D12*
%TO.C,C7*%
X94640400Y-84785200D03*
X94640400Y-83235200D03*
%TD*%
D11*
%TO.C,D2*%
X95605600Y-102384300D03*
X95605600Y-100509300D03*
%TD*%
D25*
%TO.C,L2*%
X116462741Y-94317189D03*
X118037741Y-94317189D03*
%TD*%
D12*
%TO.C,C9*%
X105412941Y-87057789D03*
X105412941Y-85507789D03*
%TD*%
D16*
%TO.C,R1*%
X89103200Y-98118900D03*
X89103200Y-96293900D03*
%TD*%
D34*
%TO.C,U4*%
X105431441Y-90544789D03*
X105431441Y-91644789D03*
X105431441Y-92744789D03*
X106531441Y-90544789D03*
X106531441Y-91644789D03*
X106531441Y-92744789D03*
X107631441Y-90544789D03*
X107631441Y-91644789D03*
X107631441Y-92744789D03*
D35*
X104093941Y-89894789D03*
X104093941Y-90394789D03*
X104093941Y-90894789D03*
X104093941Y-91394789D03*
X104093941Y-91894789D03*
X104093941Y-92394789D03*
X104093941Y-92894789D03*
X104093941Y-93394789D03*
D36*
X104781441Y-94082289D03*
X105281441Y-94082289D03*
X105781441Y-94082289D03*
X106281441Y-94082289D03*
X106781441Y-94082289D03*
X107281441Y-94082289D03*
X107781441Y-94082289D03*
X108281441Y-94082289D03*
D35*
X108968941Y-93394789D03*
X108968941Y-92894789D03*
X108968941Y-92394789D03*
X108968941Y-91894789D03*
X108968941Y-91394789D03*
X108968941Y-90894789D03*
X108968941Y-90394789D03*
X108968941Y-89894789D03*
D36*
X108281441Y-89207289D03*
X107781441Y-89207289D03*
X107281441Y-89207289D03*
X106781441Y-89207289D03*
X106281441Y-89207289D03*
X105781441Y-89207289D03*
X105281441Y-89207289D03*
X104781441Y-89207289D03*
%TD*%
D33*
%TO.C,Y1*%
X103212941Y-99752789D03*
X105412941Y-99752789D03*
X105412941Y-98052789D03*
X103212941Y-98052789D03*
%TD*%
D15*
%TO.C,C21*%
X107952941Y-98293789D03*
X107952941Y-99843789D03*
%TD*%
%TO.C,C8*%
X111908941Y-96691789D03*
X111908941Y-98241789D03*
%TD*%
%TO.C,C5*%
X91440000Y-96367600D03*
X91440000Y-97917600D03*
%TD*%
D10*
%TO.C,C13*%
X102213441Y-86224789D03*
X102213441Y-84324789D03*
%TD*%
D27*
%TO.C,J2*%
X123418441Y-93097989D03*
X123418441Y-88847989D03*
X123418441Y-97347989D03*
%TD*%
D12*
%TO.C,C20*%
X100840941Y-99843789D03*
X100840941Y-98293789D03*
%TD*%
D15*
%TO.C,C10*%
X109876941Y-96678789D03*
X109876941Y-98228789D03*
%TD*%
D26*
%TO.C,R3*%
X103484441Y-102546789D03*
X105309441Y-102546789D03*
%TD*%
M02*
