%TF.GenerationSoftware,KiCad,Pcbnew,7.0.2*%
%TF.CreationDate,2023-04-27T09:09:23+02:00*%
%TF.ProjectId,STM32_RF,53544d33-325f-4524-962e-6b696361645f,rev?*%
%TF.SameCoordinates,Original*%
%TF.FileFunction,Legend,Top*%
%TF.FilePolarity,Positive*%
%FSLAX46Y46*%
G04 Gerber Fmt 4.6, Leading zero omitted, Abs format (unit mm)*
G04 Created by KiCad (PCBNEW 7.0.2) date 2023-04-27 09:09:24*
%MOMM*%
%LPD*%
G01*
G04 APERTURE LIST*
%ADD10C,0.250000*%
%ADD11C,0.125000*%
%ADD12C,0.025000*%
%ADD13C,0.150000*%
%ADD14C,0.120000*%
G04 APERTURE END LIST*
D10*
X97750374Y-80054433D02*
X97417041Y-79578242D01*
X97178946Y-80054433D02*
X97178946Y-79054433D01*
X97178946Y-79054433D02*
X97559898Y-79054433D01*
X97559898Y-79054433D02*
X97655136Y-79102052D01*
X97655136Y-79102052D02*
X97702755Y-79149671D01*
X97702755Y-79149671D02*
X97750374Y-79244909D01*
X97750374Y-79244909D02*
X97750374Y-79387766D01*
X97750374Y-79387766D02*
X97702755Y-79483004D01*
X97702755Y-79483004D02*
X97655136Y-79530623D01*
X97655136Y-79530623D02*
X97559898Y-79578242D01*
X97559898Y-79578242D02*
X97178946Y-79578242D01*
X98083708Y-79054433D02*
X98750374Y-80054433D01*
X98750374Y-79054433D02*
X98083708Y-80054433D01*
X94445289Y-79054433D02*
X95016717Y-79054433D01*
X94731003Y-80054433D02*
X94731003Y-79054433D01*
X95254813Y-79054433D02*
X95921479Y-80054433D01*
X95921479Y-79054433D02*
X95254813Y-80054433D01*
X94430838Y-103678019D02*
X95002266Y-103678019D01*
X94716552Y-104678019D02*
X94716552Y-103678019D01*
X95240362Y-103678019D02*
X95907028Y-104678019D01*
X95907028Y-103678019D02*
X95240362Y-104678019D01*
X97735923Y-104678019D02*
X97402590Y-104201828D01*
X97164495Y-104678019D02*
X97164495Y-103678019D01*
X97164495Y-103678019D02*
X97545447Y-103678019D01*
X97545447Y-103678019D02*
X97640685Y-103725638D01*
X97640685Y-103725638D02*
X97688304Y-103773257D01*
X97688304Y-103773257D02*
X97735923Y-103868495D01*
X97735923Y-103868495D02*
X97735923Y-104011352D01*
X97735923Y-104011352D02*
X97688304Y-104106590D01*
X97688304Y-104106590D02*
X97640685Y-104154209D01*
X97640685Y-104154209D02*
X97545447Y-104201828D01*
X97545447Y-104201828D02*
X97164495Y-104201828D01*
X98069257Y-103678019D02*
X98735923Y-104678019D01*
X98735923Y-103678019D02*
X98069257Y-104678019D01*
D11*
%TO.C,C1*%
X92437917Y-76012104D02*
X92414108Y-76035914D01*
X92414108Y-76035914D02*
X92342679Y-76059723D01*
X92342679Y-76059723D02*
X92295060Y-76059723D01*
X92295060Y-76059723D02*
X92223632Y-76035914D01*
X92223632Y-76035914D02*
X92176013Y-75988294D01*
X92176013Y-75988294D02*
X92152203Y-75940675D01*
X92152203Y-75940675D02*
X92128394Y-75845437D01*
X92128394Y-75845437D02*
X92128394Y-75774009D01*
X92128394Y-75774009D02*
X92152203Y-75678771D01*
X92152203Y-75678771D02*
X92176013Y-75631152D01*
X92176013Y-75631152D02*
X92223632Y-75583533D01*
X92223632Y-75583533D02*
X92295060Y-75559723D01*
X92295060Y-75559723D02*
X92342679Y-75559723D01*
X92342679Y-75559723D02*
X92414108Y-75583533D01*
X92414108Y-75583533D02*
X92437917Y-75607342D01*
X92914108Y-76059723D02*
X92628394Y-76059723D01*
X92771251Y-76059723D02*
X92771251Y-75559723D01*
X92771251Y-75559723D02*
X92723632Y-75631152D01*
X92723632Y-75631152D02*
X92676013Y-75678771D01*
X92676013Y-75678771D02*
X92628394Y-75702580D01*
%TO.C,D2*%
X95251003Y-75047523D02*
X95251003Y-74547523D01*
X95251003Y-74547523D02*
X95370051Y-74547523D01*
X95370051Y-74547523D02*
X95441479Y-74571333D01*
X95441479Y-74571333D02*
X95489098Y-74618952D01*
X95489098Y-74618952D02*
X95512908Y-74666571D01*
X95512908Y-74666571D02*
X95536717Y-74761809D01*
X95536717Y-74761809D02*
X95536717Y-74833237D01*
X95536717Y-74833237D02*
X95512908Y-74928475D01*
X95512908Y-74928475D02*
X95489098Y-74976094D01*
X95489098Y-74976094D02*
X95441479Y-75023714D01*
X95441479Y-75023714D02*
X95370051Y-75047523D01*
X95370051Y-75047523D02*
X95251003Y-75047523D01*
X95727194Y-74595142D02*
X95751003Y-74571333D01*
X95751003Y-74571333D02*
X95798622Y-74547523D01*
X95798622Y-74547523D02*
X95917670Y-74547523D01*
X95917670Y-74547523D02*
X95965289Y-74571333D01*
X95965289Y-74571333D02*
X95989098Y-74595142D01*
X95989098Y-74595142D02*
X96012908Y-74642761D01*
X96012908Y-74642761D02*
X96012908Y-74690380D01*
X96012908Y-74690380D02*
X95989098Y-74761809D01*
X95989098Y-74761809D02*
X95703384Y-75047523D01*
X95703384Y-75047523D02*
X96012908Y-75047523D01*
%TO.C,C9*%
X105344058Y-59810893D02*
X105320249Y-59834703D01*
X105320249Y-59834703D02*
X105248820Y-59858512D01*
X105248820Y-59858512D02*
X105201201Y-59858512D01*
X105201201Y-59858512D02*
X105129773Y-59834703D01*
X105129773Y-59834703D02*
X105082154Y-59787083D01*
X105082154Y-59787083D02*
X105058344Y-59739464D01*
X105058344Y-59739464D02*
X105034535Y-59644226D01*
X105034535Y-59644226D02*
X105034535Y-59572798D01*
X105034535Y-59572798D02*
X105058344Y-59477560D01*
X105058344Y-59477560D02*
X105082154Y-59429941D01*
X105082154Y-59429941D02*
X105129773Y-59382322D01*
X105129773Y-59382322D02*
X105201201Y-59358512D01*
X105201201Y-59358512D02*
X105248820Y-59358512D01*
X105248820Y-59358512D02*
X105320249Y-59382322D01*
X105320249Y-59382322D02*
X105344058Y-59406131D01*
X105582154Y-59858512D02*
X105677392Y-59858512D01*
X105677392Y-59858512D02*
X105725011Y-59834703D01*
X105725011Y-59834703D02*
X105748820Y-59810893D01*
X105748820Y-59810893D02*
X105796439Y-59739464D01*
X105796439Y-59739464D02*
X105820249Y-59644226D01*
X105820249Y-59644226D02*
X105820249Y-59453750D01*
X105820249Y-59453750D02*
X105796439Y-59406131D01*
X105796439Y-59406131D02*
X105772630Y-59382322D01*
X105772630Y-59382322D02*
X105725011Y-59358512D01*
X105725011Y-59358512D02*
X105629773Y-59358512D01*
X105629773Y-59358512D02*
X105582154Y-59382322D01*
X105582154Y-59382322D02*
X105558344Y-59406131D01*
X105558344Y-59406131D02*
X105534535Y-59453750D01*
X105534535Y-59453750D02*
X105534535Y-59572798D01*
X105534535Y-59572798D02*
X105558344Y-59620417D01*
X105558344Y-59620417D02*
X105582154Y-59644226D01*
X105582154Y-59644226D02*
X105629773Y-59668036D01*
X105629773Y-59668036D02*
X105725011Y-59668036D01*
X105725011Y-59668036D02*
X105772630Y-59644226D01*
X105772630Y-59644226D02*
X105796439Y-59620417D01*
X105796439Y-59620417D02*
X105820249Y-59572798D01*
%TO.C,D1*%
X97486203Y-75076023D02*
X97486203Y-74576023D01*
X97486203Y-74576023D02*
X97605251Y-74576023D01*
X97605251Y-74576023D02*
X97676679Y-74599833D01*
X97676679Y-74599833D02*
X97724298Y-74647452D01*
X97724298Y-74647452D02*
X97748108Y-74695071D01*
X97748108Y-74695071D02*
X97771917Y-74790309D01*
X97771917Y-74790309D02*
X97771917Y-74861737D01*
X97771917Y-74861737D02*
X97748108Y-74956975D01*
X97748108Y-74956975D02*
X97724298Y-75004594D01*
X97724298Y-75004594D02*
X97676679Y-75052214D01*
X97676679Y-75052214D02*
X97605251Y-75076023D01*
X97605251Y-75076023D02*
X97486203Y-75076023D01*
X98248108Y-75076023D02*
X97962394Y-75076023D01*
X98105251Y-75076023D02*
X98105251Y-74576023D01*
X98105251Y-74576023D02*
X98057632Y-74647452D01*
X98057632Y-74647452D02*
X98010013Y-74695071D01*
X98010013Y-74695071D02*
X97962394Y-74718880D01*
%TO.C,C17*%
X116943263Y-62765293D02*
X116919454Y-62789103D01*
X116919454Y-62789103D02*
X116848025Y-62812912D01*
X116848025Y-62812912D02*
X116800406Y-62812912D01*
X116800406Y-62812912D02*
X116728978Y-62789103D01*
X116728978Y-62789103D02*
X116681359Y-62741483D01*
X116681359Y-62741483D02*
X116657549Y-62693864D01*
X116657549Y-62693864D02*
X116633740Y-62598626D01*
X116633740Y-62598626D02*
X116633740Y-62527198D01*
X116633740Y-62527198D02*
X116657549Y-62431960D01*
X116657549Y-62431960D02*
X116681359Y-62384341D01*
X116681359Y-62384341D02*
X116728978Y-62336722D01*
X116728978Y-62336722D02*
X116800406Y-62312912D01*
X116800406Y-62312912D02*
X116848025Y-62312912D01*
X116848025Y-62312912D02*
X116919454Y-62336722D01*
X116919454Y-62336722D02*
X116943263Y-62360531D01*
X117419454Y-62812912D02*
X117133740Y-62812912D01*
X117276597Y-62812912D02*
X117276597Y-62312912D01*
X117276597Y-62312912D02*
X117228978Y-62384341D01*
X117228978Y-62384341D02*
X117181359Y-62431960D01*
X117181359Y-62431960D02*
X117133740Y-62455769D01*
X117586120Y-62312912D02*
X117919453Y-62312912D01*
X117919453Y-62312912D02*
X117705168Y-62812912D01*
%TO.C,L3*%
X112761758Y-67232512D02*
X112523663Y-67232512D01*
X112523663Y-67232512D02*
X112523663Y-66732512D01*
X112880806Y-66732512D02*
X113190330Y-66732512D01*
X113190330Y-66732512D02*
X113023663Y-66922988D01*
X113023663Y-66922988D02*
X113095092Y-66922988D01*
X113095092Y-66922988D02*
X113142711Y-66946798D01*
X113142711Y-66946798D02*
X113166520Y-66970607D01*
X113166520Y-66970607D02*
X113190330Y-67018226D01*
X113190330Y-67018226D02*
X113190330Y-67137274D01*
X113190330Y-67137274D02*
X113166520Y-67184893D01*
X113166520Y-67184893D02*
X113142711Y-67208703D01*
X113142711Y-67208703D02*
X113095092Y-67232512D01*
X113095092Y-67232512D02*
X112952235Y-67232512D01*
X112952235Y-67232512D02*
X112904616Y-67208703D01*
X112904616Y-67208703D02*
X112880806Y-67184893D01*
%TO.C,C18*%
X116943263Y-64797293D02*
X116919454Y-64821103D01*
X116919454Y-64821103D02*
X116848025Y-64844912D01*
X116848025Y-64844912D02*
X116800406Y-64844912D01*
X116800406Y-64844912D02*
X116728978Y-64821103D01*
X116728978Y-64821103D02*
X116681359Y-64773483D01*
X116681359Y-64773483D02*
X116657549Y-64725864D01*
X116657549Y-64725864D02*
X116633740Y-64630626D01*
X116633740Y-64630626D02*
X116633740Y-64559198D01*
X116633740Y-64559198D02*
X116657549Y-64463960D01*
X116657549Y-64463960D02*
X116681359Y-64416341D01*
X116681359Y-64416341D02*
X116728978Y-64368722D01*
X116728978Y-64368722D02*
X116800406Y-64344912D01*
X116800406Y-64344912D02*
X116848025Y-64344912D01*
X116848025Y-64344912D02*
X116919454Y-64368722D01*
X116919454Y-64368722D02*
X116943263Y-64392531D01*
X117419454Y-64844912D02*
X117133740Y-64844912D01*
X117276597Y-64844912D02*
X117276597Y-64344912D01*
X117276597Y-64344912D02*
X117228978Y-64416341D01*
X117228978Y-64416341D02*
X117181359Y-64463960D01*
X117181359Y-64463960D02*
X117133740Y-64487769D01*
X117705168Y-64559198D02*
X117657549Y-64535388D01*
X117657549Y-64535388D02*
X117633739Y-64511579D01*
X117633739Y-64511579D02*
X117609930Y-64463960D01*
X117609930Y-64463960D02*
X117609930Y-64440150D01*
X117609930Y-64440150D02*
X117633739Y-64392531D01*
X117633739Y-64392531D02*
X117657549Y-64368722D01*
X117657549Y-64368722D02*
X117705168Y-64344912D01*
X117705168Y-64344912D02*
X117800406Y-64344912D01*
X117800406Y-64344912D02*
X117848025Y-64368722D01*
X117848025Y-64368722D02*
X117871834Y-64392531D01*
X117871834Y-64392531D02*
X117895644Y-64440150D01*
X117895644Y-64440150D02*
X117895644Y-64463960D01*
X117895644Y-64463960D02*
X117871834Y-64511579D01*
X117871834Y-64511579D02*
X117848025Y-64535388D01*
X117848025Y-64535388D02*
X117800406Y-64559198D01*
X117800406Y-64559198D02*
X117705168Y-64559198D01*
X117705168Y-64559198D02*
X117657549Y-64583007D01*
X117657549Y-64583007D02*
X117633739Y-64606817D01*
X117633739Y-64606817D02*
X117609930Y-64654436D01*
X117609930Y-64654436D02*
X117609930Y-64749674D01*
X117609930Y-64749674D02*
X117633739Y-64797293D01*
X117633739Y-64797293D02*
X117657549Y-64821103D01*
X117657549Y-64821103D02*
X117705168Y-64844912D01*
X117705168Y-64844912D02*
X117800406Y-64844912D01*
X117800406Y-64844912D02*
X117848025Y-64821103D01*
X117848025Y-64821103D02*
X117871834Y-64797293D01*
X117871834Y-64797293D02*
X117895644Y-64749674D01*
X117895644Y-64749674D02*
X117895644Y-64654436D01*
X117895644Y-64654436D02*
X117871834Y-64606817D01*
X117871834Y-64606817D02*
X117848025Y-64583007D01*
X117848025Y-64583007D02*
X117800406Y-64559198D01*
%TO.C,C15*%
X110439963Y-68962893D02*
X110416154Y-68986703D01*
X110416154Y-68986703D02*
X110344725Y-69010512D01*
X110344725Y-69010512D02*
X110297106Y-69010512D01*
X110297106Y-69010512D02*
X110225678Y-68986703D01*
X110225678Y-68986703D02*
X110178059Y-68939083D01*
X110178059Y-68939083D02*
X110154249Y-68891464D01*
X110154249Y-68891464D02*
X110130440Y-68796226D01*
X110130440Y-68796226D02*
X110130440Y-68724798D01*
X110130440Y-68724798D02*
X110154249Y-68629560D01*
X110154249Y-68629560D02*
X110178059Y-68581941D01*
X110178059Y-68581941D02*
X110225678Y-68534322D01*
X110225678Y-68534322D02*
X110297106Y-68510512D01*
X110297106Y-68510512D02*
X110344725Y-68510512D01*
X110344725Y-68510512D02*
X110416154Y-68534322D01*
X110416154Y-68534322D02*
X110439963Y-68558131D01*
X110916154Y-69010512D02*
X110630440Y-69010512D01*
X110773297Y-69010512D02*
X110773297Y-68510512D01*
X110773297Y-68510512D02*
X110725678Y-68581941D01*
X110725678Y-68581941D02*
X110678059Y-68629560D01*
X110678059Y-68629560D02*
X110630440Y-68653369D01*
X111368534Y-68510512D02*
X111130439Y-68510512D01*
X111130439Y-68510512D02*
X111106630Y-68748607D01*
X111106630Y-68748607D02*
X111130439Y-68724798D01*
X111130439Y-68724798D02*
X111178058Y-68700988D01*
X111178058Y-68700988D02*
X111297106Y-68700988D01*
X111297106Y-68700988D02*
X111344725Y-68724798D01*
X111344725Y-68724798D02*
X111368534Y-68748607D01*
X111368534Y-68748607D02*
X111392344Y-68796226D01*
X111392344Y-68796226D02*
X111392344Y-68915274D01*
X111392344Y-68915274D02*
X111368534Y-68962893D01*
X111368534Y-68962893D02*
X111344725Y-68986703D01*
X111344725Y-68986703D02*
X111297106Y-69010512D01*
X111297106Y-69010512D02*
X111178058Y-69010512D01*
X111178058Y-69010512D02*
X111130439Y-68986703D01*
X111130439Y-68986703D02*
X111106630Y-68962893D01*
%TO.C,C19*%
X116638463Y-70893293D02*
X116614654Y-70917103D01*
X116614654Y-70917103D02*
X116543225Y-70940912D01*
X116543225Y-70940912D02*
X116495606Y-70940912D01*
X116495606Y-70940912D02*
X116424178Y-70917103D01*
X116424178Y-70917103D02*
X116376559Y-70869483D01*
X116376559Y-70869483D02*
X116352749Y-70821864D01*
X116352749Y-70821864D02*
X116328940Y-70726626D01*
X116328940Y-70726626D02*
X116328940Y-70655198D01*
X116328940Y-70655198D02*
X116352749Y-70559960D01*
X116352749Y-70559960D02*
X116376559Y-70512341D01*
X116376559Y-70512341D02*
X116424178Y-70464722D01*
X116424178Y-70464722D02*
X116495606Y-70440912D01*
X116495606Y-70440912D02*
X116543225Y-70440912D01*
X116543225Y-70440912D02*
X116614654Y-70464722D01*
X116614654Y-70464722D02*
X116638463Y-70488531D01*
X117114654Y-70940912D02*
X116828940Y-70940912D01*
X116971797Y-70940912D02*
X116971797Y-70440912D01*
X116971797Y-70440912D02*
X116924178Y-70512341D01*
X116924178Y-70512341D02*
X116876559Y-70559960D01*
X116876559Y-70559960D02*
X116828940Y-70583769D01*
X117352749Y-70940912D02*
X117447987Y-70940912D01*
X117447987Y-70940912D02*
X117495606Y-70917103D01*
X117495606Y-70917103D02*
X117519415Y-70893293D01*
X117519415Y-70893293D02*
X117567034Y-70821864D01*
X117567034Y-70821864D02*
X117590844Y-70726626D01*
X117590844Y-70726626D02*
X117590844Y-70536150D01*
X117590844Y-70536150D02*
X117567034Y-70488531D01*
X117567034Y-70488531D02*
X117543225Y-70464722D01*
X117543225Y-70464722D02*
X117495606Y-70440912D01*
X117495606Y-70440912D02*
X117400368Y-70440912D01*
X117400368Y-70440912D02*
X117352749Y-70464722D01*
X117352749Y-70464722D02*
X117328939Y-70488531D01*
X117328939Y-70488531D02*
X117305130Y-70536150D01*
X117305130Y-70536150D02*
X117305130Y-70655198D01*
X117305130Y-70655198D02*
X117328939Y-70702817D01*
X117328939Y-70702817D02*
X117352749Y-70726626D01*
X117352749Y-70726626D02*
X117400368Y-70750436D01*
X117400368Y-70750436D02*
X117495606Y-70750436D01*
X117495606Y-70750436D02*
X117543225Y-70726626D01*
X117543225Y-70726626D02*
X117567034Y-70702817D01*
X117567034Y-70702817D02*
X117590844Y-70655198D01*
%TO.C,R4*%
X97771917Y-70758023D02*
X97605251Y-70519928D01*
X97486203Y-70758023D02*
X97486203Y-70258023D01*
X97486203Y-70258023D02*
X97676679Y-70258023D01*
X97676679Y-70258023D02*
X97724298Y-70281833D01*
X97724298Y-70281833D02*
X97748108Y-70305642D01*
X97748108Y-70305642D02*
X97771917Y-70353261D01*
X97771917Y-70353261D02*
X97771917Y-70424690D01*
X97771917Y-70424690D02*
X97748108Y-70472309D01*
X97748108Y-70472309D02*
X97724298Y-70496118D01*
X97724298Y-70496118D02*
X97676679Y-70519928D01*
X97676679Y-70519928D02*
X97486203Y-70519928D01*
X98200489Y-70424690D02*
X98200489Y-70758023D01*
X98081441Y-70234214D02*
X97962394Y-70591356D01*
X97962394Y-70591356D02*
X98271917Y-70591356D01*
%TO.C,C16*%
X112725963Y-70994893D02*
X112702154Y-71018703D01*
X112702154Y-71018703D02*
X112630725Y-71042512D01*
X112630725Y-71042512D02*
X112583106Y-71042512D01*
X112583106Y-71042512D02*
X112511678Y-71018703D01*
X112511678Y-71018703D02*
X112464059Y-70971083D01*
X112464059Y-70971083D02*
X112440249Y-70923464D01*
X112440249Y-70923464D02*
X112416440Y-70828226D01*
X112416440Y-70828226D02*
X112416440Y-70756798D01*
X112416440Y-70756798D02*
X112440249Y-70661560D01*
X112440249Y-70661560D02*
X112464059Y-70613941D01*
X112464059Y-70613941D02*
X112511678Y-70566322D01*
X112511678Y-70566322D02*
X112583106Y-70542512D01*
X112583106Y-70542512D02*
X112630725Y-70542512D01*
X112630725Y-70542512D02*
X112702154Y-70566322D01*
X112702154Y-70566322D02*
X112725963Y-70590131D01*
X113202154Y-71042512D02*
X112916440Y-71042512D01*
X113059297Y-71042512D02*
X113059297Y-70542512D01*
X113059297Y-70542512D02*
X113011678Y-70613941D01*
X113011678Y-70613941D02*
X112964059Y-70661560D01*
X112964059Y-70661560D02*
X112916440Y-70685369D01*
X113630725Y-70542512D02*
X113535487Y-70542512D01*
X113535487Y-70542512D02*
X113487868Y-70566322D01*
X113487868Y-70566322D02*
X113464058Y-70590131D01*
X113464058Y-70590131D02*
X113416439Y-70661560D01*
X113416439Y-70661560D02*
X113392630Y-70756798D01*
X113392630Y-70756798D02*
X113392630Y-70947274D01*
X113392630Y-70947274D02*
X113416439Y-70994893D01*
X113416439Y-70994893D02*
X113440249Y-71018703D01*
X113440249Y-71018703D02*
X113487868Y-71042512D01*
X113487868Y-71042512D02*
X113583106Y-71042512D01*
X113583106Y-71042512D02*
X113630725Y-71018703D01*
X113630725Y-71018703D02*
X113654534Y-70994893D01*
X113654534Y-70994893D02*
X113678344Y-70947274D01*
X113678344Y-70947274D02*
X113678344Y-70828226D01*
X113678344Y-70828226D02*
X113654534Y-70780607D01*
X113654534Y-70780607D02*
X113630725Y-70756798D01*
X113630725Y-70756798D02*
X113583106Y-70732988D01*
X113583106Y-70732988D02*
X113487868Y-70732988D01*
X113487868Y-70732988D02*
X113440249Y-70756798D01*
X113440249Y-70756798D02*
X113416439Y-70780607D01*
X113416439Y-70780607D02*
X113392630Y-70828226D01*
D12*
%TO.C,\u002A*%
X79719651Y-60565075D02*
X79719651Y-60588885D01*
X79695841Y-60579361D02*
X79719651Y-60588885D01*
X79719651Y-60588885D02*
X79743460Y-60579361D01*
X79705365Y-60607933D02*
X79719651Y-60588885D01*
X79719651Y-60588885D02*
X79733936Y-60607933D01*
D13*
%TO.C,J3*%
X82701317Y-70490433D02*
X82701317Y-71204718D01*
X82701317Y-71204718D02*
X82653698Y-71347575D01*
X82653698Y-71347575D02*
X82558460Y-71442814D01*
X82558460Y-71442814D02*
X82415603Y-71490433D01*
X82415603Y-71490433D02*
X82320365Y-71490433D01*
X83082270Y-70490433D02*
X83701317Y-70490433D01*
X83701317Y-70490433D02*
X83367984Y-70871385D01*
X83367984Y-70871385D02*
X83510841Y-70871385D01*
X83510841Y-70871385D02*
X83606079Y-70919004D01*
X83606079Y-70919004D02*
X83653698Y-70966623D01*
X83653698Y-70966623D02*
X83701317Y-71061861D01*
X83701317Y-71061861D02*
X83701317Y-71299956D01*
X83701317Y-71299956D02*
X83653698Y-71395194D01*
X83653698Y-71395194D02*
X83606079Y-71442814D01*
X83606079Y-71442814D02*
X83510841Y-71490433D01*
X83510841Y-71490433D02*
X83225127Y-71490433D01*
X83225127Y-71490433D02*
X83129889Y-71442814D01*
X83129889Y-71442814D02*
X83082270Y-71395194D01*
D11*
%TO.C,C14*%
X114454063Y-63628893D02*
X114430254Y-63652703D01*
X114430254Y-63652703D02*
X114358825Y-63676512D01*
X114358825Y-63676512D02*
X114311206Y-63676512D01*
X114311206Y-63676512D02*
X114239778Y-63652703D01*
X114239778Y-63652703D02*
X114192159Y-63605083D01*
X114192159Y-63605083D02*
X114168349Y-63557464D01*
X114168349Y-63557464D02*
X114144540Y-63462226D01*
X114144540Y-63462226D02*
X114144540Y-63390798D01*
X114144540Y-63390798D02*
X114168349Y-63295560D01*
X114168349Y-63295560D02*
X114192159Y-63247941D01*
X114192159Y-63247941D02*
X114239778Y-63200322D01*
X114239778Y-63200322D02*
X114311206Y-63176512D01*
X114311206Y-63176512D02*
X114358825Y-63176512D01*
X114358825Y-63176512D02*
X114430254Y-63200322D01*
X114430254Y-63200322D02*
X114454063Y-63224131D01*
X114930254Y-63676512D02*
X114644540Y-63676512D01*
X114787397Y-63676512D02*
X114787397Y-63176512D01*
X114787397Y-63176512D02*
X114739778Y-63247941D01*
X114739778Y-63247941D02*
X114692159Y-63295560D01*
X114692159Y-63295560D02*
X114644540Y-63319369D01*
X115358825Y-63343179D02*
X115358825Y-63676512D01*
X115239777Y-63152703D02*
X115120730Y-63509845D01*
X115120730Y-63509845D02*
X115430253Y-63509845D01*
%TO.C,C7*%
X94584517Y-57443304D02*
X94560708Y-57467114D01*
X94560708Y-57467114D02*
X94489279Y-57490923D01*
X94489279Y-57490923D02*
X94441660Y-57490923D01*
X94441660Y-57490923D02*
X94370232Y-57467114D01*
X94370232Y-57467114D02*
X94322613Y-57419494D01*
X94322613Y-57419494D02*
X94298803Y-57371875D01*
X94298803Y-57371875D02*
X94274994Y-57276637D01*
X94274994Y-57276637D02*
X94274994Y-57205209D01*
X94274994Y-57205209D02*
X94298803Y-57109971D01*
X94298803Y-57109971D02*
X94322613Y-57062352D01*
X94322613Y-57062352D02*
X94370232Y-57014733D01*
X94370232Y-57014733D02*
X94441660Y-56990923D01*
X94441660Y-56990923D02*
X94489279Y-56990923D01*
X94489279Y-56990923D02*
X94560708Y-57014733D01*
X94560708Y-57014733D02*
X94584517Y-57038542D01*
X94751184Y-56990923D02*
X95084517Y-56990923D01*
X95084517Y-56990923D02*
X94870232Y-57490923D01*
%TO.C,C3*%
X97822717Y-58459304D02*
X97798908Y-58483114D01*
X97798908Y-58483114D02*
X97727479Y-58506923D01*
X97727479Y-58506923D02*
X97679860Y-58506923D01*
X97679860Y-58506923D02*
X97608432Y-58483114D01*
X97608432Y-58483114D02*
X97560813Y-58435494D01*
X97560813Y-58435494D02*
X97537003Y-58387875D01*
X97537003Y-58387875D02*
X97513194Y-58292637D01*
X97513194Y-58292637D02*
X97513194Y-58221209D01*
X97513194Y-58221209D02*
X97537003Y-58125971D01*
X97537003Y-58125971D02*
X97560813Y-58078352D01*
X97560813Y-58078352D02*
X97608432Y-58030733D01*
X97608432Y-58030733D02*
X97679860Y-58006923D01*
X97679860Y-58006923D02*
X97727479Y-58006923D01*
X97727479Y-58006923D02*
X97798908Y-58030733D01*
X97798908Y-58030733D02*
X97822717Y-58054542D01*
X97989384Y-58006923D02*
X98298908Y-58006923D01*
X98298908Y-58006923D02*
X98132241Y-58197399D01*
X98132241Y-58197399D02*
X98203670Y-58197399D01*
X98203670Y-58197399D02*
X98251289Y-58221209D01*
X98251289Y-58221209D02*
X98275098Y-58245018D01*
X98275098Y-58245018D02*
X98298908Y-58292637D01*
X98298908Y-58292637D02*
X98298908Y-58411685D01*
X98298908Y-58411685D02*
X98275098Y-58459304D01*
X98275098Y-58459304D02*
X98251289Y-58483114D01*
X98251289Y-58483114D02*
X98203670Y-58506923D01*
X98203670Y-58506923D02*
X98060813Y-58506923D01*
X98060813Y-58506923D02*
X98013194Y-58483114D01*
X98013194Y-58483114D02*
X97989384Y-58459304D01*
%TO.C,L2*%
X116978158Y-68858112D02*
X116740063Y-68858112D01*
X116740063Y-68858112D02*
X116740063Y-68358112D01*
X117121016Y-68405731D02*
X117144825Y-68381922D01*
X117144825Y-68381922D02*
X117192444Y-68358112D01*
X117192444Y-68358112D02*
X117311492Y-68358112D01*
X117311492Y-68358112D02*
X117359111Y-68381922D01*
X117359111Y-68381922D02*
X117382920Y-68405731D01*
X117382920Y-68405731D02*
X117406730Y-68453350D01*
X117406730Y-68453350D02*
X117406730Y-68500969D01*
X117406730Y-68500969D02*
X117382920Y-68572398D01*
X117382920Y-68572398D02*
X117097206Y-68858112D01*
X117097206Y-68858112D02*
X117406730Y-68858112D01*
%TO.C,R3*%
X104328058Y-76630512D02*
X104161392Y-76392417D01*
X104042344Y-76630512D02*
X104042344Y-76130512D01*
X104042344Y-76130512D02*
X104232820Y-76130512D01*
X104232820Y-76130512D02*
X104280439Y-76154322D01*
X104280439Y-76154322D02*
X104304249Y-76178131D01*
X104304249Y-76178131D02*
X104328058Y-76225750D01*
X104328058Y-76225750D02*
X104328058Y-76297179D01*
X104328058Y-76297179D02*
X104304249Y-76344798D01*
X104304249Y-76344798D02*
X104280439Y-76368607D01*
X104280439Y-76368607D02*
X104232820Y-76392417D01*
X104232820Y-76392417D02*
X104042344Y-76392417D01*
X104494725Y-76130512D02*
X104804249Y-76130512D01*
X104804249Y-76130512D02*
X104637582Y-76320988D01*
X104637582Y-76320988D02*
X104709011Y-76320988D01*
X104709011Y-76320988D02*
X104756630Y-76344798D01*
X104756630Y-76344798D02*
X104780439Y-76368607D01*
X104780439Y-76368607D02*
X104804249Y-76416226D01*
X104804249Y-76416226D02*
X104804249Y-76535274D01*
X104804249Y-76535274D02*
X104780439Y-76582893D01*
X104780439Y-76582893D02*
X104756630Y-76606703D01*
X104756630Y-76606703D02*
X104709011Y-76630512D01*
X104709011Y-76630512D02*
X104566154Y-76630512D01*
X104566154Y-76630512D02*
X104518535Y-76606703D01*
X104518535Y-76606703D02*
X104494725Y-76582893D01*
%TO.C,C20*%
X100534863Y-72366493D02*
X100511054Y-72390303D01*
X100511054Y-72390303D02*
X100439625Y-72414112D01*
X100439625Y-72414112D02*
X100392006Y-72414112D01*
X100392006Y-72414112D02*
X100320578Y-72390303D01*
X100320578Y-72390303D02*
X100272959Y-72342683D01*
X100272959Y-72342683D02*
X100249149Y-72295064D01*
X100249149Y-72295064D02*
X100225340Y-72199826D01*
X100225340Y-72199826D02*
X100225340Y-72128398D01*
X100225340Y-72128398D02*
X100249149Y-72033160D01*
X100249149Y-72033160D02*
X100272959Y-71985541D01*
X100272959Y-71985541D02*
X100320578Y-71937922D01*
X100320578Y-71937922D02*
X100392006Y-71914112D01*
X100392006Y-71914112D02*
X100439625Y-71914112D01*
X100439625Y-71914112D02*
X100511054Y-71937922D01*
X100511054Y-71937922D02*
X100534863Y-71961731D01*
X100725340Y-71961731D02*
X100749149Y-71937922D01*
X100749149Y-71937922D02*
X100796768Y-71914112D01*
X100796768Y-71914112D02*
X100915816Y-71914112D01*
X100915816Y-71914112D02*
X100963435Y-71937922D01*
X100963435Y-71937922D02*
X100987244Y-71961731D01*
X100987244Y-71961731D02*
X101011054Y-72009350D01*
X101011054Y-72009350D02*
X101011054Y-72056969D01*
X101011054Y-72056969D02*
X100987244Y-72128398D01*
X100987244Y-72128398D02*
X100701530Y-72414112D01*
X100701530Y-72414112D02*
X101011054Y-72414112D01*
X101320577Y-71914112D02*
X101368196Y-71914112D01*
X101368196Y-71914112D02*
X101415815Y-71937922D01*
X101415815Y-71937922D02*
X101439625Y-71961731D01*
X101439625Y-71961731D02*
X101463434Y-72009350D01*
X101463434Y-72009350D02*
X101487244Y-72104588D01*
X101487244Y-72104588D02*
X101487244Y-72223636D01*
X101487244Y-72223636D02*
X101463434Y-72318874D01*
X101463434Y-72318874D02*
X101439625Y-72366493D01*
X101439625Y-72366493D02*
X101415815Y-72390303D01*
X101415815Y-72390303D02*
X101368196Y-72414112D01*
X101368196Y-72414112D02*
X101320577Y-72414112D01*
X101320577Y-72414112D02*
X101272958Y-72390303D01*
X101272958Y-72390303D02*
X101249149Y-72366493D01*
X101249149Y-72366493D02*
X101225339Y-72318874D01*
X101225339Y-72318874D02*
X101201530Y-72223636D01*
X101201530Y-72223636D02*
X101201530Y-72104588D01*
X101201530Y-72104588D02*
X101225339Y-72009350D01*
X101225339Y-72009350D02*
X101249149Y-71961731D01*
X101249149Y-71961731D02*
X101272958Y-71937922D01*
X101272958Y-71937922D02*
X101320577Y-71914112D01*
%TO.C,C10*%
X109628063Y-75770093D02*
X109604254Y-75793903D01*
X109604254Y-75793903D02*
X109532825Y-75817712D01*
X109532825Y-75817712D02*
X109485206Y-75817712D01*
X109485206Y-75817712D02*
X109413778Y-75793903D01*
X109413778Y-75793903D02*
X109366159Y-75746283D01*
X109366159Y-75746283D02*
X109342349Y-75698664D01*
X109342349Y-75698664D02*
X109318540Y-75603426D01*
X109318540Y-75603426D02*
X109318540Y-75531998D01*
X109318540Y-75531998D02*
X109342349Y-75436760D01*
X109342349Y-75436760D02*
X109366159Y-75389141D01*
X109366159Y-75389141D02*
X109413778Y-75341522D01*
X109413778Y-75341522D02*
X109485206Y-75317712D01*
X109485206Y-75317712D02*
X109532825Y-75317712D01*
X109532825Y-75317712D02*
X109604254Y-75341522D01*
X109604254Y-75341522D02*
X109628063Y-75365331D01*
X110104254Y-75817712D02*
X109818540Y-75817712D01*
X109961397Y-75817712D02*
X109961397Y-75317712D01*
X109961397Y-75317712D02*
X109913778Y-75389141D01*
X109913778Y-75389141D02*
X109866159Y-75436760D01*
X109866159Y-75436760D02*
X109818540Y-75460569D01*
X110413777Y-75317712D02*
X110461396Y-75317712D01*
X110461396Y-75317712D02*
X110509015Y-75341522D01*
X110509015Y-75341522D02*
X110532825Y-75365331D01*
X110532825Y-75365331D02*
X110556634Y-75412950D01*
X110556634Y-75412950D02*
X110580444Y-75508188D01*
X110580444Y-75508188D02*
X110580444Y-75627236D01*
X110580444Y-75627236D02*
X110556634Y-75722474D01*
X110556634Y-75722474D02*
X110532825Y-75770093D01*
X110532825Y-75770093D02*
X110509015Y-75793903D01*
X110509015Y-75793903D02*
X110461396Y-75817712D01*
X110461396Y-75817712D02*
X110413777Y-75817712D01*
X110413777Y-75817712D02*
X110366158Y-75793903D01*
X110366158Y-75793903D02*
X110342349Y-75770093D01*
X110342349Y-75770093D02*
X110318539Y-75722474D01*
X110318539Y-75722474D02*
X110294730Y-75627236D01*
X110294730Y-75627236D02*
X110294730Y-75508188D01*
X110294730Y-75508188D02*
X110318539Y-75412950D01*
X110318539Y-75412950D02*
X110342349Y-75365331D01*
X110342349Y-75365331D02*
X110366158Y-75341522D01*
X110366158Y-75341522D02*
X110413777Y-75317712D01*
%TO.C,C13*%
X101906463Y-58810893D02*
X101882654Y-58834703D01*
X101882654Y-58834703D02*
X101811225Y-58858512D01*
X101811225Y-58858512D02*
X101763606Y-58858512D01*
X101763606Y-58858512D02*
X101692178Y-58834703D01*
X101692178Y-58834703D02*
X101644559Y-58787083D01*
X101644559Y-58787083D02*
X101620749Y-58739464D01*
X101620749Y-58739464D02*
X101596940Y-58644226D01*
X101596940Y-58644226D02*
X101596940Y-58572798D01*
X101596940Y-58572798D02*
X101620749Y-58477560D01*
X101620749Y-58477560D02*
X101644559Y-58429941D01*
X101644559Y-58429941D02*
X101692178Y-58382322D01*
X101692178Y-58382322D02*
X101763606Y-58358512D01*
X101763606Y-58358512D02*
X101811225Y-58358512D01*
X101811225Y-58358512D02*
X101882654Y-58382322D01*
X101882654Y-58382322D02*
X101906463Y-58406131D01*
X102382654Y-58858512D02*
X102096940Y-58858512D01*
X102239797Y-58858512D02*
X102239797Y-58358512D01*
X102239797Y-58358512D02*
X102192178Y-58429941D01*
X102192178Y-58429941D02*
X102144559Y-58477560D01*
X102144559Y-58477560D02*
X102096940Y-58501369D01*
X102549320Y-58358512D02*
X102858844Y-58358512D01*
X102858844Y-58358512D02*
X102692177Y-58548988D01*
X102692177Y-58548988D02*
X102763606Y-58548988D01*
X102763606Y-58548988D02*
X102811225Y-58572798D01*
X102811225Y-58572798D02*
X102835034Y-58596607D01*
X102835034Y-58596607D02*
X102858844Y-58644226D01*
X102858844Y-58644226D02*
X102858844Y-58763274D01*
X102858844Y-58763274D02*
X102835034Y-58810893D01*
X102835034Y-58810893D02*
X102811225Y-58834703D01*
X102811225Y-58834703D02*
X102763606Y-58858512D01*
X102763606Y-58858512D02*
X102620749Y-58858512D01*
X102620749Y-58858512D02*
X102573130Y-58834703D01*
X102573130Y-58834703D02*
X102549320Y-58810893D01*
%TO.C,U2*%
X90564598Y-70241923D02*
X90564598Y-70646685D01*
X90564598Y-70646685D02*
X90588408Y-70694304D01*
X90588408Y-70694304D02*
X90612217Y-70718114D01*
X90612217Y-70718114D02*
X90659836Y-70741923D01*
X90659836Y-70741923D02*
X90755074Y-70741923D01*
X90755074Y-70741923D02*
X90802693Y-70718114D01*
X90802693Y-70718114D02*
X90826503Y-70694304D01*
X90826503Y-70694304D02*
X90850312Y-70646685D01*
X90850312Y-70646685D02*
X90850312Y-70241923D01*
X91064599Y-70289542D02*
X91088408Y-70265733D01*
X91088408Y-70265733D02*
X91136027Y-70241923D01*
X91136027Y-70241923D02*
X91255075Y-70241923D01*
X91255075Y-70241923D02*
X91302694Y-70265733D01*
X91302694Y-70265733D02*
X91326503Y-70289542D01*
X91326503Y-70289542D02*
X91350313Y-70337161D01*
X91350313Y-70337161D02*
X91350313Y-70384780D01*
X91350313Y-70384780D02*
X91326503Y-70456209D01*
X91326503Y-70456209D02*
X91040789Y-70741923D01*
X91040789Y-70741923D02*
X91350313Y-70741923D01*
%TO.C,R1*%
X89034317Y-74846123D02*
X88867651Y-74608028D01*
X88748603Y-74846123D02*
X88748603Y-74346123D01*
X88748603Y-74346123D02*
X88939079Y-74346123D01*
X88939079Y-74346123D02*
X88986698Y-74369933D01*
X88986698Y-74369933D02*
X89010508Y-74393742D01*
X89010508Y-74393742D02*
X89034317Y-74441361D01*
X89034317Y-74441361D02*
X89034317Y-74512790D01*
X89034317Y-74512790D02*
X89010508Y-74560409D01*
X89010508Y-74560409D02*
X88986698Y-74584218D01*
X88986698Y-74584218D02*
X88939079Y-74608028D01*
X88939079Y-74608028D02*
X88748603Y-74608028D01*
X89510508Y-74846123D02*
X89224794Y-74846123D01*
X89367651Y-74846123D02*
X89367651Y-74346123D01*
X89367651Y-74346123D02*
X89320032Y-74417552D01*
X89320032Y-74417552D02*
X89272413Y-74465171D01*
X89272413Y-74465171D02*
X89224794Y-74488980D01*
D13*
%TO.C,F1*%
X86853917Y-70311223D02*
X86520584Y-70311223D01*
X86520584Y-70835033D02*
X86520584Y-69835033D01*
X86520584Y-69835033D02*
X86996774Y-69835033D01*
X87901536Y-70835033D02*
X87330108Y-70835033D01*
X87615822Y-70835033D02*
X87615822Y-69835033D01*
X87615822Y-69835033D02*
X87520584Y-69977890D01*
X87520584Y-69977890D02*
X87425346Y-70073128D01*
X87425346Y-70073128D02*
X87330108Y-70120747D01*
D11*
%TO.C,C5*%
X91371117Y-74734704D02*
X91347308Y-74758514D01*
X91347308Y-74758514D02*
X91275879Y-74782323D01*
X91275879Y-74782323D02*
X91228260Y-74782323D01*
X91228260Y-74782323D02*
X91156832Y-74758514D01*
X91156832Y-74758514D02*
X91109213Y-74710894D01*
X91109213Y-74710894D02*
X91085403Y-74663275D01*
X91085403Y-74663275D02*
X91061594Y-74568037D01*
X91061594Y-74568037D02*
X91061594Y-74496609D01*
X91061594Y-74496609D02*
X91085403Y-74401371D01*
X91085403Y-74401371D02*
X91109213Y-74353752D01*
X91109213Y-74353752D02*
X91156832Y-74306133D01*
X91156832Y-74306133D02*
X91228260Y-74282323D01*
X91228260Y-74282323D02*
X91275879Y-74282323D01*
X91275879Y-74282323D02*
X91347308Y-74306133D01*
X91347308Y-74306133D02*
X91371117Y-74329942D01*
X91823498Y-74282323D02*
X91585403Y-74282323D01*
X91585403Y-74282323D02*
X91561594Y-74520418D01*
X91561594Y-74520418D02*
X91585403Y-74496609D01*
X91585403Y-74496609D02*
X91633022Y-74472799D01*
X91633022Y-74472799D02*
X91752070Y-74472799D01*
X91752070Y-74472799D02*
X91799689Y-74496609D01*
X91799689Y-74496609D02*
X91823498Y-74520418D01*
X91823498Y-74520418D02*
X91847308Y-74568037D01*
X91847308Y-74568037D02*
X91847308Y-74687085D01*
X91847308Y-74687085D02*
X91823498Y-74734704D01*
X91823498Y-74734704D02*
X91799689Y-74758514D01*
X91799689Y-74758514D02*
X91752070Y-74782323D01*
X91752070Y-74782323D02*
X91633022Y-74782323D01*
X91633022Y-74782323D02*
X91585403Y-74758514D01*
X91585403Y-74758514D02*
X91561594Y-74734704D01*
%TO.C,Y1*%
X104089297Y-72152417D02*
X104089297Y-72390512D01*
X103922631Y-71890512D02*
X104089297Y-72152417D01*
X104089297Y-72152417D02*
X104255964Y-71890512D01*
X104684535Y-72390512D02*
X104398821Y-72390512D01*
X104541678Y-72390512D02*
X104541678Y-71890512D01*
X104541678Y-71890512D02*
X104494059Y-71961941D01*
X104494059Y-71961941D02*
X104446440Y-72009560D01*
X104446440Y-72009560D02*
X104398821Y-72033369D01*
%TO.C,U4*%
X102964539Y-63328912D02*
X102964539Y-63733674D01*
X102964539Y-63733674D02*
X102988349Y-63781293D01*
X102988349Y-63781293D02*
X103012158Y-63805103D01*
X103012158Y-63805103D02*
X103059777Y-63828912D01*
X103059777Y-63828912D02*
X103155015Y-63828912D01*
X103155015Y-63828912D02*
X103202634Y-63805103D01*
X103202634Y-63805103D02*
X103226444Y-63781293D01*
X103226444Y-63781293D02*
X103250253Y-63733674D01*
X103250253Y-63733674D02*
X103250253Y-63328912D01*
X103702635Y-63495579D02*
X103702635Y-63828912D01*
X103583587Y-63305103D02*
X103464540Y-63662245D01*
X103464540Y-63662245D02*
X103774063Y-63662245D01*
%TO.C,R2*%
X109916058Y-59858512D02*
X109749392Y-59620417D01*
X109630344Y-59858512D02*
X109630344Y-59358512D01*
X109630344Y-59358512D02*
X109820820Y-59358512D01*
X109820820Y-59358512D02*
X109868439Y-59382322D01*
X109868439Y-59382322D02*
X109892249Y-59406131D01*
X109892249Y-59406131D02*
X109916058Y-59453750D01*
X109916058Y-59453750D02*
X109916058Y-59525179D01*
X109916058Y-59525179D02*
X109892249Y-59572798D01*
X109892249Y-59572798D02*
X109868439Y-59596607D01*
X109868439Y-59596607D02*
X109820820Y-59620417D01*
X109820820Y-59620417D02*
X109630344Y-59620417D01*
X110106535Y-59406131D02*
X110130344Y-59382322D01*
X110130344Y-59382322D02*
X110177963Y-59358512D01*
X110177963Y-59358512D02*
X110297011Y-59358512D01*
X110297011Y-59358512D02*
X110344630Y-59382322D01*
X110344630Y-59382322D02*
X110368439Y-59406131D01*
X110368439Y-59406131D02*
X110392249Y-59453750D01*
X110392249Y-59453750D02*
X110392249Y-59501369D01*
X110392249Y-59501369D02*
X110368439Y-59572798D01*
X110368439Y-59572798D02*
X110082725Y-59858512D01*
X110082725Y-59858512D02*
X110392249Y-59858512D01*
%TO.C,L1*%
X116989358Y-66876912D02*
X116751263Y-66876912D01*
X116751263Y-66876912D02*
X116751263Y-66376912D01*
X117417930Y-66876912D02*
X117132216Y-66876912D01*
X117275073Y-66876912D02*
X117275073Y-66376912D01*
X117275073Y-66376912D02*
X117227454Y-66448341D01*
X117227454Y-66448341D02*
X117179835Y-66495960D01*
X117179835Y-66495960D02*
X117132216Y-66519769D01*
%TO.C,C6*%
X97923417Y-63517704D02*
X97899608Y-63541514D01*
X97899608Y-63541514D02*
X97828179Y-63565323D01*
X97828179Y-63565323D02*
X97780560Y-63565323D01*
X97780560Y-63565323D02*
X97709132Y-63541514D01*
X97709132Y-63541514D02*
X97661513Y-63493894D01*
X97661513Y-63493894D02*
X97637703Y-63446275D01*
X97637703Y-63446275D02*
X97613894Y-63351037D01*
X97613894Y-63351037D02*
X97613894Y-63279609D01*
X97613894Y-63279609D02*
X97637703Y-63184371D01*
X97637703Y-63184371D02*
X97661513Y-63136752D01*
X97661513Y-63136752D02*
X97709132Y-63089133D01*
X97709132Y-63089133D02*
X97780560Y-63065323D01*
X97780560Y-63065323D02*
X97828179Y-63065323D01*
X97828179Y-63065323D02*
X97899608Y-63089133D01*
X97899608Y-63089133D02*
X97923417Y-63112942D01*
X98351989Y-63065323D02*
X98256751Y-63065323D01*
X98256751Y-63065323D02*
X98209132Y-63089133D01*
X98209132Y-63089133D02*
X98185322Y-63112942D01*
X98185322Y-63112942D02*
X98137703Y-63184371D01*
X98137703Y-63184371D02*
X98113894Y-63279609D01*
X98113894Y-63279609D02*
X98113894Y-63470085D01*
X98113894Y-63470085D02*
X98137703Y-63517704D01*
X98137703Y-63517704D02*
X98161513Y-63541514D01*
X98161513Y-63541514D02*
X98209132Y-63565323D01*
X98209132Y-63565323D02*
X98304370Y-63565323D01*
X98304370Y-63565323D02*
X98351989Y-63541514D01*
X98351989Y-63541514D02*
X98375798Y-63517704D01*
X98375798Y-63517704D02*
X98399608Y-63470085D01*
X98399608Y-63470085D02*
X98399608Y-63351037D01*
X98399608Y-63351037D02*
X98375798Y-63303418D01*
X98375798Y-63303418D02*
X98351989Y-63279609D01*
X98351989Y-63279609D02*
X98304370Y-63255799D01*
X98304370Y-63255799D02*
X98209132Y-63255799D01*
X98209132Y-63255799D02*
X98161513Y-63279609D01*
X98161513Y-63279609D02*
X98137703Y-63303418D01*
X98137703Y-63303418D02*
X98113894Y-63351037D01*
%TO.C,C12*%
X107137963Y-59810893D02*
X107114154Y-59834703D01*
X107114154Y-59834703D02*
X107042725Y-59858512D01*
X107042725Y-59858512D02*
X106995106Y-59858512D01*
X106995106Y-59858512D02*
X106923678Y-59834703D01*
X106923678Y-59834703D02*
X106876059Y-59787083D01*
X106876059Y-59787083D02*
X106852249Y-59739464D01*
X106852249Y-59739464D02*
X106828440Y-59644226D01*
X106828440Y-59644226D02*
X106828440Y-59572798D01*
X106828440Y-59572798D02*
X106852249Y-59477560D01*
X106852249Y-59477560D02*
X106876059Y-59429941D01*
X106876059Y-59429941D02*
X106923678Y-59382322D01*
X106923678Y-59382322D02*
X106995106Y-59358512D01*
X106995106Y-59358512D02*
X107042725Y-59358512D01*
X107042725Y-59358512D02*
X107114154Y-59382322D01*
X107114154Y-59382322D02*
X107137963Y-59406131D01*
X107614154Y-59858512D02*
X107328440Y-59858512D01*
X107471297Y-59858512D02*
X107471297Y-59358512D01*
X107471297Y-59358512D02*
X107423678Y-59429941D01*
X107423678Y-59429941D02*
X107376059Y-59477560D01*
X107376059Y-59477560D02*
X107328440Y-59501369D01*
X107804630Y-59406131D02*
X107828439Y-59382322D01*
X107828439Y-59382322D02*
X107876058Y-59358512D01*
X107876058Y-59358512D02*
X107995106Y-59358512D01*
X107995106Y-59358512D02*
X108042725Y-59382322D01*
X108042725Y-59382322D02*
X108066534Y-59406131D01*
X108066534Y-59406131D02*
X108090344Y-59453750D01*
X108090344Y-59453750D02*
X108090344Y-59501369D01*
X108090344Y-59501369D02*
X108066534Y-59572798D01*
X108066534Y-59572798D02*
X107780820Y-59858512D01*
X107780820Y-59858512D02*
X108090344Y-59858512D01*
%TO.C,C2*%
X90355117Y-75991704D02*
X90331308Y-76015514D01*
X90331308Y-76015514D02*
X90259879Y-76039323D01*
X90259879Y-76039323D02*
X90212260Y-76039323D01*
X90212260Y-76039323D02*
X90140832Y-76015514D01*
X90140832Y-76015514D02*
X90093213Y-75967894D01*
X90093213Y-75967894D02*
X90069403Y-75920275D01*
X90069403Y-75920275D02*
X90045594Y-75825037D01*
X90045594Y-75825037D02*
X90045594Y-75753609D01*
X90045594Y-75753609D02*
X90069403Y-75658371D01*
X90069403Y-75658371D02*
X90093213Y-75610752D01*
X90093213Y-75610752D02*
X90140832Y-75563133D01*
X90140832Y-75563133D02*
X90212260Y-75539323D01*
X90212260Y-75539323D02*
X90259879Y-75539323D01*
X90259879Y-75539323D02*
X90331308Y-75563133D01*
X90331308Y-75563133D02*
X90355117Y-75586942D01*
X90545594Y-75586942D02*
X90569403Y-75563133D01*
X90569403Y-75563133D02*
X90617022Y-75539323D01*
X90617022Y-75539323D02*
X90736070Y-75539323D01*
X90736070Y-75539323D02*
X90783689Y-75563133D01*
X90783689Y-75563133D02*
X90807498Y-75586942D01*
X90807498Y-75586942D02*
X90831308Y-75634561D01*
X90831308Y-75634561D02*
X90831308Y-75682180D01*
X90831308Y-75682180D02*
X90807498Y-75753609D01*
X90807498Y-75753609D02*
X90521784Y-76039323D01*
X90521784Y-76039323D02*
X90831308Y-76039323D01*
%TO.C,R5*%
X95536717Y-70729523D02*
X95370051Y-70491428D01*
X95251003Y-70729523D02*
X95251003Y-70229523D01*
X95251003Y-70229523D02*
X95441479Y-70229523D01*
X95441479Y-70229523D02*
X95489098Y-70253333D01*
X95489098Y-70253333D02*
X95512908Y-70277142D01*
X95512908Y-70277142D02*
X95536717Y-70324761D01*
X95536717Y-70324761D02*
X95536717Y-70396190D01*
X95536717Y-70396190D02*
X95512908Y-70443809D01*
X95512908Y-70443809D02*
X95489098Y-70467618D01*
X95489098Y-70467618D02*
X95441479Y-70491428D01*
X95441479Y-70491428D02*
X95251003Y-70491428D01*
X95989098Y-70229523D02*
X95751003Y-70229523D01*
X95751003Y-70229523D02*
X95727194Y-70467618D01*
X95727194Y-70467618D02*
X95751003Y-70443809D01*
X95751003Y-70443809D02*
X95798622Y-70419999D01*
X95798622Y-70419999D02*
X95917670Y-70419999D01*
X95917670Y-70419999D02*
X95965289Y-70443809D01*
X95965289Y-70443809D02*
X95989098Y-70467618D01*
X95989098Y-70467618D02*
X96012908Y-70515237D01*
X96012908Y-70515237D02*
X96012908Y-70634285D01*
X96012908Y-70634285D02*
X95989098Y-70681904D01*
X95989098Y-70681904D02*
X95965289Y-70705714D01*
X95965289Y-70705714D02*
X95917670Y-70729523D01*
X95917670Y-70729523D02*
X95798622Y-70729523D01*
X95798622Y-70729523D02*
X95751003Y-70705714D01*
X95751003Y-70705714D02*
X95727194Y-70681904D01*
%TO.C,C21*%
X107645963Y-72596893D02*
X107622154Y-72620703D01*
X107622154Y-72620703D02*
X107550725Y-72644512D01*
X107550725Y-72644512D02*
X107503106Y-72644512D01*
X107503106Y-72644512D02*
X107431678Y-72620703D01*
X107431678Y-72620703D02*
X107384059Y-72573083D01*
X107384059Y-72573083D02*
X107360249Y-72525464D01*
X107360249Y-72525464D02*
X107336440Y-72430226D01*
X107336440Y-72430226D02*
X107336440Y-72358798D01*
X107336440Y-72358798D02*
X107360249Y-72263560D01*
X107360249Y-72263560D02*
X107384059Y-72215941D01*
X107384059Y-72215941D02*
X107431678Y-72168322D01*
X107431678Y-72168322D02*
X107503106Y-72144512D01*
X107503106Y-72144512D02*
X107550725Y-72144512D01*
X107550725Y-72144512D02*
X107622154Y-72168322D01*
X107622154Y-72168322D02*
X107645963Y-72192131D01*
X107836440Y-72192131D02*
X107860249Y-72168322D01*
X107860249Y-72168322D02*
X107907868Y-72144512D01*
X107907868Y-72144512D02*
X108026916Y-72144512D01*
X108026916Y-72144512D02*
X108074535Y-72168322D01*
X108074535Y-72168322D02*
X108098344Y-72192131D01*
X108098344Y-72192131D02*
X108122154Y-72239750D01*
X108122154Y-72239750D02*
X108122154Y-72287369D01*
X108122154Y-72287369D02*
X108098344Y-72358798D01*
X108098344Y-72358798D02*
X107812630Y-72644512D01*
X107812630Y-72644512D02*
X108122154Y-72644512D01*
X108598344Y-72644512D02*
X108312630Y-72644512D01*
X108455487Y-72644512D02*
X108455487Y-72144512D01*
X108455487Y-72144512D02*
X108407868Y-72215941D01*
X108407868Y-72215941D02*
X108360249Y-72263560D01*
X108360249Y-72263560D02*
X108312630Y-72287369D01*
%TO.C,C8*%
X111847358Y-75820893D02*
X111823549Y-75844703D01*
X111823549Y-75844703D02*
X111752120Y-75868512D01*
X111752120Y-75868512D02*
X111704501Y-75868512D01*
X111704501Y-75868512D02*
X111633073Y-75844703D01*
X111633073Y-75844703D02*
X111585454Y-75797083D01*
X111585454Y-75797083D02*
X111561644Y-75749464D01*
X111561644Y-75749464D02*
X111537835Y-75654226D01*
X111537835Y-75654226D02*
X111537835Y-75582798D01*
X111537835Y-75582798D02*
X111561644Y-75487560D01*
X111561644Y-75487560D02*
X111585454Y-75439941D01*
X111585454Y-75439941D02*
X111633073Y-75392322D01*
X111633073Y-75392322D02*
X111704501Y-75368512D01*
X111704501Y-75368512D02*
X111752120Y-75368512D01*
X111752120Y-75368512D02*
X111823549Y-75392322D01*
X111823549Y-75392322D02*
X111847358Y-75416131D01*
X112133073Y-75582798D02*
X112085454Y-75558988D01*
X112085454Y-75558988D02*
X112061644Y-75535179D01*
X112061644Y-75535179D02*
X112037835Y-75487560D01*
X112037835Y-75487560D02*
X112037835Y-75463750D01*
X112037835Y-75463750D02*
X112061644Y-75416131D01*
X112061644Y-75416131D02*
X112085454Y-75392322D01*
X112085454Y-75392322D02*
X112133073Y-75368512D01*
X112133073Y-75368512D02*
X112228311Y-75368512D01*
X112228311Y-75368512D02*
X112275930Y-75392322D01*
X112275930Y-75392322D02*
X112299739Y-75416131D01*
X112299739Y-75416131D02*
X112323549Y-75463750D01*
X112323549Y-75463750D02*
X112323549Y-75487560D01*
X112323549Y-75487560D02*
X112299739Y-75535179D01*
X112299739Y-75535179D02*
X112275930Y-75558988D01*
X112275930Y-75558988D02*
X112228311Y-75582798D01*
X112228311Y-75582798D02*
X112133073Y-75582798D01*
X112133073Y-75582798D02*
X112085454Y-75606607D01*
X112085454Y-75606607D02*
X112061644Y-75630417D01*
X112061644Y-75630417D02*
X112037835Y-75678036D01*
X112037835Y-75678036D02*
X112037835Y-75773274D01*
X112037835Y-75773274D02*
X112061644Y-75820893D01*
X112061644Y-75820893D02*
X112085454Y-75844703D01*
X112085454Y-75844703D02*
X112133073Y-75868512D01*
X112133073Y-75868512D02*
X112228311Y-75868512D01*
X112228311Y-75868512D02*
X112275930Y-75844703D01*
X112275930Y-75844703D02*
X112299739Y-75820893D01*
X112299739Y-75820893D02*
X112323549Y-75773274D01*
X112323549Y-75773274D02*
X112323549Y-75678036D01*
X112323549Y-75678036D02*
X112299739Y-75630417D01*
X112299739Y-75630417D02*
X112275930Y-75606607D01*
X112275930Y-75606607D02*
X112228311Y-75582798D01*
%TO.C,C11*%
X101445422Y-67762104D02*
X101421613Y-67785914D01*
X101421613Y-67785914D02*
X101350184Y-67809723D01*
X101350184Y-67809723D02*
X101302565Y-67809723D01*
X101302565Y-67809723D02*
X101231137Y-67785914D01*
X101231137Y-67785914D02*
X101183518Y-67738294D01*
X101183518Y-67738294D02*
X101159708Y-67690675D01*
X101159708Y-67690675D02*
X101135899Y-67595437D01*
X101135899Y-67595437D02*
X101135899Y-67524009D01*
X101135899Y-67524009D02*
X101159708Y-67428771D01*
X101159708Y-67428771D02*
X101183518Y-67381152D01*
X101183518Y-67381152D02*
X101231137Y-67333533D01*
X101231137Y-67333533D02*
X101302565Y-67309723D01*
X101302565Y-67309723D02*
X101350184Y-67309723D01*
X101350184Y-67309723D02*
X101421613Y-67333533D01*
X101421613Y-67333533D02*
X101445422Y-67357342D01*
X101921613Y-67809723D02*
X101635899Y-67809723D01*
X101778756Y-67809723D02*
X101778756Y-67309723D01*
X101778756Y-67309723D02*
X101731137Y-67381152D01*
X101731137Y-67381152D02*
X101683518Y-67428771D01*
X101683518Y-67428771D02*
X101635899Y-67452580D01*
X102397803Y-67809723D02*
X102112089Y-67809723D01*
X102254946Y-67809723D02*
X102254946Y-67309723D01*
X102254946Y-67309723D02*
X102207327Y-67381152D01*
X102207327Y-67381152D02*
X102159708Y-67428771D01*
X102159708Y-67428771D02*
X102112089Y-67452580D01*
%TO.C,C4*%
X93508558Y-74729293D02*
X93484749Y-74753103D01*
X93484749Y-74753103D02*
X93413320Y-74776912D01*
X93413320Y-74776912D02*
X93365701Y-74776912D01*
X93365701Y-74776912D02*
X93294273Y-74753103D01*
X93294273Y-74753103D02*
X93246654Y-74705483D01*
X93246654Y-74705483D02*
X93222844Y-74657864D01*
X93222844Y-74657864D02*
X93199035Y-74562626D01*
X93199035Y-74562626D02*
X93199035Y-74491198D01*
X93199035Y-74491198D02*
X93222844Y-74395960D01*
X93222844Y-74395960D02*
X93246654Y-74348341D01*
X93246654Y-74348341D02*
X93294273Y-74300722D01*
X93294273Y-74300722D02*
X93365701Y-74276912D01*
X93365701Y-74276912D02*
X93413320Y-74276912D01*
X93413320Y-74276912D02*
X93484749Y-74300722D01*
X93484749Y-74300722D02*
X93508558Y-74324531D01*
X93937130Y-74443579D02*
X93937130Y-74776912D01*
X93818082Y-74253103D02*
X93699035Y-74610245D01*
X93699035Y-74610245D02*
X94008558Y-74610245D01*
D13*
%TO.C,J3*%
X82686866Y-95114019D02*
X82686866Y-95828304D01*
X82686866Y-95828304D02*
X82639247Y-95971161D01*
X82639247Y-95971161D02*
X82544009Y-96066400D01*
X82544009Y-96066400D02*
X82401152Y-96114019D01*
X82401152Y-96114019D02*
X82305914Y-96114019D01*
X83067819Y-95114019D02*
X83686866Y-95114019D01*
X83686866Y-95114019D02*
X83353533Y-95494971D01*
X83353533Y-95494971D02*
X83496390Y-95494971D01*
X83496390Y-95494971D02*
X83591628Y-95542590D01*
X83591628Y-95542590D02*
X83639247Y-95590209D01*
X83639247Y-95590209D02*
X83686866Y-95685447D01*
X83686866Y-95685447D02*
X83686866Y-95923542D01*
X83686866Y-95923542D02*
X83639247Y-96018780D01*
X83639247Y-96018780D02*
X83591628Y-96066400D01*
X83591628Y-96066400D02*
X83496390Y-96114019D01*
X83496390Y-96114019D02*
X83210676Y-96114019D01*
X83210676Y-96114019D02*
X83115438Y-96066400D01*
X83115438Y-96066400D02*
X83067819Y-96018780D01*
D11*
%TO.C,L3*%
X112747307Y-91856098D02*
X112509212Y-91856098D01*
X112509212Y-91856098D02*
X112509212Y-91356098D01*
X112866355Y-91356098D02*
X113175879Y-91356098D01*
X113175879Y-91356098D02*
X113009212Y-91546574D01*
X113009212Y-91546574D02*
X113080641Y-91546574D01*
X113080641Y-91546574D02*
X113128260Y-91570384D01*
X113128260Y-91570384D02*
X113152069Y-91594193D01*
X113152069Y-91594193D02*
X113175879Y-91641812D01*
X113175879Y-91641812D02*
X113175879Y-91760860D01*
X113175879Y-91760860D02*
X113152069Y-91808479D01*
X113152069Y-91808479D02*
X113128260Y-91832289D01*
X113128260Y-91832289D02*
X113080641Y-91856098D01*
X113080641Y-91856098D02*
X112937784Y-91856098D01*
X112937784Y-91856098D02*
X112890165Y-91832289D01*
X112890165Y-91832289D02*
X112866355Y-91808479D01*
%TO.C,L1*%
X116974907Y-91500498D02*
X116736812Y-91500498D01*
X116736812Y-91500498D02*
X116736812Y-91000498D01*
X117403479Y-91500498D02*
X117117765Y-91500498D01*
X117260622Y-91500498D02*
X117260622Y-91000498D01*
X117260622Y-91000498D02*
X117213003Y-91071927D01*
X117213003Y-91071927D02*
X117165384Y-91119546D01*
X117165384Y-91119546D02*
X117117765Y-91143355D01*
%TO.C,C17*%
X116928812Y-87388879D02*
X116905003Y-87412689D01*
X116905003Y-87412689D02*
X116833574Y-87436498D01*
X116833574Y-87436498D02*
X116785955Y-87436498D01*
X116785955Y-87436498D02*
X116714527Y-87412689D01*
X116714527Y-87412689D02*
X116666908Y-87365069D01*
X116666908Y-87365069D02*
X116643098Y-87317450D01*
X116643098Y-87317450D02*
X116619289Y-87222212D01*
X116619289Y-87222212D02*
X116619289Y-87150784D01*
X116619289Y-87150784D02*
X116643098Y-87055546D01*
X116643098Y-87055546D02*
X116666908Y-87007927D01*
X116666908Y-87007927D02*
X116714527Y-86960308D01*
X116714527Y-86960308D02*
X116785955Y-86936498D01*
X116785955Y-86936498D02*
X116833574Y-86936498D01*
X116833574Y-86936498D02*
X116905003Y-86960308D01*
X116905003Y-86960308D02*
X116928812Y-86984117D01*
X117405003Y-87436498D02*
X117119289Y-87436498D01*
X117262146Y-87436498D02*
X117262146Y-86936498D01*
X117262146Y-86936498D02*
X117214527Y-87007927D01*
X117214527Y-87007927D02*
X117166908Y-87055546D01*
X117166908Y-87055546D02*
X117119289Y-87079355D01*
X117571669Y-86936498D02*
X117905002Y-86936498D01*
X117905002Y-86936498D02*
X117690717Y-87436498D01*
%TO.C,C16*%
X112711512Y-95618479D02*
X112687703Y-95642289D01*
X112687703Y-95642289D02*
X112616274Y-95666098D01*
X112616274Y-95666098D02*
X112568655Y-95666098D01*
X112568655Y-95666098D02*
X112497227Y-95642289D01*
X112497227Y-95642289D02*
X112449608Y-95594669D01*
X112449608Y-95594669D02*
X112425798Y-95547050D01*
X112425798Y-95547050D02*
X112401989Y-95451812D01*
X112401989Y-95451812D02*
X112401989Y-95380384D01*
X112401989Y-95380384D02*
X112425798Y-95285146D01*
X112425798Y-95285146D02*
X112449608Y-95237527D01*
X112449608Y-95237527D02*
X112497227Y-95189908D01*
X112497227Y-95189908D02*
X112568655Y-95166098D01*
X112568655Y-95166098D02*
X112616274Y-95166098D01*
X112616274Y-95166098D02*
X112687703Y-95189908D01*
X112687703Y-95189908D02*
X112711512Y-95213717D01*
X113187703Y-95666098D02*
X112901989Y-95666098D01*
X113044846Y-95666098D02*
X113044846Y-95166098D01*
X113044846Y-95166098D02*
X112997227Y-95237527D01*
X112997227Y-95237527D02*
X112949608Y-95285146D01*
X112949608Y-95285146D02*
X112901989Y-95308955D01*
X113616274Y-95166098D02*
X113521036Y-95166098D01*
X113521036Y-95166098D02*
X113473417Y-95189908D01*
X113473417Y-95189908D02*
X113449607Y-95213717D01*
X113449607Y-95213717D02*
X113401988Y-95285146D01*
X113401988Y-95285146D02*
X113378179Y-95380384D01*
X113378179Y-95380384D02*
X113378179Y-95570860D01*
X113378179Y-95570860D02*
X113401988Y-95618479D01*
X113401988Y-95618479D02*
X113425798Y-95642289D01*
X113425798Y-95642289D02*
X113473417Y-95666098D01*
X113473417Y-95666098D02*
X113568655Y-95666098D01*
X113568655Y-95666098D02*
X113616274Y-95642289D01*
X113616274Y-95642289D02*
X113640083Y-95618479D01*
X113640083Y-95618479D02*
X113663893Y-95570860D01*
X113663893Y-95570860D02*
X113663893Y-95451812D01*
X113663893Y-95451812D02*
X113640083Y-95404193D01*
X113640083Y-95404193D02*
X113616274Y-95380384D01*
X113616274Y-95380384D02*
X113568655Y-95356574D01*
X113568655Y-95356574D02*
X113473417Y-95356574D01*
X113473417Y-95356574D02*
X113425798Y-95380384D01*
X113425798Y-95380384D02*
X113401988Y-95404193D01*
X113401988Y-95404193D02*
X113378179Y-95451812D01*
%TO.C,C12*%
X107123512Y-84434479D02*
X107099703Y-84458289D01*
X107099703Y-84458289D02*
X107028274Y-84482098D01*
X107028274Y-84482098D02*
X106980655Y-84482098D01*
X106980655Y-84482098D02*
X106909227Y-84458289D01*
X106909227Y-84458289D02*
X106861608Y-84410669D01*
X106861608Y-84410669D02*
X106837798Y-84363050D01*
X106837798Y-84363050D02*
X106813989Y-84267812D01*
X106813989Y-84267812D02*
X106813989Y-84196384D01*
X106813989Y-84196384D02*
X106837798Y-84101146D01*
X106837798Y-84101146D02*
X106861608Y-84053527D01*
X106861608Y-84053527D02*
X106909227Y-84005908D01*
X106909227Y-84005908D02*
X106980655Y-83982098D01*
X106980655Y-83982098D02*
X107028274Y-83982098D01*
X107028274Y-83982098D02*
X107099703Y-84005908D01*
X107099703Y-84005908D02*
X107123512Y-84029717D01*
X107599703Y-84482098D02*
X107313989Y-84482098D01*
X107456846Y-84482098D02*
X107456846Y-83982098D01*
X107456846Y-83982098D02*
X107409227Y-84053527D01*
X107409227Y-84053527D02*
X107361608Y-84101146D01*
X107361608Y-84101146D02*
X107313989Y-84124955D01*
X107790179Y-84029717D02*
X107813988Y-84005908D01*
X107813988Y-84005908D02*
X107861607Y-83982098D01*
X107861607Y-83982098D02*
X107980655Y-83982098D01*
X107980655Y-83982098D02*
X108028274Y-84005908D01*
X108028274Y-84005908D02*
X108052083Y-84029717D01*
X108052083Y-84029717D02*
X108075893Y-84077336D01*
X108075893Y-84077336D02*
X108075893Y-84124955D01*
X108075893Y-84124955D02*
X108052083Y-84196384D01*
X108052083Y-84196384D02*
X107766369Y-84482098D01*
X107766369Y-84482098D02*
X108075893Y-84482098D01*
%TO.C,U2*%
X90550147Y-94865509D02*
X90550147Y-95270271D01*
X90550147Y-95270271D02*
X90573957Y-95317890D01*
X90573957Y-95317890D02*
X90597766Y-95341700D01*
X90597766Y-95341700D02*
X90645385Y-95365509D01*
X90645385Y-95365509D02*
X90740623Y-95365509D01*
X90740623Y-95365509D02*
X90788242Y-95341700D01*
X90788242Y-95341700D02*
X90812052Y-95317890D01*
X90812052Y-95317890D02*
X90835861Y-95270271D01*
X90835861Y-95270271D02*
X90835861Y-94865509D01*
X91050148Y-94913128D02*
X91073957Y-94889319D01*
X91073957Y-94889319D02*
X91121576Y-94865509D01*
X91121576Y-94865509D02*
X91240624Y-94865509D01*
X91240624Y-94865509D02*
X91288243Y-94889319D01*
X91288243Y-94889319D02*
X91312052Y-94913128D01*
X91312052Y-94913128D02*
X91335862Y-94960747D01*
X91335862Y-94960747D02*
X91335862Y-95008366D01*
X91335862Y-95008366D02*
X91312052Y-95079795D01*
X91312052Y-95079795D02*
X91026338Y-95365509D01*
X91026338Y-95365509D02*
X91335862Y-95365509D01*
D12*
%TO.C,\u002A*%
X79705200Y-85188661D02*
X79705200Y-85212471D01*
X79681390Y-85202947D02*
X79705200Y-85212471D01*
X79705200Y-85212471D02*
X79729009Y-85202947D01*
X79690914Y-85231519D02*
X79705200Y-85212471D01*
X79705200Y-85212471D02*
X79719485Y-85231519D01*
D11*
%TO.C,R2*%
X109901607Y-84482098D02*
X109734941Y-84244003D01*
X109615893Y-84482098D02*
X109615893Y-83982098D01*
X109615893Y-83982098D02*
X109806369Y-83982098D01*
X109806369Y-83982098D02*
X109853988Y-84005908D01*
X109853988Y-84005908D02*
X109877798Y-84029717D01*
X109877798Y-84029717D02*
X109901607Y-84077336D01*
X109901607Y-84077336D02*
X109901607Y-84148765D01*
X109901607Y-84148765D02*
X109877798Y-84196384D01*
X109877798Y-84196384D02*
X109853988Y-84220193D01*
X109853988Y-84220193D02*
X109806369Y-84244003D01*
X109806369Y-84244003D02*
X109615893Y-84244003D01*
X110092084Y-84029717D02*
X110115893Y-84005908D01*
X110115893Y-84005908D02*
X110163512Y-83982098D01*
X110163512Y-83982098D02*
X110282560Y-83982098D01*
X110282560Y-83982098D02*
X110330179Y-84005908D01*
X110330179Y-84005908D02*
X110353988Y-84029717D01*
X110353988Y-84029717D02*
X110377798Y-84077336D01*
X110377798Y-84077336D02*
X110377798Y-84124955D01*
X110377798Y-84124955D02*
X110353988Y-84196384D01*
X110353988Y-84196384D02*
X110068274Y-84482098D01*
X110068274Y-84482098D02*
X110377798Y-84482098D01*
%TO.C,C4*%
X93494107Y-99352879D02*
X93470298Y-99376689D01*
X93470298Y-99376689D02*
X93398869Y-99400498D01*
X93398869Y-99400498D02*
X93351250Y-99400498D01*
X93351250Y-99400498D02*
X93279822Y-99376689D01*
X93279822Y-99376689D02*
X93232203Y-99329069D01*
X93232203Y-99329069D02*
X93208393Y-99281450D01*
X93208393Y-99281450D02*
X93184584Y-99186212D01*
X93184584Y-99186212D02*
X93184584Y-99114784D01*
X93184584Y-99114784D02*
X93208393Y-99019546D01*
X93208393Y-99019546D02*
X93232203Y-98971927D01*
X93232203Y-98971927D02*
X93279822Y-98924308D01*
X93279822Y-98924308D02*
X93351250Y-98900498D01*
X93351250Y-98900498D02*
X93398869Y-98900498D01*
X93398869Y-98900498D02*
X93470298Y-98924308D01*
X93470298Y-98924308D02*
X93494107Y-98948117D01*
X93922679Y-99067165D02*
X93922679Y-99400498D01*
X93803631Y-98876689D02*
X93684584Y-99233831D01*
X93684584Y-99233831D02*
X93994107Y-99233831D01*
%TO.C,C11*%
X101430971Y-92385690D02*
X101407162Y-92409500D01*
X101407162Y-92409500D02*
X101335733Y-92433309D01*
X101335733Y-92433309D02*
X101288114Y-92433309D01*
X101288114Y-92433309D02*
X101216686Y-92409500D01*
X101216686Y-92409500D02*
X101169067Y-92361880D01*
X101169067Y-92361880D02*
X101145257Y-92314261D01*
X101145257Y-92314261D02*
X101121448Y-92219023D01*
X101121448Y-92219023D02*
X101121448Y-92147595D01*
X101121448Y-92147595D02*
X101145257Y-92052357D01*
X101145257Y-92052357D02*
X101169067Y-92004738D01*
X101169067Y-92004738D02*
X101216686Y-91957119D01*
X101216686Y-91957119D02*
X101288114Y-91933309D01*
X101288114Y-91933309D02*
X101335733Y-91933309D01*
X101335733Y-91933309D02*
X101407162Y-91957119D01*
X101407162Y-91957119D02*
X101430971Y-91980928D01*
X101907162Y-92433309D02*
X101621448Y-92433309D01*
X101764305Y-92433309D02*
X101764305Y-91933309D01*
X101764305Y-91933309D02*
X101716686Y-92004738D01*
X101716686Y-92004738D02*
X101669067Y-92052357D01*
X101669067Y-92052357D02*
X101621448Y-92076166D01*
X102383352Y-92433309D02*
X102097638Y-92433309D01*
X102240495Y-92433309D02*
X102240495Y-91933309D01*
X102240495Y-91933309D02*
X102192876Y-92004738D01*
X102192876Y-92004738D02*
X102145257Y-92052357D01*
X102145257Y-92052357D02*
X102097638Y-92076166D01*
%TO.C,R5*%
X95522266Y-95353109D02*
X95355600Y-95115014D01*
X95236552Y-95353109D02*
X95236552Y-94853109D01*
X95236552Y-94853109D02*
X95427028Y-94853109D01*
X95427028Y-94853109D02*
X95474647Y-94876919D01*
X95474647Y-94876919D02*
X95498457Y-94900728D01*
X95498457Y-94900728D02*
X95522266Y-94948347D01*
X95522266Y-94948347D02*
X95522266Y-95019776D01*
X95522266Y-95019776D02*
X95498457Y-95067395D01*
X95498457Y-95067395D02*
X95474647Y-95091204D01*
X95474647Y-95091204D02*
X95427028Y-95115014D01*
X95427028Y-95115014D02*
X95236552Y-95115014D01*
X95974647Y-94853109D02*
X95736552Y-94853109D01*
X95736552Y-94853109D02*
X95712743Y-95091204D01*
X95712743Y-95091204D02*
X95736552Y-95067395D01*
X95736552Y-95067395D02*
X95784171Y-95043585D01*
X95784171Y-95043585D02*
X95903219Y-95043585D01*
X95903219Y-95043585D02*
X95950838Y-95067395D01*
X95950838Y-95067395D02*
X95974647Y-95091204D01*
X95974647Y-95091204D02*
X95998457Y-95138823D01*
X95998457Y-95138823D02*
X95998457Y-95257871D01*
X95998457Y-95257871D02*
X95974647Y-95305490D01*
X95974647Y-95305490D02*
X95950838Y-95329300D01*
X95950838Y-95329300D02*
X95903219Y-95353109D01*
X95903219Y-95353109D02*
X95784171Y-95353109D01*
X95784171Y-95353109D02*
X95736552Y-95329300D01*
X95736552Y-95329300D02*
X95712743Y-95305490D01*
%TO.C,C15*%
X110425512Y-93586479D02*
X110401703Y-93610289D01*
X110401703Y-93610289D02*
X110330274Y-93634098D01*
X110330274Y-93634098D02*
X110282655Y-93634098D01*
X110282655Y-93634098D02*
X110211227Y-93610289D01*
X110211227Y-93610289D02*
X110163608Y-93562669D01*
X110163608Y-93562669D02*
X110139798Y-93515050D01*
X110139798Y-93515050D02*
X110115989Y-93419812D01*
X110115989Y-93419812D02*
X110115989Y-93348384D01*
X110115989Y-93348384D02*
X110139798Y-93253146D01*
X110139798Y-93253146D02*
X110163608Y-93205527D01*
X110163608Y-93205527D02*
X110211227Y-93157908D01*
X110211227Y-93157908D02*
X110282655Y-93134098D01*
X110282655Y-93134098D02*
X110330274Y-93134098D01*
X110330274Y-93134098D02*
X110401703Y-93157908D01*
X110401703Y-93157908D02*
X110425512Y-93181717D01*
X110901703Y-93634098D02*
X110615989Y-93634098D01*
X110758846Y-93634098D02*
X110758846Y-93134098D01*
X110758846Y-93134098D02*
X110711227Y-93205527D01*
X110711227Y-93205527D02*
X110663608Y-93253146D01*
X110663608Y-93253146D02*
X110615989Y-93276955D01*
X111354083Y-93134098D02*
X111115988Y-93134098D01*
X111115988Y-93134098D02*
X111092179Y-93372193D01*
X111092179Y-93372193D02*
X111115988Y-93348384D01*
X111115988Y-93348384D02*
X111163607Y-93324574D01*
X111163607Y-93324574D02*
X111282655Y-93324574D01*
X111282655Y-93324574D02*
X111330274Y-93348384D01*
X111330274Y-93348384D02*
X111354083Y-93372193D01*
X111354083Y-93372193D02*
X111377893Y-93419812D01*
X111377893Y-93419812D02*
X111377893Y-93538860D01*
X111377893Y-93538860D02*
X111354083Y-93586479D01*
X111354083Y-93586479D02*
X111330274Y-93610289D01*
X111330274Y-93610289D02*
X111282655Y-93634098D01*
X111282655Y-93634098D02*
X111163607Y-93634098D01*
X111163607Y-93634098D02*
X111115988Y-93610289D01*
X111115988Y-93610289D02*
X111092179Y-93586479D01*
%TO.C,C19*%
X116624012Y-95516879D02*
X116600203Y-95540689D01*
X116600203Y-95540689D02*
X116528774Y-95564498D01*
X116528774Y-95564498D02*
X116481155Y-95564498D01*
X116481155Y-95564498D02*
X116409727Y-95540689D01*
X116409727Y-95540689D02*
X116362108Y-95493069D01*
X116362108Y-95493069D02*
X116338298Y-95445450D01*
X116338298Y-95445450D02*
X116314489Y-95350212D01*
X116314489Y-95350212D02*
X116314489Y-95278784D01*
X116314489Y-95278784D02*
X116338298Y-95183546D01*
X116338298Y-95183546D02*
X116362108Y-95135927D01*
X116362108Y-95135927D02*
X116409727Y-95088308D01*
X116409727Y-95088308D02*
X116481155Y-95064498D01*
X116481155Y-95064498D02*
X116528774Y-95064498D01*
X116528774Y-95064498D02*
X116600203Y-95088308D01*
X116600203Y-95088308D02*
X116624012Y-95112117D01*
X117100203Y-95564498D02*
X116814489Y-95564498D01*
X116957346Y-95564498D02*
X116957346Y-95064498D01*
X116957346Y-95064498D02*
X116909727Y-95135927D01*
X116909727Y-95135927D02*
X116862108Y-95183546D01*
X116862108Y-95183546D02*
X116814489Y-95207355D01*
X117338298Y-95564498D02*
X117433536Y-95564498D01*
X117433536Y-95564498D02*
X117481155Y-95540689D01*
X117481155Y-95540689D02*
X117504964Y-95516879D01*
X117504964Y-95516879D02*
X117552583Y-95445450D01*
X117552583Y-95445450D02*
X117576393Y-95350212D01*
X117576393Y-95350212D02*
X117576393Y-95159736D01*
X117576393Y-95159736D02*
X117552583Y-95112117D01*
X117552583Y-95112117D02*
X117528774Y-95088308D01*
X117528774Y-95088308D02*
X117481155Y-95064498D01*
X117481155Y-95064498D02*
X117385917Y-95064498D01*
X117385917Y-95064498D02*
X117338298Y-95088308D01*
X117338298Y-95088308D02*
X117314488Y-95112117D01*
X117314488Y-95112117D02*
X117290679Y-95159736D01*
X117290679Y-95159736D02*
X117290679Y-95278784D01*
X117290679Y-95278784D02*
X117314488Y-95326403D01*
X117314488Y-95326403D02*
X117338298Y-95350212D01*
X117338298Y-95350212D02*
X117385917Y-95374022D01*
X117385917Y-95374022D02*
X117481155Y-95374022D01*
X117481155Y-95374022D02*
X117528774Y-95350212D01*
X117528774Y-95350212D02*
X117552583Y-95326403D01*
X117552583Y-95326403D02*
X117576393Y-95278784D01*
%TO.C,R4*%
X97757466Y-95381609D02*
X97590800Y-95143514D01*
X97471752Y-95381609D02*
X97471752Y-94881609D01*
X97471752Y-94881609D02*
X97662228Y-94881609D01*
X97662228Y-94881609D02*
X97709847Y-94905419D01*
X97709847Y-94905419D02*
X97733657Y-94929228D01*
X97733657Y-94929228D02*
X97757466Y-94976847D01*
X97757466Y-94976847D02*
X97757466Y-95048276D01*
X97757466Y-95048276D02*
X97733657Y-95095895D01*
X97733657Y-95095895D02*
X97709847Y-95119704D01*
X97709847Y-95119704D02*
X97662228Y-95143514D01*
X97662228Y-95143514D02*
X97471752Y-95143514D01*
X98186038Y-95048276D02*
X98186038Y-95381609D01*
X98066990Y-94857800D02*
X97947943Y-95214942D01*
X97947943Y-95214942D02*
X98257466Y-95214942D01*
%TO.C,C18*%
X116928812Y-89420879D02*
X116905003Y-89444689D01*
X116905003Y-89444689D02*
X116833574Y-89468498D01*
X116833574Y-89468498D02*
X116785955Y-89468498D01*
X116785955Y-89468498D02*
X116714527Y-89444689D01*
X116714527Y-89444689D02*
X116666908Y-89397069D01*
X116666908Y-89397069D02*
X116643098Y-89349450D01*
X116643098Y-89349450D02*
X116619289Y-89254212D01*
X116619289Y-89254212D02*
X116619289Y-89182784D01*
X116619289Y-89182784D02*
X116643098Y-89087546D01*
X116643098Y-89087546D02*
X116666908Y-89039927D01*
X116666908Y-89039927D02*
X116714527Y-88992308D01*
X116714527Y-88992308D02*
X116785955Y-88968498D01*
X116785955Y-88968498D02*
X116833574Y-88968498D01*
X116833574Y-88968498D02*
X116905003Y-88992308D01*
X116905003Y-88992308D02*
X116928812Y-89016117D01*
X117405003Y-89468498D02*
X117119289Y-89468498D01*
X117262146Y-89468498D02*
X117262146Y-88968498D01*
X117262146Y-88968498D02*
X117214527Y-89039927D01*
X117214527Y-89039927D02*
X117166908Y-89087546D01*
X117166908Y-89087546D02*
X117119289Y-89111355D01*
X117690717Y-89182784D02*
X117643098Y-89158974D01*
X117643098Y-89158974D02*
X117619288Y-89135165D01*
X117619288Y-89135165D02*
X117595479Y-89087546D01*
X117595479Y-89087546D02*
X117595479Y-89063736D01*
X117595479Y-89063736D02*
X117619288Y-89016117D01*
X117619288Y-89016117D02*
X117643098Y-88992308D01*
X117643098Y-88992308D02*
X117690717Y-88968498D01*
X117690717Y-88968498D02*
X117785955Y-88968498D01*
X117785955Y-88968498D02*
X117833574Y-88992308D01*
X117833574Y-88992308D02*
X117857383Y-89016117D01*
X117857383Y-89016117D02*
X117881193Y-89063736D01*
X117881193Y-89063736D02*
X117881193Y-89087546D01*
X117881193Y-89087546D02*
X117857383Y-89135165D01*
X117857383Y-89135165D02*
X117833574Y-89158974D01*
X117833574Y-89158974D02*
X117785955Y-89182784D01*
X117785955Y-89182784D02*
X117690717Y-89182784D01*
X117690717Y-89182784D02*
X117643098Y-89206593D01*
X117643098Y-89206593D02*
X117619288Y-89230403D01*
X117619288Y-89230403D02*
X117595479Y-89278022D01*
X117595479Y-89278022D02*
X117595479Y-89373260D01*
X117595479Y-89373260D02*
X117619288Y-89420879D01*
X117619288Y-89420879D02*
X117643098Y-89444689D01*
X117643098Y-89444689D02*
X117690717Y-89468498D01*
X117690717Y-89468498D02*
X117785955Y-89468498D01*
X117785955Y-89468498D02*
X117833574Y-89444689D01*
X117833574Y-89444689D02*
X117857383Y-89420879D01*
X117857383Y-89420879D02*
X117881193Y-89373260D01*
X117881193Y-89373260D02*
X117881193Y-89278022D01*
X117881193Y-89278022D02*
X117857383Y-89230403D01*
X117857383Y-89230403D02*
X117833574Y-89206593D01*
X117833574Y-89206593D02*
X117785955Y-89182784D01*
%TO.C,D1*%
X97471752Y-99699609D02*
X97471752Y-99199609D01*
X97471752Y-99199609D02*
X97590800Y-99199609D01*
X97590800Y-99199609D02*
X97662228Y-99223419D01*
X97662228Y-99223419D02*
X97709847Y-99271038D01*
X97709847Y-99271038D02*
X97733657Y-99318657D01*
X97733657Y-99318657D02*
X97757466Y-99413895D01*
X97757466Y-99413895D02*
X97757466Y-99485323D01*
X97757466Y-99485323D02*
X97733657Y-99580561D01*
X97733657Y-99580561D02*
X97709847Y-99628180D01*
X97709847Y-99628180D02*
X97662228Y-99675800D01*
X97662228Y-99675800D02*
X97590800Y-99699609D01*
X97590800Y-99699609D02*
X97471752Y-99699609D01*
X98233657Y-99699609D02*
X97947943Y-99699609D01*
X98090800Y-99699609D02*
X98090800Y-99199609D01*
X98090800Y-99199609D02*
X98043181Y-99271038D01*
X98043181Y-99271038D02*
X97995562Y-99318657D01*
X97995562Y-99318657D02*
X97947943Y-99342466D01*
%TO.C,C14*%
X114439612Y-88252479D02*
X114415803Y-88276289D01*
X114415803Y-88276289D02*
X114344374Y-88300098D01*
X114344374Y-88300098D02*
X114296755Y-88300098D01*
X114296755Y-88300098D02*
X114225327Y-88276289D01*
X114225327Y-88276289D02*
X114177708Y-88228669D01*
X114177708Y-88228669D02*
X114153898Y-88181050D01*
X114153898Y-88181050D02*
X114130089Y-88085812D01*
X114130089Y-88085812D02*
X114130089Y-88014384D01*
X114130089Y-88014384D02*
X114153898Y-87919146D01*
X114153898Y-87919146D02*
X114177708Y-87871527D01*
X114177708Y-87871527D02*
X114225327Y-87823908D01*
X114225327Y-87823908D02*
X114296755Y-87800098D01*
X114296755Y-87800098D02*
X114344374Y-87800098D01*
X114344374Y-87800098D02*
X114415803Y-87823908D01*
X114415803Y-87823908D02*
X114439612Y-87847717D01*
X114915803Y-88300098D02*
X114630089Y-88300098D01*
X114772946Y-88300098D02*
X114772946Y-87800098D01*
X114772946Y-87800098D02*
X114725327Y-87871527D01*
X114725327Y-87871527D02*
X114677708Y-87919146D01*
X114677708Y-87919146D02*
X114630089Y-87942955D01*
X115344374Y-87966765D02*
X115344374Y-88300098D01*
X115225326Y-87776289D02*
X115106279Y-88133431D01*
X115106279Y-88133431D02*
X115415802Y-88133431D01*
D13*
%TO.C,F1*%
X86839466Y-94934809D02*
X86506133Y-94934809D01*
X86506133Y-95458619D02*
X86506133Y-94458619D01*
X86506133Y-94458619D02*
X86982323Y-94458619D01*
X87887085Y-95458619D02*
X87315657Y-95458619D01*
X87601371Y-95458619D02*
X87601371Y-94458619D01*
X87601371Y-94458619D02*
X87506133Y-94601476D01*
X87506133Y-94601476D02*
X87410895Y-94696714D01*
X87410895Y-94696714D02*
X87315657Y-94744333D01*
D11*
%TO.C,C2*%
X90340666Y-100615290D02*
X90316857Y-100639100D01*
X90316857Y-100639100D02*
X90245428Y-100662909D01*
X90245428Y-100662909D02*
X90197809Y-100662909D01*
X90197809Y-100662909D02*
X90126381Y-100639100D01*
X90126381Y-100639100D02*
X90078762Y-100591480D01*
X90078762Y-100591480D02*
X90054952Y-100543861D01*
X90054952Y-100543861D02*
X90031143Y-100448623D01*
X90031143Y-100448623D02*
X90031143Y-100377195D01*
X90031143Y-100377195D02*
X90054952Y-100281957D01*
X90054952Y-100281957D02*
X90078762Y-100234338D01*
X90078762Y-100234338D02*
X90126381Y-100186719D01*
X90126381Y-100186719D02*
X90197809Y-100162909D01*
X90197809Y-100162909D02*
X90245428Y-100162909D01*
X90245428Y-100162909D02*
X90316857Y-100186719D01*
X90316857Y-100186719D02*
X90340666Y-100210528D01*
X90531143Y-100210528D02*
X90554952Y-100186719D01*
X90554952Y-100186719D02*
X90602571Y-100162909D01*
X90602571Y-100162909D02*
X90721619Y-100162909D01*
X90721619Y-100162909D02*
X90769238Y-100186719D01*
X90769238Y-100186719D02*
X90793047Y-100210528D01*
X90793047Y-100210528D02*
X90816857Y-100258147D01*
X90816857Y-100258147D02*
X90816857Y-100305766D01*
X90816857Y-100305766D02*
X90793047Y-100377195D01*
X90793047Y-100377195D02*
X90507333Y-100662909D01*
X90507333Y-100662909D02*
X90816857Y-100662909D01*
%TO.C,C6*%
X97908966Y-88141290D02*
X97885157Y-88165100D01*
X97885157Y-88165100D02*
X97813728Y-88188909D01*
X97813728Y-88188909D02*
X97766109Y-88188909D01*
X97766109Y-88188909D02*
X97694681Y-88165100D01*
X97694681Y-88165100D02*
X97647062Y-88117480D01*
X97647062Y-88117480D02*
X97623252Y-88069861D01*
X97623252Y-88069861D02*
X97599443Y-87974623D01*
X97599443Y-87974623D02*
X97599443Y-87903195D01*
X97599443Y-87903195D02*
X97623252Y-87807957D01*
X97623252Y-87807957D02*
X97647062Y-87760338D01*
X97647062Y-87760338D02*
X97694681Y-87712719D01*
X97694681Y-87712719D02*
X97766109Y-87688909D01*
X97766109Y-87688909D02*
X97813728Y-87688909D01*
X97813728Y-87688909D02*
X97885157Y-87712719D01*
X97885157Y-87712719D02*
X97908966Y-87736528D01*
X98337538Y-87688909D02*
X98242300Y-87688909D01*
X98242300Y-87688909D02*
X98194681Y-87712719D01*
X98194681Y-87712719D02*
X98170871Y-87736528D01*
X98170871Y-87736528D02*
X98123252Y-87807957D01*
X98123252Y-87807957D02*
X98099443Y-87903195D01*
X98099443Y-87903195D02*
X98099443Y-88093671D01*
X98099443Y-88093671D02*
X98123252Y-88141290D01*
X98123252Y-88141290D02*
X98147062Y-88165100D01*
X98147062Y-88165100D02*
X98194681Y-88188909D01*
X98194681Y-88188909D02*
X98289919Y-88188909D01*
X98289919Y-88188909D02*
X98337538Y-88165100D01*
X98337538Y-88165100D02*
X98361347Y-88141290D01*
X98361347Y-88141290D02*
X98385157Y-88093671D01*
X98385157Y-88093671D02*
X98385157Y-87974623D01*
X98385157Y-87974623D02*
X98361347Y-87927004D01*
X98361347Y-87927004D02*
X98337538Y-87903195D01*
X98337538Y-87903195D02*
X98289919Y-87879385D01*
X98289919Y-87879385D02*
X98194681Y-87879385D01*
X98194681Y-87879385D02*
X98147062Y-87903195D01*
X98147062Y-87903195D02*
X98123252Y-87927004D01*
X98123252Y-87927004D02*
X98099443Y-87974623D01*
%TO.C,C1*%
X92423466Y-100635690D02*
X92399657Y-100659500D01*
X92399657Y-100659500D02*
X92328228Y-100683309D01*
X92328228Y-100683309D02*
X92280609Y-100683309D01*
X92280609Y-100683309D02*
X92209181Y-100659500D01*
X92209181Y-100659500D02*
X92161562Y-100611880D01*
X92161562Y-100611880D02*
X92137752Y-100564261D01*
X92137752Y-100564261D02*
X92113943Y-100469023D01*
X92113943Y-100469023D02*
X92113943Y-100397595D01*
X92113943Y-100397595D02*
X92137752Y-100302357D01*
X92137752Y-100302357D02*
X92161562Y-100254738D01*
X92161562Y-100254738D02*
X92209181Y-100207119D01*
X92209181Y-100207119D02*
X92280609Y-100183309D01*
X92280609Y-100183309D02*
X92328228Y-100183309D01*
X92328228Y-100183309D02*
X92399657Y-100207119D01*
X92399657Y-100207119D02*
X92423466Y-100230928D01*
X92899657Y-100683309D02*
X92613943Y-100683309D01*
X92756800Y-100683309D02*
X92756800Y-100183309D01*
X92756800Y-100183309D02*
X92709181Y-100254738D01*
X92709181Y-100254738D02*
X92661562Y-100302357D01*
X92661562Y-100302357D02*
X92613943Y-100326166D01*
%TO.C,C3*%
X97808266Y-83082890D02*
X97784457Y-83106700D01*
X97784457Y-83106700D02*
X97713028Y-83130509D01*
X97713028Y-83130509D02*
X97665409Y-83130509D01*
X97665409Y-83130509D02*
X97593981Y-83106700D01*
X97593981Y-83106700D02*
X97546362Y-83059080D01*
X97546362Y-83059080D02*
X97522552Y-83011461D01*
X97522552Y-83011461D02*
X97498743Y-82916223D01*
X97498743Y-82916223D02*
X97498743Y-82844795D01*
X97498743Y-82844795D02*
X97522552Y-82749557D01*
X97522552Y-82749557D02*
X97546362Y-82701938D01*
X97546362Y-82701938D02*
X97593981Y-82654319D01*
X97593981Y-82654319D02*
X97665409Y-82630509D01*
X97665409Y-82630509D02*
X97713028Y-82630509D01*
X97713028Y-82630509D02*
X97784457Y-82654319D01*
X97784457Y-82654319D02*
X97808266Y-82678128D01*
X97974933Y-82630509D02*
X98284457Y-82630509D01*
X98284457Y-82630509D02*
X98117790Y-82820985D01*
X98117790Y-82820985D02*
X98189219Y-82820985D01*
X98189219Y-82820985D02*
X98236838Y-82844795D01*
X98236838Y-82844795D02*
X98260647Y-82868604D01*
X98260647Y-82868604D02*
X98284457Y-82916223D01*
X98284457Y-82916223D02*
X98284457Y-83035271D01*
X98284457Y-83035271D02*
X98260647Y-83082890D01*
X98260647Y-83082890D02*
X98236838Y-83106700D01*
X98236838Y-83106700D02*
X98189219Y-83130509D01*
X98189219Y-83130509D02*
X98046362Y-83130509D01*
X98046362Y-83130509D02*
X97998743Y-83106700D01*
X97998743Y-83106700D02*
X97974933Y-83082890D01*
%TO.C,C7*%
X94570066Y-82066890D02*
X94546257Y-82090700D01*
X94546257Y-82090700D02*
X94474828Y-82114509D01*
X94474828Y-82114509D02*
X94427209Y-82114509D01*
X94427209Y-82114509D02*
X94355781Y-82090700D01*
X94355781Y-82090700D02*
X94308162Y-82043080D01*
X94308162Y-82043080D02*
X94284352Y-81995461D01*
X94284352Y-81995461D02*
X94260543Y-81900223D01*
X94260543Y-81900223D02*
X94260543Y-81828795D01*
X94260543Y-81828795D02*
X94284352Y-81733557D01*
X94284352Y-81733557D02*
X94308162Y-81685938D01*
X94308162Y-81685938D02*
X94355781Y-81638319D01*
X94355781Y-81638319D02*
X94427209Y-81614509D01*
X94427209Y-81614509D02*
X94474828Y-81614509D01*
X94474828Y-81614509D02*
X94546257Y-81638319D01*
X94546257Y-81638319D02*
X94570066Y-81662128D01*
X94736733Y-81614509D02*
X95070066Y-81614509D01*
X95070066Y-81614509D02*
X94855781Y-82114509D01*
%TO.C,D2*%
X95236552Y-99671109D02*
X95236552Y-99171109D01*
X95236552Y-99171109D02*
X95355600Y-99171109D01*
X95355600Y-99171109D02*
X95427028Y-99194919D01*
X95427028Y-99194919D02*
X95474647Y-99242538D01*
X95474647Y-99242538D02*
X95498457Y-99290157D01*
X95498457Y-99290157D02*
X95522266Y-99385395D01*
X95522266Y-99385395D02*
X95522266Y-99456823D01*
X95522266Y-99456823D02*
X95498457Y-99552061D01*
X95498457Y-99552061D02*
X95474647Y-99599680D01*
X95474647Y-99599680D02*
X95427028Y-99647300D01*
X95427028Y-99647300D02*
X95355600Y-99671109D01*
X95355600Y-99671109D02*
X95236552Y-99671109D01*
X95712743Y-99218728D02*
X95736552Y-99194919D01*
X95736552Y-99194919D02*
X95784171Y-99171109D01*
X95784171Y-99171109D02*
X95903219Y-99171109D01*
X95903219Y-99171109D02*
X95950838Y-99194919D01*
X95950838Y-99194919D02*
X95974647Y-99218728D01*
X95974647Y-99218728D02*
X95998457Y-99266347D01*
X95998457Y-99266347D02*
X95998457Y-99313966D01*
X95998457Y-99313966D02*
X95974647Y-99385395D01*
X95974647Y-99385395D02*
X95688933Y-99671109D01*
X95688933Y-99671109D02*
X95998457Y-99671109D01*
%TO.C,L2*%
X116963707Y-93481698D02*
X116725612Y-93481698D01*
X116725612Y-93481698D02*
X116725612Y-92981698D01*
X117106565Y-93029317D02*
X117130374Y-93005508D01*
X117130374Y-93005508D02*
X117177993Y-92981698D01*
X117177993Y-92981698D02*
X117297041Y-92981698D01*
X117297041Y-92981698D02*
X117344660Y-93005508D01*
X117344660Y-93005508D02*
X117368469Y-93029317D01*
X117368469Y-93029317D02*
X117392279Y-93076936D01*
X117392279Y-93076936D02*
X117392279Y-93124555D01*
X117392279Y-93124555D02*
X117368469Y-93195984D01*
X117368469Y-93195984D02*
X117082755Y-93481698D01*
X117082755Y-93481698D02*
X117392279Y-93481698D01*
%TO.C,C9*%
X105329607Y-84434479D02*
X105305798Y-84458289D01*
X105305798Y-84458289D02*
X105234369Y-84482098D01*
X105234369Y-84482098D02*
X105186750Y-84482098D01*
X105186750Y-84482098D02*
X105115322Y-84458289D01*
X105115322Y-84458289D02*
X105067703Y-84410669D01*
X105067703Y-84410669D02*
X105043893Y-84363050D01*
X105043893Y-84363050D02*
X105020084Y-84267812D01*
X105020084Y-84267812D02*
X105020084Y-84196384D01*
X105020084Y-84196384D02*
X105043893Y-84101146D01*
X105043893Y-84101146D02*
X105067703Y-84053527D01*
X105067703Y-84053527D02*
X105115322Y-84005908D01*
X105115322Y-84005908D02*
X105186750Y-83982098D01*
X105186750Y-83982098D02*
X105234369Y-83982098D01*
X105234369Y-83982098D02*
X105305798Y-84005908D01*
X105305798Y-84005908D02*
X105329607Y-84029717D01*
X105567703Y-84482098D02*
X105662941Y-84482098D01*
X105662941Y-84482098D02*
X105710560Y-84458289D01*
X105710560Y-84458289D02*
X105734369Y-84434479D01*
X105734369Y-84434479D02*
X105781988Y-84363050D01*
X105781988Y-84363050D02*
X105805798Y-84267812D01*
X105805798Y-84267812D02*
X105805798Y-84077336D01*
X105805798Y-84077336D02*
X105781988Y-84029717D01*
X105781988Y-84029717D02*
X105758179Y-84005908D01*
X105758179Y-84005908D02*
X105710560Y-83982098D01*
X105710560Y-83982098D02*
X105615322Y-83982098D01*
X105615322Y-83982098D02*
X105567703Y-84005908D01*
X105567703Y-84005908D02*
X105543893Y-84029717D01*
X105543893Y-84029717D02*
X105520084Y-84077336D01*
X105520084Y-84077336D02*
X105520084Y-84196384D01*
X105520084Y-84196384D02*
X105543893Y-84244003D01*
X105543893Y-84244003D02*
X105567703Y-84267812D01*
X105567703Y-84267812D02*
X105615322Y-84291622D01*
X105615322Y-84291622D02*
X105710560Y-84291622D01*
X105710560Y-84291622D02*
X105758179Y-84267812D01*
X105758179Y-84267812D02*
X105781988Y-84244003D01*
X105781988Y-84244003D02*
X105805798Y-84196384D01*
%TO.C,R1*%
X89019866Y-99469709D02*
X88853200Y-99231614D01*
X88734152Y-99469709D02*
X88734152Y-98969709D01*
X88734152Y-98969709D02*
X88924628Y-98969709D01*
X88924628Y-98969709D02*
X88972247Y-98993519D01*
X88972247Y-98993519D02*
X88996057Y-99017328D01*
X88996057Y-99017328D02*
X89019866Y-99064947D01*
X89019866Y-99064947D02*
X89019866Y-99136376D01*
X89019866Y-99136376D02*
X88996057Y-99183995D01*
X88996057Y-99183995D02*
X88972247Y-99207804D01*
X88972247Y-99207804D02*
X88924628Y-99231614D01*
X88924628Y-99231614D02*
X88734152Y-99231614D01*
X89496057Y-99469709D02*
X89210343Y-99469709D01*
X89353200Y-99469709D02*
X89353200Y-98969709D01*
X89353200Y-98969709D02*
X89305581Y-99041138D01*
X89305581Y-99041138D02*
X89257962Y-99088757D01*
X89257962Y-99088757D02*
X89210343Y-99112566D01*
%TO.C,U4*%
X102950088Y-87952498D02*
X102950088Y-88357260D01*
X102950088Y-88357260D02*
X102973898Y-88404879D01*
X102973898Y-88404879D02*
X102997707Y-88428689D01*
X102997707Y-88428689D02*
X103045326Y-88452498D01*
X103045326Y-88452498D02*
X103140564Y-88452498D01*
X103140564Y-88452498D02*
X103188183Y-88428689D01*
X103188183Y-88428689D02*
X103211993Y-88404879D01*
X103211993Y-88404879D02*
X103235802Y-88357260D01*
X103235802Y-88357260D02*
X103235802Y-87952498D01*
X103688184Y-88119165D02*
X103688184Y-88452498D01*
X103569136Y-87928689D02*
X103450089Y-88285831D01*
X103450089Y-88285831D02*
X103759612Y-88285831D01*
%TO.C,Y1*%
X104074846Y-96776003D02*
X104074846Y-97014098D01*
X103908180Y-96514098D02*
X104074846Y-96776003D01*
X104074846Y-96776003D02*
X104241513Y-96514098D01*
X104670084Y-97014098D02*
X104384370Y-97014098D01*
X104527227Y-97014098D02*
X104527227Y-96514098D01*
X104527227Y-96514098D02*
X104479608Y-96585527D01*
X104479608Y-96585527D02*
X104431989Y-96633146D01*
X104431989Y-96633146D02*
X104384370Y-96656955D01*
%TO.C,C21*%
X107631512Y-97220479D02*
X107607703Y-97244289D01*
X107607703Y-97244289D02*
X107536274Y-97268098D01*
X107536274Y-97268098D02*
X107488655Y-97268098D01*
X107488655Y-97268098D02*
X107417227Y-97244289D01*
X107417227Y-97244289D02*
X107369608Y-97196669D01*
X107369608Y-97196669D02*
X107345798Y-97149050D01*
X107345798Y-97149050D02*
X107321989Y-97053812D01*
X107321989Y-97053812D02*
X107321989Y-96982384D01*
X107321989Y-96982384D02*
X107345798Y-96887146D01*
X107345798Y-96887146D02*
X107369608Y-96839527D01*
X107369608Y-96839527D02*
X107417227Y-96791908D01*
X107417227Y-96791908D02*
X107488655Y-96768098D01*
X107488655Y-96768098D02*
X107536274Y-96768098D01*
X107536274Y-96768098D02*
X107607703Y-96791908D01*
X107607703Y-96791908D02*
X107631512Y-96815717D01*
X107821989Y-96815717D02*
X107845798Y-96791908D01*
X107845798Y-96791908D02*
X107893417Y-96768098D01*
X107893417Y-96768098D02*
X108012465Y-96768098D01*
X108012465Y-96768098D02*
X108060084Y-96791908D01*
X108060084Y-96791908D02*
X108083893Y-96815717D01*
X108083893Y-96815717D02*
X108107703Y-96863336D01*
X108107703Y-96863336D02*
X108107703Y-96910955D01*
X108107703Y-96910955D02*
X108083893Y-96982384D01*
X108083893Y-96982384D02*
X107798179Y-97268098D01*
X107798179Y-97268098D02*
X108107703Y-97268098D01*
X108583893Y-97268098D02*
X108298179Y-97268098D01*
X108441036Y-97268098D02*
X108441036Y-96768098D01*
X108441036Y-96768098D02*
X108393417Y-96839527D01*
X108393417Y-96839527D02*
X108345798Y-96887146D01*
X108345798Y-96887146D02*
X108298179Y-96910955D01*
%TO.C,C8*%
X111832907Y-100444479D02*
X111809098Y-100468289D01*
X111809098Y-100468289D02*
X111737669Y-100492098D01*
X111737669Y-100492098D02*
X111690050Y-100492098D01*
X111690050Y-100492098D02*
X111618622Y-100468289D01*
X111618622Y-100468289D02*
X111571003Y-100420669D01*
X111571003Y-100420669D02*
X111547193Y-100373050D01*
X111547193Y-100373050D02*
X111523384Y-100277812D01*
X111523384Y-100277812D02*
X111523384Y-100206384D01*
X111523384Y-100206384D02*
X111547193Y-100111146D01*
X111547193Y-100111146D02*
X111571003Y-100063527D01*
X111571003Y-100063527D02*
X111618622Y-100015908D01*
X111618622Y-100015908D02*
X111690050Y-99992098D01*
X111690050Y-99992098D02*
X111737669Y-99992098D01*
X111737669Y-99992098D02*
X111809098Y-100015908D01*
X111809098Y-100015908D02*
X111832907Y-100039717D01*
X112118622Y-100206384D02*
X112071003Y-100182574D01*
X112071003Y-100182574D02*
X112047193Y-100158765D01*
X112047193Y-100158765D02*
X112023384Y-100111146D01*
X112023384Y-100111146D02*
X112023384Y-100087336D01*
X112023384Y-100087336D02*
X112047193Y-100039717D01*
X112047193Y-100039717D02*
X112071003Y-100015908D01*
X112071003Y-100015908D02*
X112118622Y-99992098D01*
X112118622Y-99992098D02*
X112213860Y-99992098D01*
X112213860Y-99992098D02*
X112261479Y-100015908D01*
X112261479Y-100015908D02*
X112285288Y-100039717D01*
X112285288Y-100039717D02*
X112309098Y-100087336D01*
X112309098Y-100087336D02*
X112309098Y-100111146D01*
X112309098Y-100111146D02*
X112285288Y-100158765D01*
X112285288Y-100158765D02*
X112261479Y-100182574D01*
X112261479Y-100182574D02*
X112213860Y-100206384D01*
X112213860Y-100206384D02*
X112118622Y-100206384D01*
X112118622Y-100206384D02*
X112071003Y-100230193D01*
X112071003Y-100230193D02*
X112047193Y-100254003D01*
X112047193Y-100254003D02*
X112023384Y-100301622D01*
X112023384Y-100301622D02*
X112023384Y-100396860D01*
X112023384Y-100396860D02*
X112047193Y-100444479D01*
X112047193Y-100444479D02*
X112071003Y-100468289D01*
X112071003Y-100468289D02*
X112118622Y-100492098D01*
X112118622Y-100492098D02*
X112213860Y-100492098D01*
X112213860Y-100492098D02*
X112261479Y-100468289D01*
X112261479Y-100468289D02*
X112285288Y-100444479D01*
X112285288Y-100444479D02*
X112309098Y-100396860D01*
X112309098Y-100396860D02*
X112309098Y-100301622D01*
X112309098Y-100301622D02*
X112285288Y-100254003D01*
X112285288Y-100254003D02*
X112261479Y-100230193D01*
X112261479Y-100230193D02*
X112213860Y-100206384D01*
%TO.C,C5*%
X91356666Y-99358290D02*
X91332857Y-99382100D01*
X91332857Y-99382100D02*
X91261428Y-99405909D01*
X91261428Y-99405909D02*
X91213809Y-99405909D01*
X91213809Y-99405909D02*
X91142381Y-99382100D01*
X91142381Y-99382100D02*
X91094762Y-99334480D01*
X91094762Y-99334480D02*
X91070952Y-99286861D01*
X91070952Y-99286861D02*
X91047143Y-99191623D01*
X91047143Y-99191623D02*
X91047143Y-99120195D01*
X91047143Y-99120195D02*
X91070952Y-99024957D01*
X91070952Y-99024957D02*
X91094762Y-98977338D01*
X91094762Y-98977338D02*
X91142381Y-98929719D01*
X91142381Y-98929719D02*
X91213809Y-98905909D01*
X91213809Y-98905909D02*
X91261428Y-98905909D01*
X91261428Y-98905909D02*
X91332857Y-98929719D01*
X91332857Y-98929719D02*
X91356666Y-98953528D01*
X91809047Y-98905909D02*
X91570952Y-98905909D01*
X91570952Y-98905909D02*
X91547143Y-99144004D01*
X91547143Y-99144004D02*
X91570952Y-99120195D01*
X91570952Y-99120195D02*
X91618571Y-99096385D01*
X91618571Y-99096385D02*
X91737619Y-99096385D01*
X91737619Y-99096385D02*
X91785238Y-99120195D01*
X91785238Y-99120195D02*
X91809047Y-99144004D01*
X91809047Y-99144004D02*
X91832857Y-99191623D01*
X91832857Y-99191623D02*
X91832857Y-99310671D01*
X91832857Y-99310671D02*
X91809047Y-99358290D01*
X91809047Y-99358290D02*
X91785238Y-99382100D01*
X91785238Y-99382100D02*
X91737619Y-99405909D01*
X91737619Y-99405909D02*
X91618571Y-99405909D01*
X91618571Y-99405909D02*
X91570952Y-99382100D01*
X91570952Y-99382100D02*
X91547143Y-99358290D01*
%TO.C,C13*%
X101892012Y-83434479D02*
X101868203Y-83458289D01*
X101868203Y-83458289D02*
X101796774Y-83482098D01*
X101796774Y-83482098D02*
X101749155Y-83482098D01*
X101749155Y-83482098D02*
X101677727Y-83458289D01*
X101677727Y-83458289D02*
X101630108Y-83410669D01*
X101630108Y-83410669D02*
X101606298Y-83363050D01*
X101606298Y-83363050D02*
X101582489Y-83267812D01*
X101582489Y-83267812D02*
X101582489Y-83196384D01*
X101582489Y-83196384D02*
X101606298Y-83101146D01*
X101606298Y-83101146D02*
X101630108Y-83053527D01*
X101630108Y-83053527D02*
X101677727Y-83005908D01*
X101677727Y-83005908D02*
X101749155Y-82982098D01*
X101749155Y-82982098D02*
X101796774Y-82982098D01*
X101796774Y-82982098D02*
X101868203Y-83005908D01*
X101868203Y-83005908D02*
X101892012Y-83029717D01*
X102368203Y-83482098D02*
X102082489Y-83482098D01*
X102225346Y-83482098D02*
X102225346Y-82982098D01*
X102225346Y-82982098D02*
X102177727Y-83053527D01*
X102177727Y-83053527D02*
X102130108Y-83101146D01*
X102130108Y-83101146D02*
X102082489Y-83124955D01*
X102534869Y-82982098D02*
X102844393Y-82982098D01*
X102844393Y-82982098D02*
X102677726Y-83172574D01*
X102677726Y-83172574D02*
X102749155Y-83172574D01*
X102749155Y-83172574D02*
X102796774Y-83196384D01*
X102796774Y-83196384D02*
X102820583Y-83220193D01*
X102820583Y-83220193D02*
X102844393Y-83267812D01*
X102844393Y-83267812D02*
X102844393Y-83386860D01*
X102844393Y-83386860D02*
X102820583Y-83434479D01*
X102820583Y-83434479D02*
X102796774Y-83458289D01*
X102796774Y-83458289D02*
X102749155Y-83482098D01*
X102749155Y-83482098D02*
X102606298Y-83482098D01*
X102606298Y-83482098D02*
X102558679Y-83458289D01*
X102558679Y-83458289D02*
X102534869Y-83434479D01*
%TO.C,C20*%
X100520412Y-96990079D02*
X100496603Y-97013889D01*
X100496603Y-97013889D02*
X100425174Y-97037698D01*
X100425174Y-97037698D02*
X100377555Y-97037698D01*
X100377555Y-97037698D02*
X100306127Y-97013889D01*
X100306127Y-97013889D02*
X100258508Y-96966269D01*
X100258508Y-96966269D02*
X100234698Y-96918650D01*
X100234698Y-96918650D02*
X100210889Y-96823412D01*
X100210889Y-96823412D02*
X100210889Y-96751984D01*
X100210889Y-96751984D02*
X100234698Y-96656746D01*
X100234698Y-96656746D02*
X100258508Y-96609127D01*
X100258508Y-96609127D02*
X100306127Y-96561508D01*
X100306127Y-96561508D02*
X100377555Y-96537698D01*
X100377555Y-96537698D02*
X100425174Y-96537698D01*
X100425174Y-96537698D02*
X100496603Y-96561508D01*
X100496603Y-96561508D02*
X100520412Y-96585317D01*
X100710889Y-96585317D02*
X100734698Y-96561508D01*
X100734698Y-96561508D02*
X100782317Y-96537698D01*
X100782317Y-96537698D02*
X100901365Y-96537698D01*
X100901365Y-96537698D02*
X100948984Y-96561508D01*
X100948984Y-96561508D02*
X100972793Y-96585317D01*
X100972793Y-96585317D02*
X100996603Y-96632936D01*
X100996603Y-96632936D02*
X100996603Y-96680555D01*
X100996603Y-96680555D02*
X100972793Y-96751984D01*
X100972793Y-96751984D02*
X100687079Y-97037698D01*
X100687079Y-97037698D02*
X100996603Y-97037698D01*
X101306126Y-96537698D02*
X101353745Y-96537698D01*
X101353745Y-96537698D02*
X101401364Y-96561508D01*
X101401364Y-96561508D02*
X101425174Y-96585317D01*
X101425174Y-96585317D02*
X101448983Y-96632936D01*
X101448983Y-96632936D02*
X101472793Y-96728174D01*
X101472793Y-96728174D02*
X101472793Y-96847222D01*
X101472793Y-96847222D02*
X101448983Y-96942460D01*
X101448983Y-96942460D02*
X101425174Y-96990079D01*
X101425174Y-96990079D02*
X101401364Y-97013889D01*
X101401364Y-97013889D02*
X101353745Y-97037698D01*
X101353745Y-97037698D02*
X101306126Y-97037698D01*
X101306126Y-97037698D02*
X101258507Y-97013889D01*
X101258507Y-97013889D02*
X101234698Y-96990079D01*
X101234698Y-96990079D02*
X101210888Y-96942460D01*
X101210888Y-96942460D02*
X101187079Y-96847222D01*
X101187079Y-96847222D02*
X101187079Y-96728174D01*
X101187079Y-96728174D02*
X101210888Y-96632936D01*
X101210888Y-96632936D02*
X101234698Y-96585317D01*
X101234698Y-96585317D02*
X101258507Y-96561508D01*
X101258507Y-96561508D02*
X101306126Y-96537698D01*
%TO.C,C10*%
X109613612Y-100393679D02*
X109589803Y-100417489D01*
X109589803Y-100417489D02*
X109518374Y-100441298D01*
X109518374Y-100441298D02*
X109470755Y-100441298D01*
X109470755Y-100441298D02*
X109399327Y-100417489D01*
X109399327Y-100417489D02*
X109351708Y-100369869D01*
X109351708Y-100369869D02*
X109327898Y-100322250D01*
X109327898Y-100322250D02*
X109304089Y-100227012D01*
X109304089Y-100227012D02*
X109304089Y-100155584D01*
X109304089Y-100155584D02*
X109327898Y-100060346D01*
X109327898Y-100060346D02*
X109351708Y-100012727D01*
X109351708Y-100012727D02*
X109399327Y-99965108D01*
X109399327Y-99965108D02*
X109470755Y-99941298D01*
X109470755Y-99941298D02*
X109518374Y-99941298D01*
X109518374Y-99941298D02*
X109589803Y-99965108D01*
X109589803Y-99965108D02*
X109613612Y-99988917D01*
X110089803Y-100441298D02*
X109804089Y-100441298D01*
X109946946Y-100441298D02*
X109946946Y-99941298D01*
X109946946Y-99941298D02*
X109899327Y-100012727D01*
X109899327Y-100012727D02*
X109851708Y-100060346D01*
X109851708Y-100060346D02*
X109804089Y-100084155D01*
X110399326Y-99941298D02*
X110446945Y-99941298D01*
X110446945Y-99941298D02*
X110494564Y-99965108D01*
X110494564Y-99965108D02*
X110518374Y-99988917D01*
X110518374Y-99988917D02*
X110542183Y-100036536D01*
X110542183Y-100036536D02*
X110565993Y-100131774D01*
X110565993Y-100131774D02*
X110565993Y-100250822D01*
X110565993Y-100250822D02*
X110542183Y-100346060D01*
X110542183Y-100346060D02*
X110518374Y-100393679D01*
X110518374Y-100393679D02*
X110494564Y-100417489D01*
X110494564Y-100417489D02*
X110446945Y-100441298D01*
X110446945Y-100441298D02*
X110399326Y-100441298D01*
X110399326Y-100441298D02*
X110351707Y-100417489D01*
X110351707Y-100417489D02*
X110327898Y-100393679D01*
X110327898Y-100393679D02*
X110304088Y-100346060D01*
X110304088Y-100346060D02*
X110280279Y-100250822D01*
X110280279Y-100250822D02*
X110280279Y-100131774D01*
X110280279Y-100131774D02*
X110304088Y-100036536D01*
X110304088Y-100036536D02*
X110327898Y-99988917D01*
X110327898Y-99988917D02*
X110351707Y-99965108D01*
X110351707Y-99965108D02*
X110399326Y-99941298D01*
%TO.C,R3*%
X104313607Y-101254098D02*
X104146941Y-101016003D01*
X104027893Y-101254098D02*
X104027893Y-100754098D01*
X104027893Y-100754098D02*
X104218369Y-100754098D01*
X104218369Y-100754098D02*
X104265988Y-100777908D01*
X104265988Y-100777908D02*
X104289798Y-100801717D01*
X104289798Y-100801717D02*
X104313607Y-100849336D01*
X104313607Y-100849336D02*
X104313607Y-100920765D01*
X104313607Y-100920765D02*
X104289798Y-100968384D01*
X104289798Y-100968384D02*
X104265988Y-100992193D01*
X104265988Y-100992193D02*
X104218369Y-101016003D01*
X104218369Y-101016003D02*
X104027893Y-101016003D01*
X104480274Y-100754098D02*
X104789798Y-100754098D01*
X104789798Y-100754098D02*
X104623131Y-100944574D01*
X104623131Y-100944574D02*
X104694560Y-100944574D01*
X104694560Y-100944574D02*
X104742179Y-100968384D01*
X104742179Y-100968384D02*
X104765988Y-100992193D01*
X104765988Y-100992193D02*
X104789798Y-101039812D01*
X104789798Y-101039812D02*
X104789798Y-101158860D01*
X104789798Y-101158860D02*
X104765988Y-101206479D01*
X104765988Y-101206479D02*
X104742179Y-101230289D01*
X104742179Y-101230289D02*
X104694560Y-101254098D01*
X104694560Y-101254098D02*
X104551703Y-101254098D01*
X104551703Y-101254098D02*
X104504084Y-101230289D01*
X104504084Y-101230289D02*
X104480274Y-101206479D01*
D14*
%TO.C,J1*%
X93281251Y-56898014D02*
X93281251Y-58028014D01*
X92521251Y-56898014D02*
X93281251Y-56898014D01*
X91761251Y-56898014D02*
X86746251Y-56898014D01*
X91761251Y-56898014D02*
X91761251Y-57464543D01*
X86746251Y-56898014D02*
X86746251Y-57720484D01*
X86746251Y-58335544D02*
X86746251Y-58990484D01*
X91761251Y-58591485D02*
X91761251Y-58734543D01*
X93216251Y-58788014D02*
X93216251Y-58990484D01*
X93084722Y-58788014D02*
X93216251Y-58788014D01*
X91814722Y-58788014D02*
X91957780Y-58788014D01*
X93216251Y-59605544D02*
X93216251Y-60428014D01*
X86746251Y-59605544D02*
X86746251Y-60428014D01*
X93216251Y-60428014D02*
X86746251Y-60428014D01*
%TO.C,C1*%
X91786251Y-78187666D02*
X91786251Y-77665162D01*
X93256251Y-78187666D02*
X93256251Y-77665162D01*
%TO.C,D2*%
X94660051Y-78508214D02*
X96580051Y-78508214D01*
X96580051Y-78508214D02*
X96580051Y-75823214D01*
X94660051Y-75823214D02*
X94660051Y-78508214D01*
%TO.C,C9*%
X104917392Y-61799783D02*
X104917392Y-61518623D01*
X105937392Y-61799783D02*
X105937392Y-61518623D01*
%TO.C,D1*%
X96895251Y-78536714D02*
X98815251Y-78536714D01*
X98815251Y-78536714D02*
X98815251Y-75851714D01*
X96895251Y-75851714D02*
X96895251Y-78536714D01*
%TO.C,C17*%
X117124112Y-63087603D02*
X117405272Y-63087603D01*
X117124112Y-64107603D02*
X117405272Y-64107603D01*
%TO.C,L3*%
X113553392Y-67138482D02*
X113553392Y-66812924D01*
X114573392Y-67138482D02*
X114573392Y-66812924D01*
%TO.C,C18*%
X117124112Y-65119603D02*
X117405272Y-65119603D01*
X117124112Y-66139603D02*
X117405272Y-66139603D01*
%TO.C,C15*%
X112033392Y-66847623D02*
X112033392Y-67128783D01*
X111013392Y-66847623D02*
X111013392Y-67128783D01*
%TO.C,C19*%
X117124112Y-71215603D02*
X117405272Y-71215603D01*
X117124112Y-72235603D02*
X117405272Y-72235603D01*
%TO.C,R4*%
X98590251Y-72482150D02*
X98590251Y-72936278D01*
X97120251Y-72482150D02*
X97120251Y-72936278D01*
%TO.C,U1*%
X79277251Y-73464814D02*
X85287251Y-73464814D01*
X81527251Y-80284814D02*
X85287251Y-80284814D01*
X85287251Y-73464814D02*
X85287251Y-74724814D01*
X85287251Y-80284814D02*
X85287251Y-79024814D01*
%TO.C,C16*%
X113187972Y-70038203D02*
X112906812Y-70038203D01*
X113187972Y-69018203D02*
X112906812Y-69018203D01*
%TO.C,\u002A*%
G36*
X80544234Y-61003065D02*
G01*
X80560247Y-61009204D01*
X80583971Y-61019346D01*
X80613694Y-61032711D01*
X80647701Y-61048514D01*
X80684279Y-61065972D01*
X80721714Y-61084304D01*
X80754500Y-61100788D01*
X80860262Y-61158351D01*
X80955752Y-61217862D01*
X81040707Y-61279049D01*
X81114863Y-61341638D01*
X81177959Y-61405357D01*
X81229732Y-61469932D01*
X81269920Y-61535092D01*
X81298259Y-61600562D01*
X81314487Y-61666071D01*
X81316903Y-61685161D01*
X81316379Y-61742101D01*
X81303968Y-61799155D01*
X81280192Y-61855386D01*
X81245574Y-61909859D01*
X81200636Y-61961637D01*
X81145900Y-62009785D01*
X81128424Y-62022823D01*
X81110540Y-62035630D01*
X81095826Y-62045237D01*
X81082205Y-62051921D01*
X81067600Y-62055962D01*
X81049935Y-62057639D01*
X81027133Y-62057229D01*
X80997118Y-62055012D01*
X80957814Y-62051267D01*
X80934034Y-62048908D01*
X80793634Y-62031011D01*
X80652989Y-62005351D01*
X80514596Y-61972571D01*
X80380952Y-61933311D01*
X80254556Y-61888212D01*
X80170701Y-61853051D01*
X80128481Y-61834108D01*
X80213691Y-61782909D01*
X80281370Y-61740677D01*
X80340080Y-61700430D01*
X80392622Y-61660079D01*
X80441795Y-61617538D01*
X80465879Y-61594905D01*
X80523351Y-61535277D01*
X80569280Y-61477972D01*
X80604151Y-61422080D01*
X80628448Y-61366691D01*
X80642656Y-61310893D01*
X80647260Y-61254018D01*
X80642917Y-61200474D01*
X80629332Y-61149849D01*
X80605666Y-61099940D01*
X80571083Y-61048542D01*
X80567381Y-61043736D01*
X80553150Y-61025011D01*
X80542719Y-61010465D01*
X80537783Y-61002492D01*
X80537646Y-61001714D01*
X80544234Y-61003065D01*
G37*
G36*
X80333043Y-60728918D02*
G01*
X80361078Y-60732340D01*
X80397448Y-60737382D01*
X80440848Y-60743829D01*
X80489972Y-60751470D01*
X80543518Y-60760090D01*
X80600179Y-60769477D01*
X80658651Y-60779418D01*
X80717631Y-60789700D01*
X80775813Y-60800110D01*
X80831893Y-60810434D01*
X80884567Y-60820460D01*
X80930589Y-60829580D01*
X81156041Y-60878985D01*
X81371953Y-60933733D01*
X81578078Y-60993729D01*
X81774170Y-61058877D01*
X81959982Y-61129083D01*
X82135267Y-61204251D01*
X82299780Y-61284287D01*
X82453273Y-61369094D01*
X82595500Y-61458579D01*
X82639185Y-61488602D01*
X82709730Y-61538164D01*
X82691942Y-61552683D01*
X82676035Y-61564683D01*
X82651649Y-61581863D01*
X82620890Y-61602839D01*
X82585865Y-61626230D01*
X82548678Y-61650652D01*
X82511438Y-61674722D01*
X82476248Y-61697058D01*
X82445216Y-61716278D01*
X82420448Y-61730998D01*
X82419541Y-61731517D01*
X82310085Y-61790181D01*
X82194082Y-61845204D01*
X82088243Y-61889567D01*
X82056537Y-61901994D01*
X82045507Y-61867001D01*
X82033343Y-61834771D01*
X82015528Y-61795841D01*
X81993808Y-61753528D01*
X81969934Y-61711149D01*
X81945652Y-61672021D01*
X81932796Y-61653143D01*
X81907605Y-61620700D01*
X81874822Y-61583071D01*
X81836780Y-61542595D01*
X81795814Y-61501607D01*
X81754257Y-61462446D01*
X81714443Y-61427447D01*
X81679704Y-61399693D01*
X81568120Y-61323004D01*
X81445611Y-61251374D01*
X81312749Y-61185070D01*
X81170106Y-61124363D01*
X81018252Y-61069518D01*
X80894414Y-61031165D01*
X80851719Y-61019274D01*
X80803586Y-61006593D01*
X80752279Y-60993655D01*
X80700065Y-60980990D01*
X80649208Y-60969130D01*
X80601975Y-60958606D01*
X80560632Y-60949951D01*
X80527443Y-60943697D01*
X80510265Y-60941029D01*
X80490992Y-60937637D01*
X80476486Y-60931916D01*
X80462489Y-60921453D01*
X80444853Y-60903948D01*
X80429827Y-60887394D01*
X80411401Y-60865816D01*
X80391002Y-60841043D01*
X80370060Y-60814905D01*
X80350005Y-60789230D01*
X80332266Y-60765848D01*
X80318271Y-60746587D01*
X80309451Y-60733276D01*
X80307191Y-60727781D01*
X80314645Y-60727327D01*
X80333043Y-60728918D01*
G37*
G36*
X81250148Y-57047630D02*
G01*
X81271178Y-57049822D01*
X81294188Y-57053627D01*
X81306476Y-57107353D01*
X81317804Y-57159798D01*
X81325777Y-57204888D01*
X81330908Y-57247107D01*
X81333712Y-57290940D01*
X81334699Y-57340871D01*
X81334724Y-57354118D01*
X81332130Y-57433710D01*
X81323945Y-57505313D01*
X81309366Y-57572433D01*
X81287592Y-57638577D01*
X81257820Y-57707253D01*
X81250611Y-57722053D01*
X81202669Y-57805277D01*
X81142792Y-57885609D01*
X81071202Y-57962871D01*
X80988118Y-58036885D01*
X80893762Y-58107473D01*
X80788354Y-58174458D01*
X80672113Y-58237660D01*
X80545262Y-58296903D01*
X80530418Y-58303278D01*
X80499847Y-58316259D01*
X80473629Y-58327321D01*
X80453754Y-58335629D01*
X80442213Y-58340351D01*
X80440126Y-58341118D01*
X80443732Y-58336937D01*
X80454643Y-58325378D01*
X80471428Y-58307935D01*
X80492652Y-58286101D01*
X80507362Y-58271064D01*
X80535116Y-58242313D01*
X80555965Y-58219264D01*
X80572046Y-58199060D01*
X80585499Y-58178844D01*
X80598465Y-58155757D01*
X80608770Y-58135608D01*
X80630167Y-58089290D01*
X80644981Y-58047512D01*
X80654032Y-58006311D01*
X80658140Y-57961725D01*
X80658124Y-57909790D01*
X80657732Y-57898982D01*
X80653374Y-57842538D01*
X80644532Y-57789039D01*
X80630343Y-57734932D01*
X80609943Y-57676666D01*
X80594176Y-57637795D01*
X80560801Y-57566252D01*
X80518721Y-57488567D01*
X80468935Y-57406404D01*
X80412440Y-57321429D01*
X80364716Y-57254752D01*
X80348635Y-57232079D01*
X80336355Y-57213035D01*
X80329197Y-57199792D01*
X80328170Y-57194675D01*
X80336202Y-57190835D01*
X80353995Y-57184274D01*
X80379338Y-57175697D01*
X80410019Y-57165810D01*
X80443825Y-57155317D01*
X80478545Y-57144924D01*
X80511966Y-57135336D01*
X80528946Y-57130673D01*
X80578809Y-57118265D01*
X80636949Y-57105453D01*
X80699248Y-57093031D01*
X80761589Y-57081798D01*
X80819853Y-57072548D01*
X80852751Y-57068081D01*
X80904037Y-57062347D01*
X80958916Y-57057343D01*
X81015363Y-57053160D01*
X81071350Y-57049884D01*
X81124849Y-57047605D01*
X81173833Y-57046410D01*
X81216275Y-57046389D01*
X81250148Y-57047630D01*
G37*
G36*
X83672489Y-59284476D02*
G01*
X83673856Y-59291092D01*
X83676010Y-59307497D01*
X83678633Y-59331077D01*
X83680914Y-59353965D01*
X83683017Y-59385963D01*
X83684360Y-59427787D01*
X83684987Y-59477126D01*
X83684944Y-59531673D01*
X83684278Y-59589118D01*
X83683032Y-59647150D01*
X83681254Y-59703461D01*
X83678988Y-59755742D01*
X83676280Y-59801683D01*
X83673175Y-59838975D01*
X83670981Y-59857378D01*
X83667071Y-59884972D01*
X83663900Y-59907543D01*
X83661824Y-59922538D01*
X83661187Y-59927432D01*
X83658621Y-59927829D01*
X83650740Y-59928136D01*
X83637225Y-59928351D01*
X83617759Y-59928471D01*
X83592023Y-59928491D01*
X83559700Y-59928410D01*
X83520472Y-59928224D01*
X83474020Y-59927930D01*
X83420026Y-59927525D01*
X83358174Y-59927006D01*
X83288143Y-59926369D01*
X83209617Y-59925612D01*
X83122278Y-59924732D01*
X83025806Y-59923725D01*
X82919885Y-59922588D01*
X82804197Y-59921319D01*
X82678422Y-59919913D01*
X82542244Y-59918369D01*
X82395344Y-59916683D01*
X82237404Y-59914851D01*
X82068106Y-59912871D01*
X81887132Y-59910740D01*
X81694165Y-59908455D01*
X81604664Y-59907391D01*
X81461138Y-59905673D01*
X81320872Y-59903977D01*
X81184375Y-59902307D01*
X81052157Y-59900672D01*
X80924727Y-59899078D01*
X80802594Y-59897531D01*
X80686269Y-59896039D01*
X80576260Y-59894609D01*
X80473077Y-59893247D01*
X80377230Y-59891960D01*
X80289228Y-59890756D01*
X80209580Y-59889640D01*
X80138796Y-59888620D01*
X80077385Y-59887702D01*
X80025857Y-59886894D01*
X79984722Y-59886202D01*
X79954488Y-59885633D01*
X79935666Y-59885194D01*
X79928764Y-59884892D01*
X79928742Y-59884882D01*
X79926040Y-59876539D01*
X79922719Y-59857925D01*
X79919010Y-59831194D01*
X79915144Y-59798500D01*
X79911351Y-59761996D01*
X79907864Y-59723838D01*
X79904912Y-59686178D01*
X79902727Y-59651171D01*
X79902008Y-59635682D01*
X79898139Y-59538525D01*
X80134148Y-59534270D01*
X80728044Y-59518485D01*
X81316986Y-59492656D01*
X81900432Y-59456820D01*
X82477840Y-59411015D01*
X83048667Y-59355279D01*
X83552163Y-59297174D01*
X83589030Y-59292714D01*
X83621420Y-59289007D01*
X83647401Y-59286254D01*
X83665040Y-59284662D01*
X83672404Y-59284432D01*
X83672489Y-59284476D01*
G37*
G36*
X79926348Y-59896760D02*
G01*
X79927294Y-59898946D01*
X79929558Y-59907821D01*
X79934106Y-59926278D01*
X79940319Y-59951790D01*
X79947579Y-59981826D01*
X79949101Y-59988146D01*
X79958070Y-60024126D01*
X79967848Y-60061229D01*
X79977218Y-60094942D01*
X79984553Y-60119475D01*
X80000533Y-60169852D01*
X80197799Y-60173983D01*
X80560787Y-60186047D01*
X80931065Y-60207132D01*
X81307457Y-60237125D01*
X81688790Y-60275910D01*
X82073888Y-60323373D01*
X82461578Y-60379399D01*
X82698530Y-60417680D01*
X82767986Y-60429496D01*
X82839501Y-60441935D01*
X82912009Y-60454791D01*
X82984444Y-60467861D01*
X83055741Y-60480939D01*
X83124833Y-60493821D01*
X83190654Y-60506301D01*
X83252138Y-60518175D01*
X83308219Y-60529239D01*
X83357832Y-60539286D01*
X83399910Y-60548114D01*
X83433387Y-60555516D01*
X83457197Y-60561289D01*
X83470275Y-60565227D01*
X83472360Y-60566331D01*
X83471066Y-60573076D01*
X83464591Y-60589013D01*
X83453802Y-60612445D01*
X83439564Y-60641673D01*
X83422743Y-60675003D01*
X83404205Y-60710736D01*
X83384815Y-60747177D01*
X83365438Y-60782628D01*
X83346942Y-60815392D01*
X83334210Y-60837112D01*
X83312973Y-60871564D01*
X83287985Y-60910454D01*
X83261003Y-60951190D01*
X83233788Y-60991181D01*
X83208099Y-61027835D01*
X83185694Y-61058561D01*
X83171060Y-61077449D01*
X83157351Y-61094353D01*
X83009158Y-61041694D01*
X82755108Y-60956406D01*
X82491087Y-60877559D01*
X82216996Y-60805132D01*
X81932737Y-60739105D01*
X81638212Y-60679459D01*
X81333322Y-60626174D01*
X81017970Y-60579229D01*
X80692058Y-60538605D01*
X80365999Y-60505244D01*
X80306039Y-60499816D01*
X80257468Y-60495613D01*
X80219285Y-60492575D01*
X80190493Y-60490642D01*
X80170092Y-60489753D01*
X80157083Y-60489849D01*
X80150467Y-60490869D01*
X80149098Y-60492200D01*
X80152017Y-60498546D01*
X80159704Y-60512654D01*
X80170553Y-60531584D01*
X80171596Y-60533366D01*
X80184464Y-60558148D01*
X80190441Y-60579309D01*
X80189480Y-60600498D01*
X80181533Y-60625365D01*
X80170084Y-60650420D01*
X80142869Y-60693493D01*
X80103457Y-60736631D01*
X80052103Y-60779671D01*
X79989062Y-60822451D01*
X79914588Y-60864808D01*
X79828937Y-60906581D01*
X79732364Y-60947606D01*
X79660278Y-60975106D01*
X79618279Y-60989856D01*
X79567312Y-61006776D01*
X79510462Y-61024913D01*
X79450818Y-61043314D01*
X79391464Y-61061028D01*
X79335490Y-61077101D01*
X79286657Y-61090404D01*
X79259481Y-61097561D01*
X79236086Y-61103759D01*
X79219574Y-61108174D01*
X79213929Y-61109719D01*
X79206489Y-61107661D01*
X79194996Y-61097665D01*
X79178586Y-61078846D01*
X79157430Y-61051689D01*
X79062044Y-60915590D01*
X78975511Y-60772129D01*
X78898507Y-60622773D01*
X78831712Y-60468990D01*
X78775804Y-60312247D01*
X78731461Y-60154011D01*
X78720513Y-60106459D01*
X78713931Y-60076354D01*
X78708111Y-60049741D01*
X78703687Y-60029521D01*
X78701302Y-60018634D01*
X78700715Y-60014419D01*
X78702031Y-60011167D01*
X78706724Y-60008693D01*
X78716270Y-60006814D01*
X78732144Y-60005346D01*
X78755822Y-60004106D01*
X78788780Y-60002908D01*
X78832492Y-60001570D01*
X78839978Y-60001348D01*
X78977456Y-59997107D01*
X79103014Y-59992844D01*
X79217188Y-59988512D01*
X79320511Y-59984061D01*
X79413517Y-59979441D01*
X79496742Y-59974606D01*
X79570720Y-59969504D01*
X79635985Y-59964089D01*
X79693072Y-59958310D01*
X79742515Y-59952118D01*
X79784848Y-59945466D01*
X79820607Y-59938304D01*
X79850325Y-59930583D01*
X79874538Y-59922255D01*
X79893778Y-59913269D01*
X79908516Y-59903631D01*
X79920508Y-59895799D01*
X79926348Y-59896760D01*
G37*
G36*
X82159886Y-57248278D02*
G01*
X82174567Y-57253509D01*
X82198230Y-57263844D01*
X82228980Y-57278317D01*
X82264926Y-57295964D01*
X82304172Y-57315818D01*
X82344826Y-57336914D01*
X82384993Y-57358287D01*
X82422781Y-57378972D01*
X82456296Y-57398002D01*
X82473478Y-57408171D01*
X82509825Y-57430766D01*
X82550439Y-57457085D01*
X82592827Y-57485413D01*
X82634493Y-57514037D01*
X82672940Y-57541243D01*
X82705672Y-57565318D01*
X82729531Y-57583998D01*
X82747547Y-57598861D01*
X82698396Y-57646908D01*
X82589885Y-57746256D01*
X82471946Y-57841292D01*
X82344356Y-57932114D01*
X82206895Y-58018822D01*
X82059342Y-58101515D01*
X81901477Y-58180292D01*
X81733077Y-58255252D01*
X81553923Y-58326494D01*
X81363793Y-58394116D01*
X81162466Y-58458219D01*
X80949722Y-58518902D01*
X80725339Y-58576262D01*
X80519606Y-58623735D01*
X80469778Y-58634557D01*
X80417101Y-58645755D01*
X80364958Y-58656626D01*
X80316731Y-58666470D01*
X80275803Y-58674582D01*
X80261185Y-58677383D01*
X80226236Y-58684048D01*
X80195020Y-58690122D01*
X80169835Y-58695150D01*
X80152980Y-58698674D01*
X80147359Y-58700004D01*
X80140678Y-58706523D01*
X80130264Y-58722109D01*
X80117123Y-58744710D01*
X80102264Y-58772274D01*
X80086693Y-58802749D01*
X80071417Y-58834081D01*
X80057444Y-58864219D01*
X80045781Y-58891110D01*
X80037434Y-58912701D01*
X80033412Y-58926941D01*
X80033760Y-58931490D01*
X80040727Y-58931776D01*
X80058545Y-58930663D01*
X80085713Y-58928318D01*
X80120725Y-58924903D01*
X80162078Y-58920582D01*
X80208268Y-58915522D01*
X80257792Y-58909885D01*
X80309146Y-58903836D01*
X80360826Y-58897540D01*
X80411329Y-58891161D01*
X80454222Y-58885526D01*
X80772323Y-58838360D01*
X81081289Y-58783454D01*
X81381027Y-58720834D01*
X81671443Y-58650527D01*
X81952443Y-58572561D01*
X82223934Y-58486962D01*
X82485823Y-58393757D01*
X82738015Y-58292973D01*
X82980417Y-58184636D01*
X83108071Y-58122573D01*
X83205730Y-58073682D01*
X83264726Y-58162245D01*
X83316563Y-58242478D01*
X83361956Y-58318213D01*
X83403363Y-58393662D01*
X83427131Y-58440167D01*
X83445982Y-58478932D01*
X83464152Y-58518016D01*
X83480940Y-58555732D01*
X83495647Y-58590394D01*
X83507575Y-58620315D01*
X83516024Y-58643808D01*
X83520294Y-58659187D01*
X83520171Y-58664575D01*
X83512816Y-58667656D01*
X83495056Y-58673673D01*
X83468465Y-58682155D01*
X83434615Y-58692631D01*
X83395081Y-58704632D01*
X83351437Y-58717686D01*
X83305256Y-58731322D01*
X83258113Y-58745071D01*
X83211580Y-58758461D01*
X83167232Y-58771022D01*
X83126642Y-58782283D01*
X83125612Y-58782565D01*
X82814966Y-58862422D01*
X82494937Y-58934650D01*
X82166045Y-58999172D01*
X81828808Y-59055910D01*
X81483746Y-59104787D01*
X81131380Y-59145727D01*
X80772228Y-59178652D01*
X80406810Y-59203485D01*
X80226936Y-59212617D01*
X80180479Y-59214740D01*
X80133175Y-59216943D01*
X80088148Y-59219076D01*
X80048524Y-59220992D01*
X80017427Y-59222542D01*
X80011296Y-59222857D01*
X79938878Y-59226622D01*
X79932650Y-59252444D01*
X79928786Y-59265908D01*
X79926105Y-59270543D01*
X79925519Y-59268925D01*
X79920124Y-59255166D01*
X79907461Y-59236248D01*
X79889846Y-59214967D01*
X79869596Y-59194119D01*
X79849025Y-59176498D01*
X79848835Y-59176355D01*
X79804054Y-59145834D01*
X79751730Y-59116251D01*
X79690781Y-59087108D01*
X79620127Y-59057906D01*
X79538688Y-59028149D01*
X79495262Y-59013460D01*
X79412524Y-58987404D01*
X79319712Y-58960513D01*
X79219122Y-58933377D01*
X79113052Y-58906584D01*
X79003799Y-58880726D01*
X78893662Y-58856391D01*
X78838311Y-58844842D01*
X78810730Y-58839093D01*
X78788005Y-58834142D01*
X78772696Y-58830560D01*
X78767391Y-58828998D01*
X78768124Y-58822430D01*
X78772711Y-58806160D01*
X78780473Y-58782084D01*
X78790727Y-58752097D01*
X78802793Y-58718097D01*
X78815991Y-58681979D01*
X78829638Y-58645640D01*
X78843054Y-58610975D01*
X78855559Y-58579881D01*
X78864186Y-58559454D01*
X78922318Y-58435974D01*
X78988641Y-58313241D01*
X79061668Y-58193540D01*
X79139914Y-58079154D01*
X79221892Y-57972368D01*
X79306117Y-57875465D01*
X79316256Y-57864660D01*
X79361381Y-57816987D01*
X79461648Y-57869937D01*
X79583015Y-57936379D01*
X79692498Y-58001303D01*
X79790532Y-58065024D01*
X79877549Y-58127861D01*
X79953985Y-58190131D01*
X80020273Y-58252150D01*
X80076847Y-58314235D01*
X80087422Y-58327172D01*
X80128124Y-58383097D01*
X80158630Y-58437389D01*
X80180330Y-58492985D01*
X80194615Y-58552819D01*
X80194814Y-58553960D01*
X80202028Y-58595577D01*
X80297410Y-58467953D01*
X80361805Y-58453590D01*
X80419912Y-58439894D01*
X80485866Y-58423111D01*
X80555776Y-58404318D01*
X80625751Y-58384587D01*
X80691900Y-58364994D01*
X80750331Y-58346613D01*
X80756104Y-58344716D01*
X80926467Y-58283669D01*
X81086334Y-58216344D01*
X81236161Y-58142389D01*
X81376405Y-58061454D01*
X81507524Y-57973187D01*
X81629974Y-57877236D01*
X81744213Y-57773250D01*
X81850698Y-57660878D01*
X81949885Y-57539767D01*
X82042232Y-57409566D01*
X82107456Y-57305439D01*
X82123354Y-57279059D01*
X82134652Y-57261791D01*
X82142918Y-57251928D01*
X82149717Y-57247761D01*
X82156617Y-57247583D01*
X82159886Y-57248278D01*
G37*
%TO.C,J3*%
X79442051Y-63804814D02*
X80992051Y-63804814D01*
X79442051Y-63804814D02*
X79442051Y-64104814D01*
X76642051Y-64104814D02*
X79442051Y-64104814D01*
X82692051Y-66254814D02*
X82692051Y-67054814D01*
X82242051Y-66654814D02*
X82692051Y-66254814D01*
X82692051Y-67054814D02*
X82242051Y-66654814D01*
X79442051Y-71804814D02*
X79442051Y-72104814D01*
X76642051Y-71804814D02*
X79442051Y-71804814D01*
X79442051Y-72104814D02*
X80992051Y-72104814D01*
%TO.C,C14*%
X112906812Y-63938203D02*
X113187972Y-63938203D01*
X112906812Y-64958203D02*
X113187972Y-64958203D01*
%TO.C,C7*%
X94144851Y-59527194D02*
X94144851Y-59246034D01*
X95164851Y-59527194D02*
X95164851Y-59246034D01*
%TO.C,C3*%
X97171051Y-60742866D02*
X97171051Y-60220362D01*
X98641051Y-60742866D02*
X98641051Y-60220362D01*
%TO.C,L2*%
X117101913Y-69183603D02*
X117427471Y-69183603D01*
X117101913Y-70203603D02*
X117427471Y-70203603D01*
%TO.C,R3*%
X104184328Y-77188203D02*
X104638456Y-77188203D01*
X104184328Y-78658203D02*
X104638456Y-78658203D01*
%TO.C,C20*%
X100345392Y-74585783D02*
X100345392Y-74304623D01*
X101365392Y-74585783D02*
X101365392Y-74304623D01*
%TO.C,C10*%
X110401392Y-72689623D02*
X110401392Y-72970783D01*
X109381392Y-72689623D02*
X109381392Y-72970783D01*
%TO.C,C13*%
X101492892Y-60912455D02*
X101492892Y-60389951D01*
X102962892Y-60912455D02*
X102962892Y-60389951D01*
%TO.C,J2*%
X119722892Y-68224403D02*
X119722892Y-68724403D01*
X119722892Y-68724403D02*
X120222892Y-68474403D01*
X120222892Y-68474403D02*
X119722892Y-68224403D01*
%TO.C,U2*%
X95690051Y-69578814D02*
X95215051Y-69578814D01*
X90470051Y-69103814D02*
X90470051Y-69578814D01*
X95690051Y-69103814D02*
X95690051Y-69578814D01*
X90470051Y-64833814D02*
X90470051Y-64358814D01*
X95690051Y-64833814D02*
X95690051Y-64358814D01*
X90470051Y-64358814D02*
X90945051Y-64358814D01*
X95690051Y-64358814D02*
X95215051Y-64358814D01*
%TO.C,U3*%
X87833251Y-61193214D02*
X86033251Y-61193214D01*
X86033251Y-64413214D02*
X88983251Y-64413214D01*
%TO.C,R1*%
X89852651Y-72355750D02*
X89852651Y-72809878D01*
X88382651Y-72355750D02*
X88382651Y-72809878D01*
%TO.C,F1*%
X86116051Y-69821150D02*
X86116051Y-71025278D01*
X84296051Y-69821150D02*
X84296051Y-71025278D01*
%TO.C,C5*%
X91964451Y-72378434D02*
X91964451Y-72659594D01*
X90944451Y-72378434D02*
X90944451Y-72659594D01*
%TO.C,Y1*%
X102327392Y-72629203D02*
X102327392Y-75929203D01*
X102327392Y-75929203D02*
X106327392Y-75929203D01*
%TO.C,U4*%
X103935892Y-69631203D02*
X103935892Y-69156203D01*
X104410892Y-64411203D02*
X103935892Y-64411203D01*
X104410892Y-69631203D02*
X103935892Y-69631203D01*
X108680892Y-64411203D02*
X109155892Y-64411203D01*
X108680892Y-69631203D02*
X109155892Y-69631203D01*
X109155892Y-64411203D02*
X109155892Y-64886203D01*
X109155892Y-69631203D02*
X109155892Y-69156203D01*
%TO.C,R2*%
X109264392Y-61886267D02*
X109264392Y-61432139D01*
X110734392Y-61886267D02*
X110734392Y-61432139D01*
%TO.C,L1*%
X117101913Y-67151603D02*
X117427471Y-67151603D01*
X117101913Y-68171603D02*
X117427471Y-68171603D01*
%TO.C,C6*%
X97916971Y-63890814D02*
X98198131Y-63890814D01*
X97916971Y-64910814D02*
X98198131Y-64910814D01*
%TO.C,C12*%
X106949392Y-61799783D02*
X106949392Y-61518623D01*
X107969392Y-61799783D02*
X107969392Y-61518623D01*
%TO.C,C2*%
X90970251Y-77680362D02*
X90970251Y-78202866D01*
X89500251Y-77680362D02*
X89500251Y-78202866D01*
%TO.C,R5*%
X96355051Y-72453650D02*
X96355051Y-72907778D01*
X94885051Y-72453650D02*
X94885051Y-72907778D01*
%TO.C,C21*%
X108477392Y-74304623D02*
X108477392Y-74585783D01*
X107457392Y-74304623D02*
X107457392Y-74585783D01*
%TO.C,C8*%
X112433392Y-72702623D02*
X112433392Y-72983783D01*
X111413392Y-72702623D02*
X111413392Y-72983783D01*
%TO.C,C11*%
X101907431Y-67072414D02*
X101626271Y-67072414D01*
X101907431Y-66052414D02*
X101626271Y-66052414D01*
%TO.C,C4*%
X94101892Y-72373023D02*
X94101892Y-72654183D01*
X93081892Y-72373023D02*
X93081892Y-72654183D01*
%TO.C,J3*%
X79427600Y-88428400D02*
X80977600Y-88428400D01*
X79427600Y-88428400D02*
X79427600Y-88728400D01*
X76627600Y-88728400D02*
X79427600Y-88728400D01*
X82677600Y-90878400D02*
X82677600Y-91678400D01*
X82227600Y-91278400D02*
X82677600Y-90878400D01*
X82677600Y-91678400D02*
X82227600Y-91278400D01*
X79427600Y-96428400D02*
X79427600Y-96728400D01*
X76627600Y-96428400D02*
X79427600Y-96428400D01*
X79427600Y-96728400D02*
X80977600Y-96728400D01*
%TO.C,U3*%
X86018800Y-89036800D02*
X88968800Y-89036800D01*
X87818800Y-85816800D02*
X86018800Y-85816800D01*
%TO.C,L3*%
X113538941Y-91762068D02*
X113538941Y-91436510D01*
X114558941Y-91762068D02*
X114558941Y-91436510D01*
%TO.C,L1*%
X117087462Y-91775189D02*
X117413020Y-91775189D01*
X117087462Y-92795189D02*
X117413020Y-92795189D01*
%TO.C,C17*%
X117109661Y-87711189D02*
X117390821Y-87711189D01*
X117109661Y-88731189D02*
X117390821Y-88731189D01*
%TO.C,C16*%
X113173521Y-94661789D02*
X112892361Y-94661789D01*
X113173521Y-93641789D02*
X112892361Y-93641789D01*
%TO.C,C12*%
X106934941Y-86423369D02*
X106934941Y-86142209D01*
X107954941Y-86423369D02*
X107954941Y-86142209D01*
%TO.C,U2*%
X95675600Y-88982400D02*
X95200600Y-88982400D01*
X90455600Y-88982400D02*
X90930600Y-88982400D01*
X95675600Y-89457400D02*
X95675600Y-88982400D01*
X90455600Y-89457400D02*
X90455600Y-88982400D01*
X95675600Y-93727400D02*
X95675600Y-94202400D01*
X90455600Y-93727400D02*
X90455600Y-94202400D01*
X95675600Y-94202400D02*
X95200600Y-94202400D01*
%TO.C,\u002A*%
G36*
X80529783Y-85626651D02*
G01*
X80545796Y-85632790D01*
X80569520Y-85642932D01*
X80599243Y-85656297D01*
X80633250Y-85672100D01*
X80669828Y-85689558D01*
X80707263Y-85707890D01*
X80740049Y-85724374D01*
X80845811Y-85781937D01*
X80941301Y-85841448D01*
X81026256Y-85902635D01*
X81100412Y-85965224D01*
X81163508Y-86028943D01*
X81215281Y-86093518D01*
X81255469Y-86158678D01*
X81283808Y-86224148D01*
X81300036Y-86289657D01*
X81302452Y-86308747D01*
X81301928Y-86365687D01*
X81289517Y-86422741D01*
X81265741Y-86478972D01*
X81231123Y-86533445D01*
X81186185Y-86585223D01*
X81131449Y-86633371D01*
X81113973Y-86646409D01*
X81096089Y-86659216D01*
X81081375Y-86668823D01*
X81067754Y-86675507D01*
X81053149Y-86679548D01*
X81035484Y-86681225D01*
X81012682Y-86680815D01*
X80982667Y-86678598D01*
X80943363Y-86674853D01*
X80919583Y-86672494D01*
X80779183Y-86654597D01*
X80638538Y-86628937D01*
X80500145Y-86596157D01*
X80366501Y-86556897D01*
X80240105Y-86511798D01*
X80156250Y-86476637D01*
X80114030Y-86457694D01*
X80199240Y-86406495D01*
X80266919Y-86364263D01*
X80325629Y-86324016D01*
X80378171Y-86283665D01*
X80427344Y-86241124D01*
X80451428Y-86218491D01*
X80508900Y-86158863D01*
X80554829Y-86101558D01*
X80589700Y-86045666D01*
X80613997Y-85990277D01*
X80628205Y-85934479D01*
X80632809Y-85877604D01*
X80628466Y-85824060D01*
X80614881Y-85773435D01*
X80591215Y-85723526D01*
X80556632Y-85672128D01*
X80552930Y-85667322D01*
X80538699Y-85648597D01*
X80528268Y-85634051D01*
X80523332Y-85626078D01*
X80523195Y-85625300D01*
X80529783Y-85626651D01*
G37*
G36*
X80318592Y-85352504D02*
G01*
X80346627Y-85355926D01*
X80382997Y-85360968D01*
X80426397Y-85367415D01*
X80475521Y-85375056D01*
X80529067Y-85383676D01*
X80585728Y-85393063D01*
X80644200Y-85403004D01*
X80703180Y-85413286D01*
X80761362Y-85423696D01*
X80817442Y-85434020D01*
X80870116Y-85444046D01*
X80916138Y-85453166D01*
X81141590Y-85502571D01*
X81357502Y-85557319D01*
X81563627Y-85617315D01*
X81759719Y-85682463D01*
X81945531Y-85752669D01*
X82120816Y-85827837D01*
X82285329Y-85907873D01*
X82438822Y-85992680D01*
X82581049Y-86082165D01*
X82624734Y-86112188D01*
X82695279Y-86161750D01*
X82677491Y-86176269D01*
X82661584Y-86188269D01*
X82637198Y-86205449D01*
X82606439Y-86226425D01*
X82571414Y-86249816D01*
X82534227Y-86274238D01*
X82496987Y-86298308D01*
X82461797Y-86320644D01*
X82430765Y-86339864D01*
X82405997Y-86354584D01*
X82405090Y-86355103D01*
X82295634Y-86413767D01*
X82179631Y-86468790D01*
X82073792Y-86513153D01*
X82042086Y-86525580D01*
X82031056Y-86490587D01*
X82018892Y-86458357D01*
X82001077Y-86419427D01*
X81979357Y-86377114D01*
X81955483Y-86334735D01*
X81931201Y-86295607D01*
X81918345Y-86276729D01*
X81893154Y-86244286D01*
X81860371Y-86206657D01*
X81822329Y-86166181D01*
X81781363Y-86125193D01*
X81739806Y-86086032D01*
X81699992Y-86051033D01*
X81665253Y-86023279D01*
X81553669Y-85946590D01*
X81431160Y-85874960D01*
X81298298Y-85808656D01*
X81155655Y-85747949D01*
X81003801Y-85693104D01*
X80879963Y-85654751D01*
X80837268Y-85642860D01*
X80789135Y-85630179D01*
X80737828Y-85617241D01*
X80685614Y-85604576D01*
X80634757Y-85592716D01*
X80587524Y-85582192D01*
X80546181Y-85573537D01*
X80512992Y-85567283D01*
X80495814Y-85564615D01*
X80476541Y-85561223D01*
X80462035Y-85555502D01*
X80448038Y-85545039D01*
X80430402Y-85527534D01*
X80415376Y-85510980D01*
X80396950Y-85489402D01*
X80376551Y-85464629D01*
X80355609Y-85438491D01*
X80335554Y-85412816D01*
X80317815Y-85389434D01*
X80303820Y-85370173D01*
X80295000Y-85356862D01*
X80292740Y-85351367D01*
X80300194Y-85350913D01*
X80318592Y-85352504D01*
G37*
G36*
X81235697Y-81671216D02*
G01*
X81256727Y-81673408D01*
X81279737Y-81677213D01*
X81292025Y-81730939D01*
X81303353Y-81783384D01*
X81311326Y-81828474D01*
X81316457Y-81870693D01*
X81319261Y-81914526D01*
X81320248Y-81964457D01*
X81320273Y-81977704D01*
X81317679Y-82057296D01*
X81309494Y-82128899D01*
X81294915Y-82196019D01*
X81273141Y-82262163D01*
X81243369Y-82330839D01*
X81236160Y-82345639D01*
X81188218Y-82428863D01*
X81128341Y-82509195D01*
X81056751Y-82586457D01*
X80973667Y-82660471D01*
X80879311Y-82731059D01*
X80773903Y-82798044D01*
X80657662Y-82861246D01*
X80530811Y-82920489D01*
X80515967Y-82926864D01*
X80485396Y-82939845D01*
X80459178Y-82950907D01*
X80439303Y-82959215D01*
X80427762Y-82963937D01*
X80425675Y-82964704D01*
X80429281Y-82960523D01*
X80440192Y-82948964D01*
X80456977Y-82931521D01*
X80478201Y-82909687D01*
X80492911Y-82894650D01*
X80520665Y-82865899D01*
X80541514Y-82842850D01*
X80557595Y-82822646D01*
X80571048Y-82802430D01*
X80584014Y-82779343D01*
X80594319Y-82759194D01*
X80615716Y-82712876D01*
X80630530Y-82671098D01*
X80639581Y-82629897D01*
X80643689Y-82585311D01*
X80643673Y-82533376D01*
X80643281Y-82522568D01*
X80638923Y-82466124D01*
X80630081Y-82412625D01*
X80615892Y-82358518D01*
X80595492Y-82300252D01*
X80579725Y-82261381D01*
X80546350Y-82189838D01*
X80504270Y-82112153D01*
X80454484Y-82029990D01*
X80397989Y-81945015D01*
X80350265Y-81878338D01*
X80334184Y-81855665D01*
X80321904Y-81836621D01*
X80314746Y-81823378D01*
X80313719Y-81818261D01*
X80321751Y-81814421D01*
X80339544Y-81807860D01*
X80364887Y-81799283D01*
X80395568Y-81789396D01*
X80429374Y-81778903D01*
X80464094Y-81768510D01*
X80497515Y-81758922D01*
X80514495Y-81754259D01*
X80564358Y-81741851D01*
X80622498Y-81729039D01*
X80684797Y-81716617D01*
X80747138Y-81705384D01*
X80805402Y-81696134D01*
X80838300Y-81691667D01*
X80889586Y-81685933D01*
X80944465Y-81680929D01*
X81000912Y-81676746D01*
X81056899Y-81673470D01*
X81110398Y-81671191D01*
X81159382Y-81669996D01*
X81201824Y-81669975D01*
X81235697Y-81671216D01*
G37*
G36*
X83658038Y-83908062D02*
G01*
X83659405Y-83914678D01*
X83661559Y-83931083D01*
X83664182Y-83954663D01*
X83666463Y-83977551D01*
X83668566Y-84009549D01*
X83669909Y-84051373D01*
X83670536Y-84100712D01*
X83670493Y-84155259D01*
X83669827Y-84212704D01*
X83668581Y-84270736D01*
X83666803Y-84327047D01*
X83664537Y-84379328D01*
X83661829Y-84425269D01*
X83658724Y-84462561D01*
X83656530Y-84480964D01*
X83652620Y-84508558D01*
X83649449Y-84531129D01*
X83647373Y-84546124D01*
X83646736Y-84551018D01*
X83644170Y-84551415D01*
X83636289Y-84551722D01*
X83622774Y-84551937D01*
X83603308Y-84552057D01*
X83577572Y-84552077D01*
X83545249Y-84551996D01*
X83506021Y-84551810D01*
X83459569Y-84551516D01*
X83405575Y-84551111D01*
X83343723Y-84550592D01*
X83273692Y-84549955D01*
X83195166Y-84549198D01*
X83107827Y-84548318D01*
X83011355Y-84547311D01*
X82905434Y-84546174D01*
X82789746Y-84544905D01*
X82663971Y-84543499D01*
X82527793Y-84541955D01*
X82380893Y-84540269D01*
X82222953Y-84538437D01*
X82053655Y-84536457D01*
X81872681Y-84534326D01*
X81679714Y-84532041D01*
X81590213Y-84530977D01*
X81446687Y-84529259D01*
X81306421Y-84527563D01*
X81169924Y-84525893D01*
X81037706Y-84524258D01*
X80910276Y-84522664D01*
X80788143Y-84521117D01*
X80671818Y-84519625D01*
X80561809Y-84518195D01*
X80458626Y-84516833D01*
X80362779Y-84515546D01*
X80274777Y-84514342D01*
X80195129Y-84513226D01*
X80124345Y-84512206D01*
X80062934Y-84511288D01*
X80011406Y-84510480D01*
X79970271Y-84509788D01*
X79940037Y-84509219D01*
X79921215Y-84508780D01*
X79914313Y-84508478D01*
X79914291Y-84508468D01*
X79911589Y-84500125D01*
X79908268Y-84481511D01*
X79904559Y-84454780D01*
X79900693Y-84422086D01*
X79896900Y-84385582D01*
X79893413Y-84347424D01*
X79890461Y-84309764D01*
X79888276Y-84274757D01*
X79887557Y-84259268D01*
X79883688Y-84162111D01*
X80119697Y-84157856D01*
X80713593Y-84142071D01*
X81302535Y-84116242D01*
X81885981Y-84080406D01*
X82463389Y-84034601D01*
X83034216Y-83978865D01*
X83537712Y-83920760D01*
X83574579Y-83916300D01*
X83606969Y-83912593D01*
X83632950Y-83909840D01*
X83650589Y-83908248D01*
X83657953Y-83908018D01*
X83658038Y-83908062D01*
G37*
G36*
X79911897Y-84520346D02*
G01*
X79912843Y-84522532D01*
X79915107Y-84531407D01*
X79919655Y-84549864D01*
X79925868Y-84575376D01*
X79933128Y-84605412D01*
X79934650Y-84611732D01*
X79943619Y-84647712D01*
X79953397Y-84684815D01*
X79962767Y-84718528D01*
X79970102Y-84743061D01*
X79986082Y-84793438D01*
X80183348Y-84797569D01*
X80546336Y-84809633D01*
X80916614Y-84830718D01*
X81293006Y-84860711D01*
X81674339Y-84899496D01*
X82059437Y-84946959D01*
X82447127Y-85002985D01*
X82684079Y-85041266D01*
X82753535Y-85053082D01*
X82825050Y-85065521D01*
X82897558Y-85078377D01*
X82969993Y-85091447D01*
X83041290Y-85104525D01*
X83110382Y-85117407D01*
X83176203Y-85129887D01*
X83237687Y-85141761D01*
X83293768Y-85152825D01*
X83343381Y-85162872D01*
X83385459Y-85171700D01*
X83418936Y-85179102D01*
X83442746Y-85184875D01*
X83455824Y-85188813D01*
X83457909Y-85189917D01*
X83456615Y-85196662D01*
X83450140Y-85212599D01*
X83439351Y-85236031D01*
X83425113Y-85265259D01*
X83408292Y-85298589D01*
X83389754Y-85334322D01*
X83370364Y-85370763D01*
X83350987Y-85406214D01*
X83332491Y-85438978D01*
X83319759Y-85460698D01*
X83298522Y-85495150D01*
X83273534Y-85534040D01*
X83246552Y-85574776D01*
X83219337Y-85614767D01*
X83193648Y-85651421D01*
X83171243Y-85682147D01*
X83156609Y-85701035D01*
X83142900Y-85717939D01*
X82994707Y-85665280D01*
X82740657Y-85579992D01*
X82476636Y-85501145D01*
X82202545Y-85428718D01*
X81918286Y-85362691D01*
X81623761Y-85303045D01*
X81318871Y-85249760D01*
X81003519Y-85202815D01*
X80677607Y-85162191D01*
X80351548Y-85128830D01*
X80291588Y-85123402D01*
X80243017Y-85119199D01*
X80204834Y-85116161D01*
X80176042Y-85114228D01*
X80155641Y-85113339D01*
X80142632Y-85113435D01*
X80136016Y-85114455D01*
X80134647Y-85115786D01*
X80137566Y-85122132D01*
X80145253Y-85136240D01*
X80156102Y-85155170D01*
X80157145Y-85156952D01*
X80170013Y-85181734D01*
X80175990Y-85202895D01*
X80175029Y-85224084D01*
X80167082Y-85248951D01*
X80155633Y-85274006D01*
X80128418Y-85317079D01*
X80089006Y-85360217D01*
X80037652Y-85403257D01*
X79974611Y-85446037D01*
X79900137Y-85488394D01*
X79814486Y-85530167D01*
X79717913Y-85571192D01*
X79645827Y-85598692D01*
X79603828Y-85613442D01*
X79552861Y-85630362D01*
X79496011Y-85648499D01*
X79436367Y-85666900D01*
X79377013Y-85684614D01*
X79321039Y-85700687D01*
X79272206Y-85713990D01*
X79245030Y-85721147D01*
X79221635Y-85727345D01*
X79205123Y-85731760D01*
X79199478Y-85733305D01*
X79192038Y-85731247D01*
X79180545Y-85721251D01*
X79164135Y-85702432D01*
X79142979Y-85675275D01*
X79047593Y-85539176D01*
X78961060Y-85395715D01*
X78884056Y-85246359D01*
X78817261Y-85092576D01*
X78761353Y-84935833D01*
X78717010Y-84777597D01*
X78706062Y-84730045D01*
X78699480Y-84699940D01*
X78693660Y-84673327D01*
X78689236Y-84653107D01*
X78686851Y-84642220D01*
X78686264Y-84638005D01*
X78687580Y-84634753D01*
X78692273Y-84632279D01*
X78701819Y-84630400D01*
X78717693Y-84628932D01*
X78741371Y-84627692D01*
X78774329Y-84626494D01*
X78818041Y-84625156D01*
X78825527Y-84624934D01*
X78963005Y-84620693D01*
X79088563Y-84616430D01*
X79202737Y-84612098D01*
X79306060Y-84607647D01*
X79399066Y-84603027D01*
X79482291Y-84598192D01*
X79556269Y-84593090D01*
X79621534Y-84587675D01*
X79678621Y-84581896D01*
X79728064Y-84575704D01*
X79770397Y-84569052D01*
X79806156Y-84561890D01*
X79835874Y-84554169D01*
X79860087Y-84545841D01*
X79879327Y-84536855D01*
X79894065Y-84527217D01*
X79906057Y-84519385D01*
X79911897Y-84520346D01*
G37*
G36*
X82145435Y-81871864D02*
G01*
X82160116Y-81877095D01*
X82183779Y-81887430D01*
X82214529Y-81901903D01*
X82250475Y-81919550D01*
X82289721Y-81939404D01*
X82330375Y-81960500D01*
X82370542Y-81981873D01*
X82408330Y-82002558D01*
X82441845Y-82021588D01*
X82459027Y-82031757D01*
X82495374Y-82054352D01*
X82535988Y-82080671D01*
X82578376Y-82108999D01*
X82620042Y-82137623D01*
X82658489Y-82164829D01*
X82691221Y-82188904D01*
X82715080Y-82207584D01*
X82733096Y-82222447D01*
X82683945Y-82270494D01*
X82575434Y-82369842D01*
X82457495Y-82464878D01*
X82329905Y-82555700D01*
X82192444Y-82642408D01*
X82044891Y-82725101D01*
X81887026Y-82803878D01*
X81718626Y-82878838D01*
X81539472Y-82950080D01*
X81349342Y-83017702D01*
X81148015Y-83081805D01*
X80935271Y-83142488D01*
X80710888Y-83199848D01*
X80505155Y-83247321D01*
X80455327Y-83258143D01*
X80402650Y-83269341D01*
X80350507Y-83280212D01*
X80302280Y-83290056D01*
X80261352Y-83298168D01*
X80246734Y-83300969D01*
X80211785Y-83307634D01*
X80180569Y-83313708D01*
X80155384Y-83318736D01*
X80138529Y-83322260D01*
X80132908Y-83323590D01*
X80126227Y-83330109D01*
X80115813Y-83345695D01*
X80102672Y-83368296D01*
X80087813Y-83395860D01*
X80072242Y-83426335D01*
X80056966Y-83457667D01*
X80042993Y-83487805D01*
X80031330Y-83514696D01*
X80022983Y-83536287D01*
X80018961Y-83550527D01*
X80019309Y-83555076D01*
X80026276Y-83555362D01*
X80044094Y-83554249D01*
X80071262Y-83551904D01*
X80106274Y-83548489D01*
X80147627Y-83544168D01*
X80193817Y-83539108D01*
X80243341Y-83533471D01*
X80294695Y-83527422D01*
X80346375Y-83521126D01*
X80396878Y-83514747D01*
X80439771Y-83509112D01*
X80757872Y-83461946D01*
X81066838Y-83407040D01*
X81366576Y-83344420D01*
X81656992Y-83274113D01*
X81937992Y-83196147D01*
X82209483Y-83110548D01*
X82471372Y-83017343D01*
X82723564Y-82916559D01*
X82965966Y-82808222D01*
X83093620Y-82746159D01*
X83191279Y-82697268D01*
X83250275Y-82785831D01*
X83302112Y-82866064D01*
X83347505Y-82941799D01*
X83388912Y-83017248D01*
X83412680Y-83063753D01*
X83431531Y-83102518D01*
X83449701Y-83141602D01*
X83466489Y-83179318D01*
X83481196Y-83213980D01*
X83493124Y-83243901D01*
X83501573Y-83267394D01*
X83505843Y-83282773D01*
X83505720Y-83288161D01*
X83498365Y-83291242D01*
X83480605Y-83297259D01*
X83454014Y-83305741D01*
X83420164Y-83316217D01*
X83380630Y-83328218D01*
X83336986Y-83341272D01*
X83290805Y-83354908D01*
X83243662Y-83368657D01*
X83197129Y-83382047D01*
X83152781Y-83394608D01*
X83112191Y-83405869D01*
X83111161Y-83406151D01*
X82800515Y-83486008D01*
X82480486Y-83558236D01*
X82151594Y-83622758D01*
X81814357Y-83679496D01*
X81469295Y-83728373D01*
X81116929Y-83769313D01*
X80757777Y-83802238D01*
X80392359Y-83827071D01*
X80212485Y-83836203D01*
X80166028Y-83838326D01*
X80118724Y-83840529D01*
X80073697Y-83842662D01*
X80034073Y-83844578D01*
X80002976Y-83846128D01*
X79996845Y-83846443D01*
X79924427Y-83850208D01*
X79918199Y-83876030D01*
X79914335Y-83889494D01*
X79911654Y-83894129D01*
X79911068Y-83892511D01*
X79905673Y-83878752D01*
X79893010Y-83859834D01*
X79875395Y-83838553D01*
X79855145Y-83817705D01*
X79834574Y-83800084D01*
X79834384Y-83799941D01*
X79789603Y-83769420D01*
X79737279Y-83739837D01*
X79676330Y-83710694D01*
X79605676Y-83681492D01*
X79524237Y-83651735D01*
X79480811Y-83637046D01*
X79398073Y-83610990D01*
X79305261Y-83584099D01*
X79204671Y-83556963D01*
X79098601Y-83530170D01*
X78989348Y-83504312D01*
X78879211Y-83479977D01*
X78823860Y-83468428D01*
X78796279Y-83462679D01*
X78773554Y-83457728D01*
X78758245Y-83454146D01*
X78752940Y-83452584D01*
X78753673Y-83446016D01*
X78758260Y-83429746D01*
X78766022Y-83405670D01*
X78776276Y-83375683D01*
X78788342Y-83341683D01*
X78801540Y-83305565D01*
X78815187Y-83269226D01*
X78828603Y-83234561D01*
X78841108Y-83203467D01*
X78849735Y-83183040D01*
X78907867Y-83059560D01*
X78974190Y-82936827D01*
X79047217Y-82817126D01*
X79125463Y-82702740D01*
X79207441Y-82595954D01*
X79291666Y-82499051D01*
X79301805Y-82488246D01*
X79346930Y-82440573D01*
X79447197Y-82493523D01*
X79568564Y-82559965D01*
X79678047Y-82624889D01*
X79776081Y-82688610D01*
X79863098Y-82751447D01*
X79939534Y-82813717D01*
X80005822Y-82875736D01*
X80062396Y-82937821D01*
X80072971Y-82950758D01*
X80113673Y-83006683D01*
X80144179Y-83060975D01*
X80165879Y-83116571D01*
X80180164Y-83176405D01*
X80180363Y-83177546D01*
X80187577Y-83219163D01*
X80282959Y-83091539D01*
X80347354Y-83077176D01*
X80405461Y-83063480D01*
X80471415Y-83046697D01*
X80541325Y-83027904D01*
X80611300Y-83008173D01*
X80677449Y-82988580D01*
X80735880Y-82970199D01*
X80741653Y-82968302D01*
X80912016Y-82907255D01*
X81071883Y-82839930D01*
X81221710Y-82765975D01*
X81361954Y-82685040D01*
X81493073Y-82596773D01*
X81615523Y-82500822D01*
X81729762Y-82396836D01*
X81836247Y-82284464D01*
X81935434Y-82163353D01*
X82027781Y-82033152D01*
X82093005Y-81929025D01*
X82108903Y-81902645D01*
X82120201Y-81885377D01*
X82128467Y-81875514D01*
X82135266Y-81871347D01*
X82142166Y-81871169D01*
X82145435Y-81871864D01*
G37*
%TO.C,R2*%
X109249941Y-86509853D02*
X109249941Y-86055725D01*
X110719941Y-86509853D02*
X110719941Y-86055725D01*
%TO.C,C4*%
X94087441Y-96996609D02*
X94087441Y-97277769D01*
X93067441Y-96996609D02*
X93067441Y-97277769D01*
%TO.C,C11*%
X101892980Y-91696000D02*
X101611820Y-91696000D01*
X101892980Y-90676000D02*
X101611820Y-90676000D01*
%TO.C,R5*%
X94870600Y-97077236D02*
X94870600Y-97531364D01*
X96340600Y-97077236D02*
X96340600Y-97531364D01*
%TO.C,C15*%
X112018941Y-91471209D02*
X112018941Y-91752369D01*
X110998941Y-91471209D02*
X110998941Y-91752369D01*
%TO.C,C19*%
X117109661Y-95839189D02*
X117390821Y-95839189D01*
X117109661Y-96859189D02*
X117390821Y-96859189D01*
%TO.C,R4*%
X97105800Y-97105736D02*
X97105800Y-97559864D01*
X98575800Y-97105736D02*
X98575800Y-97559864D01*
%TO.C,C18*%
X117109661Y-89743189D02*
X117390821Y-89743189D01*
X117109661Y-90763189D02*
X117390821Y-90763189D01*
%TO.C,D1*%
X96880800Y-103160300D02*
X98800800Y-103160300D01*
X98800800Y-103160300D02*
X98800800Y-100475300D01*
X96880800Y-100475300D02*
X96880800Y-103160300D01*
%TO.C,C14*%
X112892361Y-88561789D02*
X113173521Y-88561789D01*
X112892361Y-89581789D02*
X113173521Y-89581789D01*
%TO.C,F1*%
X84281600Y-94444736D02*
X84281600Y-95648864D01*
X86101600Y-94444736D02*
X86101600Y-95648864D01*
%TO.C,C2*%
X90955800Y-102303948D02*
X90955800Y-102826452D01*
X89485800Y-102303948D02*
X89485800Y-102826452D01*
%TO.C,C6*%
X97902520Y-89534400D02*
X98183680Y-89534400D01*
X97902520Y-88514400D02*
X98183680Y-88514400D01*
%TO.C,C1*%
X91771800Y-102811252D02*
X91771800Y-102288748D01*
X93241800Y-102811252D02*
X93241800Y-102288748D01*
%TO.C,U1*%
X85272800Y-104908400D02*
X85272800Y-103648400D01*
X85272800Y-98088400D02*
X85272800Y-99348400D01*
X81512800Y-104908400D02*
X85272800Y-104908400D01*
X79262800Y-98088400D02*
X85272800Y-98088400D01*
%TO.C,C3*%
X97156600Y-85366452D02*
X97156600Y-84843948D01*
X98626600Y-85366452D02*
X98626600Y-84843948D01*
%TO.C,C7*%
X94130400Y-84150780D02*
X94130400Y-83869620D01*
X95150400Y-84150780D02*
X95150400Y-83869620D01*
%TO.C,J1*%
X93201800Y-85051600D02*
X86731800Y-85051600D01*
X86731800Y-84229130D02*
X86731800Y-85051600D01*
X93201800Y-84229130D02*
X93201800Y-85051600D01*
X91800271Y-83411600D02*
X91943329Y-83411600D01*
X93070271Y-83411600D02*
X93201800Y-83411600D01*
X93201800Y-83411600D02*
X93201800Y-83614070D01*
X91746800Y-83215071D02*
X91746800Y-83358129D01*
X86731800Y-82959130D02*
X86731800Y-83614070D01*
X86731800Y-81521600D02*
X86731800Y-82344070D01*
X91746800Y-81521600D02*
X91746800Y-82088129D01*
X91746800Y-81521600D02*
X86731800Y-81521600D01*
X92506800Y-81521600D02*
X93266800Y-81521600D01*
X93266800Y-81521600D02*
X93266800Y-82651600D01*
%TO.C,D2*%
X94645600Y-103131800D02*
X96565600Y-103131800D01*
X96565600Y-103131800D02*
X96565600Y-100446800D01*
X94645600Y-100446800D02*
X94645600Y-103131800D01*
%TO.C,L2*%
X117087462Y-93807189D02*
X117413020Y-93807189D01*
X117087462Y-94827189D02*
X117413020Y-94827189D01*
%TO.C,C9*%
X104902941Y-86423369D02*
X104902941Y-86142209D01*
X105922941Y-86423369D02*
X105922941Y-86142209D01*
%TO.C,R1*%
X88368200Y-96979336D02*
X88368200Y-97433464D01*
X89838200Y-96979336D02*
X89838200Y-97433464D01*
%TO.C,U4*%
X103921441Y-94254789D02*
X103921441Y-93779789D01*
X104396441Y-89034789D02*
X103921441Y-89034789D01*
X104396441Y-94254789D02*
X103921441Y-94254789D01*
X108666441Y-89034789D02*
X109141441Y-89034789D01*
X108666441Y-94254789D02*
X109141441Y-94254789D01*
X109141441Y-89034789D02*
X109141441Y-89509789D01*
X109141441Y-94254789D02*
X109141441Y-93779789D01*
%TO.C,Y1*%
X102312941Y-97252789D02*
X102312941Y-100552789D01*
X102312941Y-100552789D02*
X106312941Y-100552789D01*
%TO.C,C21*%
X108462941Y-98928209D02*
X108462941Y-99209369D01*
X107442941Y-98928209D02*
X107442941Y-99209369D01*
%TO.C,C8*%
X112418941Y-97326209D02*
X112418941Y-97607369D01*
X111398941Y-97326209D02*
X111398941Y-97607369D01*
%TO.C,C5*%
X91950000Y-97002020D02*
X91950000Y-97283180D01*
X90930000Y-97002020D02*
X90930000Y-97283180D01*
%TO.C,C13*%
X101478441Y-85536041D02*
X101478441Y-85013537D01*
X102948441Y-85536041D02*
X102948441Y-85013537D01*
%TO.C,J2*%
X119708441Y-92847989D02*
X119708441Y-93347989D01*
X119708441Y-93347989D02*
X120208441Y-93097989D01*
X120208441Y-93097989D02*
X119708441Y-92847989D01*
%TO.C,C20*%
X100330941Y-99209369D02*
X100330941Y-98928209D01*
X101350941Y-99209369D02*
X101350941Y-98928209D01*
%TO.C,C10*%
X110386941Y-97313209D02*
X110386941Y-97594369D01*
X109366941Y-97313209D02*
X109366941Y-97594369D01*
%TO.C,R3*%
X104169877Y-101811789D02*
X104624005Y-101811789D01*
X104169877Y-103281789D02*
X104624005Y-103281789D01*
%TD*%
M02*
