M48
; DRILL file {KiCad 7.0.2} date Thu Apr 27 09:09:19 2023
; FORMAT={-:-/ absolute / inch / decimal}
; #@! TF.CreationDate,2023-04-27T09:09:19+02:00
; #@! TF.GenerationSoftware,Kicad,Pcbnew,7.0.2
; #@! TF.FileFunction,Plated,1,4,PTH
FMAT,2
INCH
; #@! TA.AperFunction,Plated,PTH,ViaDrill
T1C0.0118
; #@! TA.AperFunction,Plated,PTH,ViaDrill
T2C0.0157
; #@! TA.AperFunction,Plated,PTH,ViaDrill
T3C0.0236
; #@! TA.AperFunction,Plated,PTH,ComponentDrill
T4C0.0256
; #@! TA.AperFunction,Plated,PTH,ComponentDrill
T5C0.0276
%
G90
G05
T1
X3.094Y-4.006
X3.0946Y-3.0366
X3.096Y-3.896
X3.096Y-3.934
X3.0966Y-2.9266
X3.0966Y-2.9646
X3.146Y-3.594
X3.1466Y-2.6246
X3.198Y-4.026
X3.1986Y-3.0566
X3.25Y-3.682
X3.2506Y-2.7126
X3.346Y-4.008
X3.3466Y-3.0386
X3.354Y-3.638
X3.3546Y-2.6686
X3.376Y-3.932
X3.3766Y-2.9626
X3.412Y-4.128
X3.4126Y-3.1586
X3.48Y-4.006
X3.4806Y-3.0366
X3.526Y-3.442
X3.5266Y-2.4726
X3.5347Y-3.7073
X3.5353Y-2.7378
X3.552Y-4.124
X3.5526Y-3.1546
X3.57Y-3.904
X3.5706Y-2.9346
X3.584Y-3.474
X3.5846Y-2.5046
X3.598Y-4.044
X3.5986Y-3.0746
X3.61Y-3.5549
X3.61Y-3.6549
X3.6105Y-2.5855
X3.6105Y-2.6855
X3.614Y-3.4729
X3.6145Y-2.5035
X3.63Y-3.904
X3.6306Y-2.9346
X3.64Y-4.122
X3.6406Y-3.1526
X3.642Y-3.958
X3.6426Y-2.9886
X3.65Y-3.744
X3.6506Y-2.7746
X3.6542Y-3.8943
X3.6547Y-2.9249
X3.71Y-3.5549
X3.71Y-3.6549
X3.7105Y-2.5855
X3.7105Y-2.6855
X3.7132Y-3.7562
X3.7138Y-2.7867
X3.714Y-4.0455
X3.7142Y-3.8943
X3.7146Y-3.076
X3.7147Y-2.9249
X3.7347Y-3.732
X3.7353Y-2.7626
X3.766Y-3.248
X3.7666Y-2.2786
X3.768Y-3.338
X3.7686Y-2.3686
X3.792Y-3.5049
X3.7925Y-2.5355
X3.804Y-3.2906
X3.804Y-3.4006
X3.8046Y-2.3212
X3.8046Y-2.4312
X3.808Y-4.05
X3.8086Y-3.0806
X3.86Y-3.6749
X3.8605Y-2.7055
X3.904Y-3.2906
X3.904Y-3.4006
X3.9046Y-2.3212
X3.9046Y-2.4312
X3.91Y-3.704
X3.9106Y-2.7346
X3.932Y-3.506
X3.9326Y-2.5366
X3.9702Y-3.8373
X3.9707Y-2.8678
X3.9742Y-3.2973
X3.9747Y-2.3278
X3.976Y-3.552
X3.9766Y-2.5826
X3.978Y-3.6788
X3.9786Y-2.7093
X3.998Y-3.704
X3.9986Y-2.7346
X4.0542Y-3.7053
X4.0547Y-2.7358
X4.068Y-3.598
X4.0686Y-2.6286
X4.0742Y-3.2973
X4.0747Y-2.3278
X4.0842Y-3.8473
X4.0847Y-2.8778
X4.1162Y-3.3193
X4.1167Y-2.3498
X4.1242Y-3.7873
X4.1247Y-2.8178
X4.1422Y-3.5593
X4.1422Y-3.6573
X4.1427Y-2.5898
X4.1427Y-2.6878
X4.1642Y-3.9773
X4.1647Y-3.0078
X4.1698Y-3.7849
X4.1703Y-2.8154
X4.1802Y-3.4713
X4.1807Y-2.5018
X4.1862Y-3.3213
X4.1867Y-2.3518
X4.2242Y-3.4713
X4.2247Y-2.5018
X4.2422Y-3.6573
X4.2427Y-2.6878
X4.2442Y-3.5613
X4.2447Y-2.5918
X4.258Y-3.992
X4.2586Y-3.0226
X4.2642Y-3.3373
X4.2647Y-2.3678
X4.2882Y-3.7273
X4.2887Y-2.7578
X4.3022Y-3.4773
X4.3027Y-2.5078
X4.324Y-4.006
X4.3246Y-3.0366
X4.3262Y-3.9173
X4.3267Y-2.9478
X4.3362Y-3.5733
X4.3367Y-2.6038
X4.3742Y-3.3273
X4.3742Y-3.9073
X4.3747Y-2.3578
X4.3747Y-2.9378
X4.3842Y-3.4773
X4.3847Y-2.5078
X4.3942Y-3.7473
X4.3947Y-2.7778
X4.4342Y-3.7473
X4.4342Y-3.9073
X4.4347Y-2.7778
X4.4347Y-2.9378
X4.5526Y-3.4333
X4.5532Y-2.4638
X4.6726Y-3.8333
X4.6732Y-2.8638
X4.6826Y-3.7633
X4.6832Y-2.7938
X4.7351Y-3.4993
X4.7356Y-2.5298
X4.7382Y-3.8273
X4.7387Y-2.8578
X4.8451Y-3.4493
X4.8456Y-2.4798
X4.8622Y-3.8753
X4.8627Y-2.9058
T2
X3.442Y-3.194
X3.4426Y-2.2246
X3.542Y-3.194
X3.5426Y-2.2246
X3.592Y-3.194
X3.5926Y-2.2246
X3.642Y-3.194
X3.6426Y-2.2246
X3.644Y-3.793
X3.6446Y-2.8236
X3.9642Y-3.3973
X3.9647Y-2.4278
X4.0842Y-3.4073
X4.0847Y-2.4378
X4.2742Y-3.4273
X4.2747Y-2.4578
X4.2842Y-3.7673
X4.2847Y-2.7978
T3
X4.4662Y-3.2813
X4.4662Y-3.3673
X4.4662Y-3.4533
X4.4667Y-2.3118
X4.4667Y-2.3978
X4.4667Y-2.4838
X4.4682Y-3.2033
X4.4682Y-3.8413
X4.4682Y-3.9253
X4.4682Y-4.0393
X4.4682Y-4.116
X4.4687Y-2.2338
X4.4687Y-2.8718
X4.4687Y-2.9558
X4.4687Y-3.0698
X4.4687Y-3.1466
X4.5362Y-3.1993
X4.5367Y-2.2298
X4.566Y-4.116
X4.5666Y-3.1466
X4.6282Y-3.1993
X4.6287Y-2.2298
X4.678Y-4.116
X4.6786Y-3.1466
X4.7342Y-3.1993
X4.7347Y-2.2298
X4.8102Y-4.116
X4.8107Y-3.1466
X4.8302Y-3.1993
X4.8307Y-2.2298
X4.9402Y-3.2973
X4.9402Y-3.4313
X4.9402Y-3.8973
X4.9402Y-4.0253
X4.9407Y-2.3278
X4.9407Y-2.4618
X4.9407Y-2.9278
X4.9407Y-3.0558
T4
X3.442Y-3.254
X3.442Y-3.304
X3.4426Y-2.2846
X3.4426Y-2.3346
X3.492Y-3.254
X3.492Y-3.304
X3.4926Y-2.2846
X3.4926Y-2.3346
X3.542Y-3.254
X3.542Y-3.304
X3.5426Y-2.2846
X3.5426Y-2.3346
X3.592Y-3.254
X3.592Y-3.304
X3.5926Y-2.2846
X3.5926Y-2.3346
X3.642Y-3.254
X3.642Y-3.304
X3.6426Y-2.2846
X3.6426Y-2.3346
T4
G00X3.1909Y-3.5495
M15
G01X3.2066Y-3.5495
M16
G05
G00X3.1909Y-3.7401
M15
G01X3.2066Y-3.7401
M16
G05
G00X3.1914Y-2.5801
M15
G01X3.2072Y-2.5801
M16
G05
G00X3.1914Y-2.7707
M15
G01X3.2072Y-2.7707
M16
G05
T5
G00X3.0708Y-3.5373
M15
G01X3.0905Y-3.5373
M16
G05
G00X3.0708Y-3.7523
M15
G01X3.0905Y-3.7523
M16
G05
G00X3.0713Y-2.5679
M15
G01X3.091Y-2.5679
M16
G05
G00X3.0713Y-2.7829
M15
G01X3.091Y-2.7829
M16
G05
T0
M30
