%TF.GenerationSoftware,KiCad,Pcbnew,7.0.2*%
%TF.CreationDate,2023-04-27T09:09:23+02:00*%
%TF.ProjectId,STM32_RF,53544d33-325f-4524-962e-6b696361645f,rev?*%
%TF.SameCoordinates,Original*%
%TF.FileFunction,Copper,L2,Inr*%
%TF.FilePolarity,Positive*%
%FSLAX46Y46*%
G04 Gerber Fmt 4.6, Leading zero omitted, Abs format (unit mm)*
G04 Created by KiCad (PCBNEW 7.0.2) date 2023-04-27 09:09:23*
%MOMM*%
%LPD*%
G01*
G04 APERTURE LIST*
%TA.AperFunction,ComponentPad*%
%ADD10R,1.000000X1.000000*%
%TD*%
%TA.AperFunction,ComponentPad*%
%ADD11O,1.000000X1.000000*%
%TD*%
%TA.AperFunction,ComponentPad*%
%ADD12O,1.700000X1.350000*%
%TD*%
%TA.AperFunction,ComponentPad*%
%ADD13O,1.500000X1.100000*%
%TD*%
%TA.AperFunction,ViaPad*%
%ADD14C,0.600000*%
%TD*%
%TA.AperFunction,ViaPad*%
%ADD15C,0.400000*%
%TD*%
%TA.AperFunction,ViaPad*%
%ADD16C,1.000000*%
%TD*%
%TA.AperFunction,ViaPad*%
%ADD17C,0.800000*%
%TD*%
G04 APERTURE END LIST*
D10*
%TO.N,+3.3V*%
%TO.C,J1*%
X92521251Y-58028014D03*
D11*
%TO.N,SWDIO*%
X92521251Y-59298014D03*
%TO.N,GND*%
X91251251Y-58028014D03*
%TO.N,SWCLK*%
X91251251Y-59298014D03*
%TO.N,GND*%
X89981251Y-58028014D03*
%TO.N,unconnected-(J1-Pin_b6-Pad6)*%
X89981251Y-59298014D03*
%TO.N,unconnected-(J1-Pin_a8-Pad7)*%
X88711251Y-58028014D03*
%TO.N,unconnected-(J1-Pin_b8-Pad8)*%
X88711251Y-59298014D03*
%TO.N,GND*%
X87441251Y-58028014D03*
%TO.N,NRST*%
X87441251Y-59298014D03*
%TD*%
D12*
%TO.N,unconnected-(J3-Shield-Pad6)*%
%TO.C,J3*%
X78262051Y-65224814D03*
D13*
X81262051Y-65534814D03*
X81262051Y-70374814D03*
D12*
X78262051Y-70684814D03*
%TD*%
%TO.N,unconnected-(J3-Shield-Pad6)*%
%TO.C,J3*%
X78247600Y-89848400D03*
D13*
X81247600Y-90158400D03*
X81247600Y-94998400D03*
D12*
X78247600Y-95308400D03*
%TD*%
D11*
%TO.N,NRST*%
%TO.C,J1*%
X87426800Y-83921600D03*
%TO.N,GND*%
X87426800Y-82651600D03*
%TO.N,unconnected-(J1-Pin_b8-Pad8)*%
X88696800Y-83921600D03*
%TO.N,unconnected-(J1-Pin_a8-Pad7)*%
X88696800Y-82651600D03*
%TO.N,unconnected-(J1-Pin_b6-Pad6)*%
X89966800Y-83921600D03*
%TO.N,GND*%
X89966800Y-82651600D03*
%TO.N,SWCLK*%
X91236800Y-83921600D03*
%TO.N,GND*%
X91236800Y-82651600D03*
%TO.N,SWDIO*%
X92506800Y-83921600D03*
D10*
%TO.N,+3.3V*%
X92506800Y-82651600D03*
%TD*%
D14*
%TO.N,+3.3V*%
X96636051Y-61751614D03*
D15*
%TO.N,DR*%
X101055651Y-68817388D03*
%TO.N,SPI3_MISO*%
X99328451Y-69458014D03*
D14*
%TO.N,GND*%
X112641892Y-74621203D03*
D15*
%TO.N,SPI3_SCK*%
X104767892Y-71573203D03*
D16*
%TO.N,GND*%
X125494292Y-62530803D03*
D14*
X102989892Y-69490403D03*
X109844051Y-77128814D03*
X100957892Y-59127203D03*
D16*
X125494292Y-59127203D03*
D17*
X91251251Y-56504014D03*
D14*
X106342692Y-59736803D03*
X111371892Y-63699203D03*
X105783892Y-76399203D03*
D16*
X122192292Y-79922814D03*
X113454692Y-58720803D03*
X115232692Y-56638003D03*
X113505492Y-79922814D03*
D14*
X107815892Y-65832803D03*
X103497892Y-59127203D03*
X96636051Y-58957614D03*
X106190292Y-63546803D03*
X111117892Y-59889203D03*
D16*
X113505492Y-72944803D03*
D14*
X94353892Y-74291603D03*
X94247551Y-68210814D03*
X92216451Y-74538014D03*
X118953192Y-70963603D03*
X96737651Y-78246414D03*
D15*
X89796451Y-69541214D03*
D14*
X94247551Y-65670814D03*
X90692451Y-74538014D03*
D16*
X113454692Y-63089603D03*
X125494292Y-77618403D03*
X113454692Y-60905203D03*
D15*
X101004851Y-65597214D03*
D14*
X107307892Y-63546803D03*
D16*
X122700292Y-56638003D03*
X113505492Y-77974003D03*
D14*
X120363492Y-72589203D03*
D17*
X89981251Y-56504014D03*
D14*
X91707551Y-65670814D03*
%TO.N,+3.3V*%
X99176051Y-61751614D03*
%TO.N,GND*%
X112641892Y-70557203D03*
X109289092Y-63699203D03*
D17*
%TO.N,+3.3V*%
X92572051Y-71719214D03*
D14*
%TO.N,GND*%
X108323892Y-60143203D03*
X115651192Y-62581603D03*
X123079192Y-62988003D03*
D16*
X117569492Y-56638003D03*
D15*
%TO.N,SPI3_!CS*%
X94876236Y-70169214D03*
%TO.N,+3.3V*%
X96330351Y-64400814D03*
D14*
%TO.N,GND*%
X108933492Y-70049203D03*
X99176051Y-58957614D03*
X91707551Y-68210814D03*
D16*
X118835651Y-79922814D03*
D15*
%TO.N,SPI3_!CS*%
X105926270Y-71512383D03*
D14*
%TO.N,GND*%
X94350051Y-78131214D03*
X111117892Y-74621203D03*
X104564692Y-59686003D03*
D16*
X113505492Y-75078403D03*
D14*
X105225092Y-65782003D03*
X107765092Y-68271203D03*
X100856292Y-72843203D03*
X105225092Y-68271203D03*
X118699192Y-72741603D03*
D16*
X120261892Y-56638003D03*
D14*
X92829892Y-74291603D03*
X120285192Y-64258003D03*
D15*
%TO.N,DR*%
X98057551Y-68718814D03*
D14*
%TO.N,GND*%
X103751892Y-73097203D03*
D17*
%TO.N,+3.3V*%
X92521251Y-56504014D03*
D14*
%TO.N,GND*%
X111625892Y-70557203D03*
X95670851Y-57875614D03*
D17*
%TO.N,+3.3V*%
X108831892Y-71065203D03*
X108577892Y-62429203D03*
D16*
%TO.N,GND*%
X113505492Y-56739603D03*
D15*
%TO.N,SWCLK*%
X91048051Y-63616014D03*
%TO.N,SPI3_MISO*%
X101563651Y-69458014D03*
D16*
%TO.N,GND*%
X115990851Y-79922814D03*
D17*
X87441251Y-56504014D03*
D14*
X110152692Y-66137603D03*
X123513092Y-73808403D03*
D15*
%TO.N,SPI3_SCK*%
X94330051Y-70783429D03*
D17*
%TO.N,+3.3V*%
X103751892Y-61921203D03*
D15*
%TO.N,GND*%
X99887251Y-64428814D03*
%TO.N,NRST*%
X92724451Y-70474014D03*
D14*
%TO.N,GND*%
X78652851Y-75300014D03*
D15*
%TO.N,+5V*%
X79922851Y-66664014D03*
D14*
%TO.N,+3.3V*%
X86679251Y-80227614D03*
%TO.N,GND*%
X109898692Y-74875203D03*
X91403651Y-78094014D03*
D15*
%TO.N,SWDIO*%
X91809151Y-63588014D03*
D14*
%TO.N,+3.3V*%
X85002851Y-77179614D03*
%TO.N,GND*%
X90235251Y-80126014D03*
%TO.N,+3.3V*%
X81243651Y-77636814D03*
%TO.N,GND*%
X82564451Y-68899214D03*
%TO.N,+5V*%
X85206051Y-67781614D03*
%TO.N,GND*%
X92521251Y-75909614D03*
%TO.N,+3.3V*%
X85764851Y-75249214D03*
D15*
%TO.N,GND*%
X89574851Y-62803214D03*
D17*
%TO.N,+3.3V*%
X100703892Y-61667203D03*
D15*
X103341651Y-66765614D03*
D14*
X78602051Y-77128814D03*
%TO.N,GND*%
X78652851Y-74334814D03*
%TO.N,+3.3V*%
X88406451Y-77128814D03*
%TO.N,GND*%
X108167651Y-76773214D03*
D15*
%TO.N,NRST*%
X95721651Y-60161614D03*
D16*
%TO.N,GND*%
X125494292Y-74367203D03*
D14*
%TO.N,+3.3V*%
X92470451Y-80075214D03*
D15*
%TO.N,GND*%
X99872800Y-89052400D03*
D14*
%TO.N,+3.3V*%
X92456000Y-104698800D03*
D15*
%TO.N,NRST*%
X92710000Y-95097600D03*
%TO.N,GND*%
X89560400Y-87426800D03*
D14*
X108153200Y-101396800D03*
X91389200Y-102717600D03*
X92506800Y-100533200D03*
X90220800Y-104749600D03*
%TO.N,+3.3V*%
X85750400Y-99872800D03*
X81229200Y-102260400D03*
X78587600Y-101752400D03*
X84988400Y-101803200D03*
X86664800Y-104851200D03*
X88392000Y-101752400D03*
%TO.N,GND*%
X78638400Y-99923600D03*
X78638400Y-98958400D03*
X82550000Y-93522800D03*
%TO.N,+5V*%
X85191600Y-92405200D03*
D15*
X79908400Y-91287600D03*
%TO.N,SPI3_MISO*%
X101549200Y-94081600D03*
X99314000Y-94081600D03*
%TO.N,SPI3_!CS*%
X94861785Y-94792800D03*
%TO.N,SPI3_SCK*%
X94315600Y-95407015D03*
%TO.N,DR*%
X101041200Y-93440974D03*
%TO.N,GND*%
X89782000Y-94164800D03*
X100990400Y-90220800D03*
%TO.N,+3.3V*%
X103327200Y-91389200D03*
D14*
X96621600Y-86375200D03*
D17*
X92506800Y-81127600D03*
X108563441Y-87052789D03*
X103737441Y-86544789D03*
X108817441Y-95688789D03*
D15*
X96315900Y-89024400D03*
D14*
X99161600Y-86375200D03*
D17*
X92557600Y-96342800D03*
X100689441Y-86290789D03*
D16*
%TO.N,GND*%
X117555041Y-81261589D03*
D14*
X123064741Y-87611589D03*
X115636741Y-87205189D03*
X91693100Y-90294400D03*
X94233100Y-92834400D03*
X103737441Y-97720789D03*
X92202000Y-99161600D03*
D16*
X113491041Y-97568389D03*
D14*
X105210641Y-92894789D03*
D16*
X120247441Y-81261589D03*
X113440241Y-85528789D03*
D14*
X111611441Y-95180789D03*
X123498641Y-98431989D03*
X100841841Y-97466789D03*
X107750641Y-92894789D03*
X111103441Y-99244789D03*
X103483441Y-83750789D03*
X96621600Y-83581200D03*
X111103441Y-84512789D03*
X110138241Y-90761189D03*
X92815441Y-98915189D03*
D16*
X118821200Y-104546400D03*
D14*
X106175841Y-88170389D03*
D16*
X113491041Y-102597589D03*
D14*
X107801441Y-90456389D03*
D16*
X113440241Y-83344389D03*
D14*
X108919041Y-94672789D03*
X107293441Y-88170389D03*
X91693100Y-92834400D03*
X90678000Y-99161600D03*
D16*
X113491041Y-104546400D03*
D14*
X118684741Y-97365189D03*
D16*
X122177841Y-104546400D03*
X115218241Y-81261589D03*
D14*
X112627441Y-95180789D03*
X99161600Y-83581200D03*
D16*
X125479841Y-98990789D03*
D14*
X94335600Y-102754800D03*
D16*
X113440241Y-87713189D03*
D14*
X106328241Y-84360389D03*
D16*
X113491041Y-99701989D03*
X125479841Y-102241989D03*
D14*
X109884241Y-99498789D03*
D16*
X113491041Y-81363189D03*
D14*
X95656400Y-82499200D03*
X96723200Y-102870000D03*
D17*
X91236800Y-81127600D03*
D14*
X104550241Y-84309589D03*
X120270741Y-88881589D03*
X111357441Y-88322789D03*
X94233100Y-90294400D03*
X109829600Y-101752400D03*
X94339441Y-98915189D03*
X102975441Y-94113989D03*
X109274641Y-88322789D03*
D16*
X125479841Y-83750789D03*
D14*
X100943441Y-83750789D03*
D17*
X87426800Y-81127600D03*
D16*
X122685841Y-81261589D03*
D14*
X105769441Y-101022789D03*
X118938741Y-95587189D03*
X108309441Y-84766789D03*
D16*
X125479841Y-87154389D03*
D17*
X89966800Y-81127600D03*
D14*
X105210641Y-90405589D03*
X112627441Y-99244789D03*
D16*
X115976400Y-104546400D03*
D14*
X120349041Y-97212789D03*
D15*
%TO.N,NRST*%
X95707200Y-84785200D03*
%TO.N,SPI3_SCK*%
X104753441Y-96196789D03*
%TO.N,SPI3_!CS*%
X105911819Y-96135969D03*
%TO.N,DR*%
X98043100Y-93342400D03*
%TO.N,SWDIO*%
X91794700Y-88211600D03*
%TO.N,SWCLK*%
X91033600Y-88239600D03*
%TD*%
%TA.AperFunction,Conductor*%
%TO.N,GND*%
G36*
X104434650Y-96820592D02*
G01*
X104503216Y-96856579D01*
X104668385Y-96897289D01*
X104668386Y-96897289D01*
X104838496Y-96897289D01*
X104838497Y-96897289D01*
X105003666Y-96856579D01*
X105072231Y-96820592D01*
X105129857Y-96806389D01*
X105689665Y-96806389D01*
X105719340Y-96809992D01*
X105826763Y-96836469D01*
X105826764Y-96836469D01*
X105996874Y-96836469D01*
X105996875Y-96836469D01*
X106104297Y-96809992D01*
X106133973Y-96806389D01*
X108591841Y-96806389D01*
X108658880Y-96826074D01*
X108704635Y-96878878D01*
X108715841Y-96930389D01*
X108715841Y-105064389D01*
X108696156Y-105131428D01*
X108643352Y-105177183D01*
X108591841Y-105188389D01*
X100102241Y-105188389D01*
X100035202Y-105168704D01*
X99989447Y-105115900D01*
X99978241Y-105064389D01*
X99978241Y-96930389D01*
X99997926Y-96863350D01*
X100050730Y-96817595D01*
X100102241Y-96806389D01*
X104377025Y-96806389D01*
X104434650Y-96820592D01*
G37*
%TD.AperFunction*%
%TD*%
%TA.AperFunction,Conductor*%
%TO.N,GND*%
G36*
X91363251Y-80620874D02*
G01*
X91409006Y-80673678D01*
X91418950Y-80742836D01*
X91415478Y-80759124D01*
X91371043Y-80915289D01*
X91351371Y-81127600D01*
X91371043Y-81339910D01*
X91429396Y-81544994D01*
X91430400Y-81547010D01*
X91431120Y-81551053D01*
X91432539Y-81556039D01*
X91432034Y-81556182D01*
X91442656Y-81615796D01*
X91420197Y-81669683D01*
X91421697Y-81670608D01*
X91415886Y-81680027D01*
X91415778Y-81680289D01*
X91415611Y-81680473D01*
X91321986Y-81832265D01*
X91266800Y-81998802D01*
X91256619Y-82098458D01*
X91256617Y-82098478D01*
X91256300Y-82101591D01*
X91256300Y-82104738D01*
X91256300Y-82104739D01*
X91256300Y-82326600D01*
X91208364Y-82326600D01*
X91123929Y-82341488D01*
X91024671Y-82398795D01*
X90950999Y-82486593D01*
X90911800Y-82594294D01*
X90911800Y-82708906D01*
X90913512Y-82713610D01*
X90807465Y-82742026D01*
X90654204Y-82813493D01*
X90585127Y-82823985D01*
X90549396Y-82813493D01*
X90396134Y-82742026D01*
X90290087Y-82713610D01*
X90291800Y-82708906D01*
X90291800Y-82594294D01*
X90252601Y-82486593D01*
X90178929Y-82398795D01*
X90079671Y-82341488D01*
X89995236Y-82326600D01*
X89938364Y-82326600D01*
X89905865Y-82332330D01*
X89876375Y-82222270D01*
X89783902Y-82023962D01*
X89739225Y-81960156D01*
X89716898Y-81893950D01*
X89716800Y-81889033D01*
X89716800Y-81682439D01*
X90216800Y-81682439D01*
X90216800Y-82401600D01*
X90986799Y-82401600D01*
X90986800Y-81682439D01*
X90986798Y-81682439D01*
X90852265Y-81723249D01*
X90667770Y-81821864D01*
X90666923Y-81820279D01*
X90616154Y-81841841D01*
X90547287Y-81830050D01*
X90528220Y-81817796D01*
X90351334Y-81723249D01*
X90216801Y-81682439D01*
X90216800Y-81682439D01*
X89716800Y-81682439D01*
X89716799Y-81682439D01*
X89618276Y-81712326D01*
X89548409Y-81712949D01*
X89511158Y-81695240D01*
X89324439Y-81564498D01*
X89126131Y-81472025D01*
X88914774Y-81415392D01*
X88696799Y-81396322D01*
X88478825Y-81415392D01*
X88267468Y-81472025D01*
X88069160Y-81564498D01*
X87882440Y-81695240D01*
X87816233Y-81717567D01*
X87775321Y-81712326D01*
X87676800Y-81682439D01*
X87676799Y-81682439D01*
X87676800Y-81889033D01*
X87657115Y-81956072D01*
X87654375Y-81960156D01*
X87609698Y-82023961D01*
X87517225Y-82222268D01*
X87487733Y-82332330D01*
X87455236Y-82326600D01*
X87398364Y-82326600D01*
X87313929Y-82341488D01*
X87214671Y-82398795D01*
X87140999Y-82486593D01*
X87101800Y-82594294D01*
X87101800Y-82708906D01*
X87103512Y-82713610D01*
X86997468Y-82742025D01*
X86799161Y-82834498D01*
X86735356Y-82879175D01*
X86669150Y-82901502D01*
X86664233Y-82901600D01*
X86457640Y-82901600D01*
X86487526Y-83000121D01*
X86488149Y-83069988D01*
X86470440Y-83107240D01*
X86339698Y-83293960D01*
X86247225Y-83492268D01*
X86190592Y-83703625D01*
X86171522Y-83921600D01*
X86190592Y-84139574D01*
X86247225Y-84350931D01*
X86297061Y-84457805D01*
X86339698Y-84549239D01*
X86465202Y-84728477D01*
X86619923Y-84883198D01*
X86799161Y-85008702D01*
X86997470Y-85101175D01*
X87208823Y-85157807D01*
X87426800Y-85176877D01*
X87644777Y-85157807D01*
X87856130Y-85101175D01*
X88009396Y-85029705D01*
X88078472Y-85019214D01*
X88114202Y-85029705D01*
X88267470Y-85101175D01*
X88478823Y-85157807D01*
X88696800Y-85176877D01*
X88914777Y-85157807D01*
X89126130Y-85101175D01*
X89279396Y-85029705D01*
X89348471Y-85019214D01*
X89384204Y-85029706D01*
X89537470Y-85101175D01*
X89748823Y-85157807D01*
X89966800Y-85176877D01*
X90184777Y-85157807D01*
X90396130Y-85101175D01*
X90549396Y-85029705D01*
X90618472Y-85019214D01*
X90654202Y-85029705D01*
X90807470Y-85101175D01*
X91018823Y-85157807D01*
X91236800Y-85176877D01*
X91454777Y-85157807D01*
X91666130Y-85101175D01*
X91819396Y-85029705D01*
X91888472Y-85019214D01*
X91924202Y-85029705D01*
X92077470Y-85101175D01*
X92288823Y-85157807D01*
X92434141Y-85170520D01*
X92506799Y-85176877D01*
X92506799Y-85176876D01*
X92506800Y-85176877D01*
X92724777Y-85157807D01*
X92936130Y-85101175D01*
X93134439Y-85008702D01*
X93313677Y-84883198D01*
X93411675Y-84785200D01*
X94752101Y-84785200D01*
X94770453Y-84971532D01*
X94824803Y-85150700D01*
X94904714Y-85300203D01*
X94913064Y-85315825D01*
X95031843Y-85460557D01*
X95176575Y-85579336D01*
X95341699Y-85667596D01*
X95520869Y-85721947D01*
X95581994Y-85727967D01*
X95646782Y-85754127D01*
X95687141Y-85811162D01*
X95690258Y-85880962D01*
X95679201Y-85909820D01*
X95646368Y-85971246D01*
X95646368Y-85971247D01*
X95586299Y-86169267D01*
X95566017Y-86375200D01*
X95586299Y-86581132D01*
X95602761Y-86635400D01*
X95646368Y-86779154D01*
X95743915Y-86961650D01*
X95795208Y-87024152D01*
X95875189Y-87121610D01*
X95932699Y-87168806D01*
X96035150Y-87252885D01*
X96217646Y-87350432D01*
X96415666Y-87410500D01*
X96621600Y-87430783D01*
X96827534Y-87410500D01*
X97025554Y-87350432D01*
X97208050Y-87252885D01*
X97368010Y-87121610D01*
X97499285Y-86961650D01*
X97596832Y-86779154D01*
X97656900Y-86581134D01*
X97677183Y-86375200D01*
X98106017Y-86375200D01*
X98126299Y-86581132D01*
X98142761Y-86635400D01*
X98186368Y-86779154D01*
X98283915Y-86961650D01*
X98335208Y-87024152D01*
X98415189Y-87121610D01*
X98472699Y-87168806D01*
X98575150Y-87252885D01*
X98757646Y-87350432D01*
X98955666Y-87410500D01*
X99161600Y-87430783D01*
X99367534Y-87410500D01*
X99565554Y-87350432D01*
X99748050Y-87252885D01*
X99817221Y-87196117D01*
X99881527Y-87168806D01*
X99950395Y-87180597D01*
X99979422Y-87200336D01*
X99993139Y-87212841D01*
X100174422Y-87325087D01*
X100373243Y-87402110D01*
X100582831Y-87441289D01*
X100582833Y-87441289D01*
X100796049Y-87441289D01*
X100796051Y-87441289D01*
X101005639Y-87402110D01*
X101204460Y-87325087D01*
X101385743Y-87212841D01*
X101543313Y-87069196D01*
X101671807Y-86899044D01*
X101671807Y-86899042D01*
X101671809Y-86899041D01*
X101719521Y-86803219D01*
X101766846Y-86708178D01*
X101813335Y-86544788D01*
X102582012Y-86544788D01*
X102601684Y-86757099D01*
X102660036Y-86962179D01*
X102755072Y-87153041D01*
X102883567Y-87323194D01*
X102883569Y-87323196D01*
X103041139Y-87466841D01*
X103222422Y-87579087D01*
X103421243Y-87656110D01*
X103630831Y-87695289D01*
X103630833Y-87695289D01*
X103844049Y-87695289D01*
X103844051Y-87695289D01*
X104053639Y-87656110D01*
X104252460Y-87579087D01*
X104433743Y-87466841D01*
X104591313Y-87323196D01*
X104719807Y-87153044D01*
X104719807Y-87153042D01*
X104719809Y-87153041D01*
X104769728Y-87052788D01*
X107408012Y-87052788D01*
X107427684Y-87265099D01*
X107486036Y-87470179D01*
X107581072Y-87661041D01*
X107709567Y-87831194D01*
X107709569Y-87831196D01*
X107867139Y-87974841D01*
X108048422Y-88087087D01*
X108247243Y-88164110D01*
X108456831Y-88203289D01*
X108456833Y-88203289D01*
X108670049Y-88203289D01*
X108670051Y-88203289D01*
X108879639Y-88164110D01*
X109078460Y-88087087D01*
X109259743Y-87974841D01*
X109417313Y-87831196D01*
X109545807Y-87661044D01*
X109545807Y-87661042D01*
X109545809Y-87661041D01*
X109607950Y-87536243D01*
X109640846Y-87470178D01*
X109699197Y-87265099D01*
X109718870Y-87052789D01*
X109699197Y-86840479D01*
X109640846Y-86635400D01*
X109595728Y-86544789D01*
X109545809Y-86444536D01*
X109417314Y-86274383D01*
X109259742Y-86130736D01*
X109078458Y-86018490D01*
X108879639Y-85941468D01*
X108853255Y-85936536D01*
X108670051Y-85902289D01*
X108456831Y-85902289D01*
X108317105Y-85928408D01*
X108247242Y-85941468D01*
X108048423Y-86018490D01*
X107867139Y-86130736D01*
X107709567Y-86274383D01*
X107581072Y-86444536D01*
X107486036Y-86635398D01*
X107427684Y-86840478D01*
X107408012Y-87052788D01*
X104769728Y-87052788D01*
X104814846Y-86962178D01*
X104873197Y-86757099D01*
X104892870Y-86544789D01*
X104873197Y-86332479D01*
X104814846Y-86127400D01*
X104814455Y-86126616D01*
X104719809Y-85936536D01*
X104591314Y-85766383D01*
X104562701Y-85740299D01*
X104433743Y-85622737D01*
X104433742Y-85622736D01*
X104312306Y-85547546D01*
X104252460Y-85510491D01*
X104252458Y-85510490D01*
X104053639Y-85433468D01*
X103844051Y-85394289D01*
X103630831Y-85394289D01*
X103491105Y-85420408D01*
X103421242Y-85433468D01*
X103222423Y-85510490D01*
X103041139Y-85622736D01*
X102883567Y-85766383D01*
X102755072Y-85936536D01*
X102660036Y-86127398D01*
X102601684Y-86332478D01*
X102582012Y-86544788D01*
X101813335Y-86544788D01*
X101825197Y-86503099D01*
X101844870Y-86290789D01*
X101825197Y-86078479D01*
X101766846Y-85873400D01*
X101766455Y-85872616D01*
X101671809Y-85682536D01*
X101543314Y-85512383D01*
X101541237Y-85510490D01*
X101385743Y-85368737D01*
X101385742Y-85368736D01*
X101204458Y-85256490D01*
X101005639Y-85179468D01*
X100973007Y-85173368D01*
X100796051Y-85140289D01*
X100582831Y-85140289D01*
X100443105Y-85166408D01*
X100373242Y-85179468D01*
X100174423Y-85256490D01*
X99993136Y-85368738D01*
X99878236Y-85473484D01*
X99815432Y-85504101D01*
X99746045Y-85495903D01*
X99736245Y-85491205D01*
X99565556Y-85399969D01*
X99565555Y-85399968D01*
X99565554Y-85399968D01*
X99462595Y-85368736D01*
X99367532Y-85339899D01*
X99184097Y-85321832D01*
X99161600Y-85319617D01*
X99161599Y-85319617D01*
X98955667Y-85339899D01*
X98757643Y-85399969D01*
X98575151Y-85497514D01*
X98415189Y-85628789D01*
X98283914Y-85788751D01*
X98186369Y-85971243D01*
X98126299Y-86169267D01*
X98106017Y-86375200D01*
X97677183Y-86375200D01*
X97656900Y-86169266D01*
X97596832Y-85971246D01*
X97499285Y-85788750D01*
X97412118Y-85682536D01*
X97368010Y-85628789D01*
X97269013Y-85547546D01*
X97208050Y-85497515D01*
X97025554Y-85399968D01*
X96922595Y-85368736D01*
X96827532Y-85339899D01*
X96690108Y-85326364D01*
X96625321Y-85300203D01*
X96584963Y-85243168D01*
X96581846Y-85173368D01*
X96586054Y-85162388D01*
X96586051Y-85162387D01*
X96592754Y-85140289D01*
X96643947Y-84971531D01*
X96662299Y-84785200D01*
X96643947Y-84598869D01*
X96589596Y-84419699D01*
X96501336Y-84254575D01*
X96382557Y-84109843D01*
X96237825Y-83991064D01*
X96237824Y-83991063D01*
X96072700Y-83902803D01*
X95893532Y-83848453D01*
X95707200Y-83830101D01*
X95520867Y-83848453D01*
X95341699Y-83902803D01*
X95176575Y-83991063D01*
X95031843Y-84109843D01*
X94913063Y-84254575D01*
X94824803Y-84419699D01*
X94770453Y-84598867D01*
X94752101Y-84785200D01*
X93411675Y-84785200D01*
X93468398Y-84728477D01*
X93593902Y-84549239D01*
X93686375Y-84350930D01*
X93743007Y-84139577D01*
X93762077Y-83921600D01*
X93743007Y-83703623D01*
X93695164Y-83525071D01*
X93696827Y-83455223D01*
X93697181Y-83454132D01*
X93746799Y-83304397D01*
X93757300Y-83201609D01*
X93757299Y-82101592D01*
X93746799Y-81998803D01*
X93691614Y-81832266D01*
X93617635Y-81712326D01*
X93591903Y-81670607D01*
X93594936Y-81668735D01*
X93573037Y-81628630D01*
X93578021Y-81558938D01*
X93583206Y-81546995D01*
X93584205Y-81544989D01*
X93642556Y-81339910D01*
X93662229Y-81127600D01*
X93642556Y-80915290D01*
X93637241Y-80896610D01*
X93598123Y-80759123D01*
X93598709Y-80689256D01*
X93636976Y-80630797D01*
X93700773Y-80602307D01*
X93717389Y-80601189D01*
X123099352Y-80601189D01*
X124056415Y-80601662D01*
X124056505Y-80601689D01*
X124104186Y-80601689D01*
X124112298Y-80601955D01*
X124193424Y-80607273D01*
X124373968Y-80620171D01*
X124389292Y-80622235D01*
X124505099Y-80645272D01*
X124646893Y-80676120D01*
X124660357Y-80679858D01*
X124777196Y-80719521D01*
X124780604Y-80720735D01*
X124909572Y-80768840D01*
X124921043Y-80773793D01*
X125033977Y-80829487D01*
X125038492Y-80831832D01*
X125157122Y-80896610D01*
X125166550Y-80902320D01*
X125272218Y-80972926D01*
X125277608Y-80976740D01*
X125356714Y-81035959D01*
X125384895Y-81057056D01*
X125392342Y-81063094D01*
X125488231Y-81147187D01*
X125494154Y-81152735D01*
X125588688Y-81247271D01*
X125594235Y-81253193D01*
X125678320Y-81349075D01*
X125684358Y-81356523D01*
X125764660Y-81463795D01*
X125768496Y-81469215D01*
X125839089Y-81574866D01*
X125844818Y-81584329D01*
X125909561Y-81702897D01*
X125911941Y-81707481D01*
X125967610Y-81820368D01*
X125972579Y-81831876D01*
X125976296Y-81841841D01*
X126020665Y-81960799D01*
X126021867Y-81964171D01*
X126059424Y-82074809D01*
X126061548Y-82081067D01*
X126065294Y-82094566D01*
X126096127Y-82236300D01*
X126119173Y-82352159D01*
X126121235Y-82367474D01*
X126133897Y-82544505D01*
X126139471Y-82629525D01*
X126139736Y-82637744D01*
X126121483Y-103108576D01*
X126121437Y-103108732D01*
X126121437Y-103156308D01*
X126121172Y-103164416D01*
X126115964Y-103243890D01*
X126102915Y-103426337D01*
X126100849Y-103441678D01*
X126078234Y-103555387D01*
X126046927Y-103699310D01*
X126043187Y-103712783D01*
X126004038Y-103828119D01*
X126002800Y-103831596D01*
X125954147Y-103962042D01*
X125949179Y-103973550D01*
X125894128Y-104085189D01*
X125891747Y-104089774D01*
X125826282Y-104209667D01*
X125820553Y-104219129D01*
X125750741Y-104323616D01*
X125746905Y-104329038D01*
X125665683Y-104437540D01*
X125659645Y-104444986D01*
X125576519Y-104539778D01*
X125570972Y-104545702D01*
X125475254Y-104641423D01*
X125469332Y-104646969D01*
X125374675Y-104729985D01*
X125367226Y-104736025D01*
X125258412Y-104817485D01*
X125252995Y-104821319D01*
X125148931Y-104890858D01*
X125139465Y-104896589D01*
X125018818Y-104962470D01*
X125014236Y-104964850D01*
X124903449Y-105019488D01*
X124891937Y-105024458D01*
X124760006Y-105073668D01*
X124756535Y-105074905D01*
X124642787Y-105113523D01*
X124629284Y-105117271D01*
X124482268Y-105149255D01*
X124371705Y-105171252D01*
X124356383Y-105173315D01*
X124163473Y-105187116D01*
X124094988Y-105191608D01*
X124086885Y-105191874D01*
X109449450Y-105193069D01*
X109382409Y-105173390D01*
X109336650Y-105120590D01*
X109325441Y-105069073D01*
X109325441Y-96796497D01*
X109345125Y-96729462D01*
X109384160Y-96691075D01*
X109513743Y-96610841D01*
X109671313Y-96467196D01*
X109799807Y-96297044D01*
X109799807Y-96297042D01*
X109799809Y-96297041D01*
X109868487Y-96159114D01*
X109894846Y-96106178D01*
X109953197Y-95901099D01*
X109972870Y-95688789D01*
X109953197Y-95476479D01*
X109948682Y-95460612D01*
X109925485Y-95379084D01*
X109894846Y-95271400D01*
X109894455Y-95270616D01*
X109799809Y-95080536D01*
X109671314Y-94910383D01*
X109513742Y-94766736D01*
X109371644Y-94678753D01*
X109332460Y-94654491D01*
X109332458Y-94654490D01*
X109133639Y-94577468D01*
X109095074Y-94570259D01*
X108924051Y-94538289D01*
X108710831Y-94538289D01*
X108603793Y-94558298D01*
X108501242Y-94577468D01*
X108302423Y-94654490D01*
X108121139Y-94766736D01*
X107963567Y-94910383D01*
X107835072Y-95080536D01*
X107740036Y-95271398D01*
X107681684Y-95476478D01*
X107662012Y-95688789D01*
X107681684Y-95901099D01*
X107740036Y-96106179D01*
X107835072Y-96297041D01*
X107872026Y-96345975D01*
X107896718Y-96411336D01*
X107882153Y-96479671D01*
X107832956Y-96529284D01*
X107772458Y-96544700D01*
X106948918Y-96540623D01*
X106881977Y-96520607D01*
X106836484Y-96467577D01*
X106826883Y-96398371D01*
X106830872Y-96380629D01*
X106836489Y-96362113D01*
X106848566Y-96322300D01*
X106866918Y-96135969D01*
X106848566Y-95949638D01*
X106794215Y-95770468D01*
X106705955Y-95605344D01*
X106587176Y-95460612D01*
X106442444Y-95341833D01*
X106442443Y-95341832D01*
X106277319Y-95253572D01*
X106098151Y-95199222D01*
X105911819Y-95180870D01*
X105725486Y-95199222D01*
X105546318Y-95253572D01*
X105381194Y-95341832D01*
X105362049Y-95357544D01*
X105297738Y-95384855D01*
X105228871Y-95373061D01*
X105224935Y-95371047D01*
X105199672Y-95357544D01*
X105118942Y-95314393D01*
X105118939Y-95314392D01*
X104939773Y-95260042D01*
X104753441Y-95241690D01*
X104567108Y-95260042D01*
X104387940Y-95314392D01*
X104222816Y-95402652D01*
X104078084Y-95521432D01*
X103959304Y-95666164D01*
X103871044Y-95831288D01*
X103816694Y-96010456D01*
X103798342Y-96196789D01*
X103817209Y-96388354D01*
X103804190Y-96457000D01*
X103756125Y-96507710D01*
X103693192Y-96524506D01*
X99063841Y-96501588D01*
X99063841Y-105064389D01*
X99044156Y-105131428D01*
X98991352Y-105177183D01*
X98939841Y-105188389D01*
X93572449Y-105188389D01*
X93505410Y-105168704D01*
X93459655Y-105115900D01*
X93449711Y-105046742D01*
X93453788Y-105028395D01*
X93491300Y-104904734D01*
X93511583Y-104698800D01*
X93491300Y-104492866D01*
X93431232Y-104294846D01*
X93333685Y-104112350D01*
X93268047Y-104032370D01*
X93202410Y-103952389D01*
X93050984Y-103828119D01*
X93042450Y-103821115D01*
X92859954Y-103723568D01*
X92760943Y-103693534D01*
X92661932Y-103663499D01*
X92478497Y-103645432D01*
X92456000Y-103643217D01*
X92455999Y-103643217D01*
X92250067Y-103663499D01*
X92052043Y-103723569D01*
X91869551Y-103821114D01*
X91709589Y-103952389D01*
X91578314Y-104112351D01*
X91480769Y-104294843D01*
X91420699Y-104492867D01*
X91400417Y-104698800D01*
X91420699Y-104904734D01*
X91458211Y-105028395D01*
X91458834Y-105098261D01*
X91421585Y-105157374D01*
X91358291Y-105186965D01*
X91339550Y-105188389D01*
X87823986Y-105188389D01*
X87756947Y-105168704D01*
X87711192Y-105115900D01*
X87700583Y-105052235D01*
X87709424Y-104962470D01*
X87720383Y-104851200D01*
X87700100Y-104645266D01*
X87640032Y-104447246D01*
X87542485Y-104264750D01*
X87467647Y-104173559D01*
X87411210Y-104104789D01*
X87313752Y-104024808D01*
X87251250Y-103973515D01*
X87068754Y-103875968D01*
X86969744Y-103845934D01*
X86870732Y-103815899D01*
X86664800Y-103795617D01*
X86458867Y-103815899D01*
X86260843Y-103875969D01*
X86078351Y-103973514D01*
X85918389Y-104104789D01*
X85787114Y-104264751D01*
X85689569Y-104447243D01*
X85629499Y-104645267D01*
X85609217Y-104851200D01*
X85629017Y-105052235D01*
X85615998Y-105120881D01*
X85567933Y-105171591D01*
X85505614Y-105188389D01*
X78658497Y-105188389D01*
X78649642Y-105188072D01*
X78494173Y-105176941D01*
X78478808Y-105174870D01*
X78364026Y-105152010D01*
X78335842Y-105145872D01*
X78219865Y-105120612D01*
X78206364Y-105116859D01*
X78089802Y-105077239D01*
X78086325Y-105075999D01*
X77955906Y-105027292D01*
X77944382Y-105022310D01*
X77831432Y-104966530D01*
X77826846Y-104964145D01*
X77707187Y-104898712D01*
X77697715Y-104892968D01*
X77591876Y-104822138D01*
X77586453Y-104818295D01*
X77478362Y-104737247D01*
X77470908Y-104731193D01*
X77374799Y-104646756D01*
X77368876Y-104641198D01*
X77273716Y-104545855D01*
X77268167Y-104539919D01*
X77183876Y-104443599D01*
X77177838Y-104436136D01*
X77097081Y-104328001D01*
X77093262Y-104322588D01*
X77022517Y-104216433D01*
X77016796Y-104206959D01*
X76951758Y-104087476D01*
X76949386Y-104082891D01*
X76893652Y-103969482D01*
X76888693Y-103957951D01*
X76840452Y-103828019D01*
X76839235Y-103824587D01*
X76799616Y-103707280D01*
X76795892Y-103693780D01*
X76765038Y-103550797D01*
X76742142Y-103434662D01*
X76740113Y-103419380D01*
X76727617Y-103239987D01*
X76722257Y-103155822D01*
X76722008Y-103147735D01*
X76722069Y-103116939D01*
X76721962Y-103116560D01*
X76721692Y-102858782D01*
X76720533Y-101752400D01*
X77532017Y-101752400D01*
X77552299Y-101958332D01*
X77552300Y-101958334D01*
X77612368Y-102156354D01*
X77709915Y-102338850D01*
X77751604Y-102389648D01*
X77841189Y-102498810D01*
X77903090Y-102549610D01*
X78001150Y-102630085D01*
X78183646Y-102727632D01*
X78381666Y-102787700D01*
X78587600Y-102807983D01*
X78793534Y-102787700D01*
X78991554Y-102727632D01*
X79174050Y-102630085D01*
X79334010Y-102498810D01*
X79465285Y-102338850D01*
X79507218Y-102260399D01*
X80173617Y-102260399D01*
X80193899Y-102466332D01*
X80193900Y-102466334D01*
X80253968Y-102664354D01*
X80351515Y-102846850D01*
X80402809Y-102909352D01*
X80482789Y-103006810D01*
X80562769Y-103072447D01*
X80642750Y-103138085D01*
X80825246Y-103235632D01*
X81023266Y-103295700D01*
X81229200Y-103315983D01*
X81435134Y-103295700D01*
X81633154Y-103235632D01*
X81815650Y-103138085D01*
X81975610Y-103006810D01*
X82106885Y-102846850D01*
X82204432Y-102664354D01*
X82264500Y-102466334D01*
X82284783Y-102260400D01*
X82264500Y-102054466D01*
X82204432Y-101856446D01*
X82175971Y-101803200D01*
X83932817Y-101803200D01*
X83953099Y-102009132D01*
X83953100Y-102009134D01*
X84013168Y-102207154D01*
X84110715Y-102389650D01*
X84162009Y-102452152D01*
X84241989Y-102549610D01*
X84321970Y-102615247D01*
X84401950Y-102680885D01*
X84584446Y-102778432D01*
X84782466Y-102838500D01*
X84988400Y-102858783D01*
X85194334Y-102838500D01*
X85392354Y-102778432D01*
X85574850Y-102680885D01*
X85734810Y-102549610D01*
X85866085Y-102389650D01*
X85963632Y-102207154D01*
X86023700Y-102009134D01*
X86043983Y-101803200D01*
X86038980Y-101752400D01*
X87336417Y-101752400D01*
X87356699Y-101958332D01*
X87356700Y-101958334D01*
X87416768Y-102156354D01*
X87514315Y-102338850D01*
X87556004Y-102389648D01*
X87645589Y-102498810D01*
X87707490Y-102549610D01*
X87805550Y-102630085D01*
X87988046Y-102727632D01*
X88186066Y-102787700D01*
X88392000Y-102807983D01*
X88597934Y-102787700D01*
X88795954Y-102727632D01*
X88978450Y-102630085D01*
X89138410Y-102498810D01*
X89269685Y-102338850D01*
X89367232Y-102156354D01*
X89427300Y-101958334D01*
X89447583Y-101752400D01*
X89427300Y-101546466D01*
X89367232Y-101348446D01*
X89269685Y-101165950D01*
X89204047Y-101085970D01*
X89138410Y-101005989D01*
X89017252Y-100906559D01*
X88978450Y-100874715D01*
X88795954Y-100777168D01*
X88680026Y-100742002D01*
X88597932Y-100717099D01*
X88392000Y-100696817D01*
X88186067Y-100717099D01*
X87988043Y-100777169D01*
X87805551Y-100874714D01*
X87645589Y-101005989D01*
X87514314Y-101165951D01*
X87416769Y-101348443D01*
X87356699Y-101546467D01*
X87336417Y-101752400D01*
X86038980Y-101752400D01*
X86023700Y-101597266D01*
X85963632Y-101399246D01*
X85866085Y-101216750D01*
X85785646Y-101118734D01*
X85758334Y-101054424D01*
X85770125Y-100985557D01*
X85817278Y-100933997D01*
X85869344Y-100916667D01*
X85956334Y-100908100D01*
X86154354Y-100848032D01*
X86336850Y-100750485D01*
X86496810Y-100619210D01*
X86628085Y-100459250D01*
X86725632Y-100276754D01*
X86785700Y-100078734D01*
X86805983Y-99872800D01*
X86785700Y-99666866D01*
X86725632Y-99468846D01*
X86628085Y-99286350D01*
X86562447Y-99206370D01*
X86496810Y-99126389D01*
X86399352Y-99046408D01*
X86336850Y-98995115D01*
X86154354Y-98897568D01*
X86055343Y-98867534D01*
X85956332Y-98837499D01*
X85750400Y-98817217D01*
X85544467Y-98837499D01*
X85346443Y-98897569D01*
X85163951Y-98995114D01*
X85003989Y-99126389D01*
X84872714Y-99286351D01*
X84775169Y-99468843D01*
X84715099Y-99666867D01*
X84694817Y-99872799D01*
X84715099Y-100078732D01*
X84715100Y-100078734D01*
X84775168Y-100276754D01*
X84872715Y-100459250D01*
X84924538Y-100522397D01*
X84953153Y-100557265D01*
X84980465Y-100621575D01*
X84968674Y-100690442D01*
X84921521Y-100742002D01*
X84869454Y-100759332D01*
X84782467Y-100767899D01*
X84584443Y-100827969D01*
X84401951Y-100925514D01*
X84241989Y-101056789D01*
X84110714Y-101216751D01*
X84013169Y-101399243D01*
X83953099Y-101597267D01*
X83932817Y-101803200D01*
X82175971Y-101803200D01*
X82106885Y-101673950D01*
X82041247Y-101593970D01*
X81975610Y-101513989D01*
X81835793Y-101399246D01*
X81815650Y-101382715D01*
X81633154Y-101285168D01*
X81534144Y-101255133D01*
X81435132Y-101225099D01*
X81229200Y-101204817D01*
X81023267Y-101225099D01*
X80825243Y-101285169D01*
X80642751Y-101382714D01*
X80482789Y-101513989D01*
X80351514Y-101673951D01*
X80253969Y-101856443D01*
X80193899Y-102054467D01*
X80173617Y-102260399D01*
X79507218Y-102260399D01*
X79562832Y-102156354D01*
X79622900Y-101958334D01*
X79643183Y-101752400D01*
X79622900Y-101546466D01*
X79562832Y-101348446D01*
X79465285Y-101165950D01*
X79399647Y-101085970D01*
X79334010Y-101005989D01*
X79212852Y-100906559D01*
X79174050Y-100874715D01*
X78991554Y-100777168D01*
X78875626Y-100742002D01*
X78793532Y-100717099D01*
X78587600Y-100696817D01*
X78381667Y-100717099D01*
X78183643Y-100777169D01*
X78001151Y-100874714D01*
X77841189Y-101005989D01*
X77709914Y-101165951D01*
X77612369Y-101348443D01*
X77552299Y-101546467D01*
X77532017Y-101752400D01*
X76720533Y-101752400D01*
X76714769Y-96251952D01*
X76734383Y-96184895D01*
X76787139Y-96139085D01*
X76856287Y-96129069D01*
X76919873Y-96158027D01*
X76931850Y-96169899D01*
X77000584Y-96247996D01*
X77082674Y-96341268D01*
X77271469Y-96493711D01*
X77483312Y-96612053D01*
X77712109Y-96692892D01*
X77951270Y-96733900D01*
X77951272Y-96733900D01*
X78480523Y-96733900D01*
X78483154Y-96733900D01*
X78664382Y-96718475D01*
X78820932Y-96677712D01*
X78899209Y-96657331D01*
X79009765Y-96607356D01*
X79120323Y-96557381D01*
X79321365Y-96421500D01*
X79403479Y-96342800D01*
X91402171Y-96342800D01*
X91421843Y-96555110D01*
X91480195Y-96760190D01*
X91575231Y-96951052D01*
X91703726Y-97121205D01*
X91703728Y-97121207D01*
X91861298Y-97264852D01*
X92042581Y-97377098D01*
X92241402Y-97454121D01*
X92450990Y-97493300D01*
X92450992Y-97493300D01*
X92664208Y-97493300D01*
X92664210Y-97493300D01*
X92873798Y-97454121D01*
X93072619Y-97377098D01*
X93253902Y-97264852D01*
X93411472Y-97121207D01*
X93539966Y-96951055D01*
X93539966Y-96951053D01*
X93539968Y-96951052D01*
X93616926Y-96796497D01*
X93635005Y-96760189D01*
X93693356Y-96555110D01*
X93711700Y-96357138D01*
X93737485Y-96292204D01*
X93794285Y-96251516D01*
X93864066Y-96247996D01*
X93893621Y-96259223D01*
X93950099Y-96289411D01*
X94129269Y-96343762D01*
X94315600Y-96362114D01*
X94501931Y-96343762D01*
X94681101Y-96289411D01*
X94846225Y-96201151D01*
X94990957Y-96082372D01*
X95109736Y-95937640D01*
X95197996Y-95772516D01*
X95209514Y-95734545D01*
X95212652Y-95724201D01*
X95250948Y-95665761D01*
X95272853Y-95650839D01*
X95392410Y-95586936D01*
X95537142Y-95468157D01*
X95655921Y-95323425D01*
X95744181Y-95158301D01*
X95798532Y-94979131D01*
X95816884Y-94792800D01*
X95798532Y-94606469D01*
X95744181Y-94427299D01*
X95655921Y-94262175D01*
X95537142Y-94117443D01*
X95392410Y-93998664D01*
X95392409Y-93998663D01*
X95227285Y-93910403D01*
X95048117Y-93856053D01*
X94861785Y-93837701D01*
X94675452Y-93856053D01*
X94496284Y-93910403D01*
X94331160Y-93998663D01*
X94186428Y-94117443D01*
X94067648Y-94262176D01*
X93979389Y-94427296D01*
X93964731Y-94475617D01*
X93926432Y-94534055D01*
X93904525Y-94548977D01*
X93784974Y-94612879D01*
X93723617Y-94663233D01*
X93659306Y-94690545D01*
X93590439Y-94678753D01*
X93538879Y-94631600D01*
X93535609Y-94625858D01*
X93504136Y-94566975D01*
X93504135Y-94566973D01*
X93429160Y-94475617D01*
X93385357Y-94422243D01*
X93258948Y-94318501D01*
X93240624Y-94303463D01*
X93075500Y-94215203D01*
X92896332Y-94160853D01*
X92803165Y-94151677D01*
X92710000Y-94142501D01*
X92709999Y-94142501D01*
X92523667Y-94160853D01*
X92344499Y-94215203D01*
X92179375Y-94303463D01*
X92034643Y-94422243D01*
X91915863Y-94566975D01*
X91827603Y-94732099D01*
X91773253Y-94911267D01*
X91754901Y-95097600D01*
X91773252Y-95283929D01*
X91802117Y-95379084D01*
X91802740Y-95448951D01*
X91766996Y-95506715D01*
X91703727Y-95564393D01*
X91575231Y-95734547D01*
X91480195Y-95925409D01*
X91421843Y-96130489D01*
X91402171Y-96342800D01*
X79403479Y-96342800D01*
X79496552Y-96253597D01*
X79640844Y-96058502D01*
X79750088Y-95841829D01*
X79767114Y-95786232D01*
X79805563Y-95727898D01*
X79869450Y-95699610D01*
X79938489Y-95710353D01*
X79987252Y-95751421D01*
X80047552Y-95837539D01*
X80208459Y-95998446D01*
X80394864Y-96128967D01*
X80394865Y-96128967D01*
X80394866Y-96128968D01*
X80601104Y-96225139D01*
X80820908Y-96284035D01*
X80990816Y-96298900D01*
X80993525Y-96298900D01*
X81501675Y-96298900D01*
X81504384Y-96298900D01*
X81674292Y-96284035D01*
X81894096Y-96225139D01*
X82100334Y-96128968D01*
X82286739Y-95998447D01*
X82447647Y-95837539D01*
X82578168Y-95651134D01*
X82674339Y-95444896D01*
X82733235Y-95225092D01*
X82753068Y-94998400D01*
X82733235Y-94771708D01*
X82674339Y-94551904D01*
X82578168Y-94345666D01*
X82576232Y-94342900D01*
X82447646Y-94159259D01*
X82286740Y-93998353D01*
X82100335Y-93867832D01*
X81894097Y-93771661D01*
X81674289Y-93712764D01*
X81507084Y-93698136D01*
X81507079Y-93698135D01*
X81504384Y-93697900D01*
X80990816Y-93697900D01*
X80988121Y-93698135D01*
X80988115Y-93698136D01*
X80820910Y-93712764D01*
X80601102Y-93771661D01*
X80394864Y-93867832D01*
X80208459Y-93998353D01*
X80047553Y-94159259D01*
X79917032Y-94345665D01*
X79836258Y-94518884D01*
X79790085Y-94571323D01*
X79722892Y-94590475D01*
X79656010Y-94570259D01*
X79618288Y-94531495D01*
X79572842Y-94457686D01*
X79412525Y-94275531D01*
X79389358Y-94256825D01*
X79223730Y-94123088D01*
X79011887Y-94004746D01*
X78783090Y-93923907D01*
X78543930Y-93882900D01*
X78543928Y-93882900D01*
X78012046Y-93882900D01*
X78009430Y-93883122D01*
X78009421Y-93883123D01*
X77830819Y-93898324D01*
X77595990Y-93959468D01*
X77374877Y-94059418D01*
X77173835Y-94195299D01*
X76998646Y-94363204D01*
X76936496Y-94447236D01*
X76880806Y-94489430D01*
X76811144Y-94494818D01*
X76749628Y-94461688D01*
X76715789Y-94400559D01*
X76712801Y-94373637D01*
X76711841Y-93456779D01*
X76711841Y-92405199D01*
X84136017Y-92405199D01*
X84156299Y-92611132D01*
X84186333Y-92710144D01*
X84216368Y-92809154D01*
X84313915Y-92991650D01*
X84365208Y-93054152D01*
X84445189Y-93151610D01*
X84503184Y-93199204D01*
X84605150Y-93282885D01*
X84787646Y-93380432D01*
X84985666Y-93440500D01*
X85191600Y-93460783D01*
X85397534Y-93440500D01*
X85595554Y-93380432D01*
X85666706Y-93342400D01*
X97088001Y-93342400D01*
X97106353Y-93528732D01*
X97160703Y-93707900D01*
X97165086Y-93716099D01*
X97248964Y-93873025D01*
X97367743Y-94017757D01*
X97512475Y-94136536D01*
X97677599Y-94224796D01*
X97856769Y-94279147D01*
X98043100Y-94297499D01*
X98229431Y-94279147D01*
X98249249Y-94273134D01*
X98319114Y-94272508D01*
X98378228Y-94309754D01*
X98403907Y-94355798D01*
X98431603Y-94447100D01*
X98498002Y-94571323D01*
X98519864Y-94612225D01*
X98638643Y-94756957D01*
X98783375Y-94875736D01*
X98948499Y-94963996D01*
X99127669Y-95018347D01*
X99314000Y-95036699D01*
X99500331Y-95018347D01*
X99679501Y-94963996D01*
X99844625Y-94875736D01*
X99989357Y-94756957D01*
X100108136Y-94612225D01*
X100196396Y-94447101D01*
X100227166Y-94345666D01*
X100254293Y-94256243D01*
X100256213Y-94256825D01*
X100276587Y-94206363D01*
X100333620Y-94166002D01*
X100403420Y-94162882D01*
X100452497Y-94187446D01*
X100462067Y-94195300D01*
X100510575Y-94235110D01*
X100574987Y-94269539D01*
X100624831Y-94318501D01*
X100635194Y-94342900D01*
X100666804Y-94447101D01*
X100733201Y-94571323D01*
X100755064Y-94612225D01*
X100873843Y-94756957D01*
X101018575Y-94875736D01*
X101183699Y-94963996D01*
X101362869Y-95018347D01*
X101549200Y-95036699D01*
X101735531Y-95018347D01*
X101914701Y-94963996D01*
X102079825Y-94875736D01*
X102224557Y-94756957D01*
X102343336Y-94612225D01*
X102431596Y-94447101D01*
X102485947Y-94267931D01*
X102504299Y-94081600D01*
X102485947Y-93895269D01*
X102431596Y-93716099D01*
X102343336Y-93550975D01*
X102224557Y-93406243D01*
X102079825Y-93287464D01*
X102015410Y-93253033D01*
X101965567Y-93204071D01*
X101955205Y-93179672D01*
X101923596Y-93075473D01*
X101835336Y-92910349D01*
X101835336Y-92910348D01*
X101716557Y-92765617D01*
X101571825Y-92646838D01*
X101571824Y-92646837D01*
X101406700Y-92558577D01*
X101227532Y-92504227D01*
X101041200Y-92485875D01*
X100854867Y-92504227D01*
X100675699Y-92558577D01*
X100510575Y-92646837D01*
X100365843Y-92765617D01*
X100247063Y-92910349D01*
X100158803Y-93075473D01*
X100100907Y-93266331D01*
X100098987Y-93265748D01*
X100078602Y-93316222D01*
X100021565Y-93356576D01*
X99951764Y-93359688D01*
X99902701Y-93335126D01*
X99844624Y-93287463D01*
X99679500Y-93199203D01*
X99500332Y-93144853D01*
X99314000Y-93126501D01*
X99127667Y-93144853D01*
X99107843Y-93150866D01*
X99037976Y-93151487D01*
X98978865Y-93114237D01*
X98953193Y-93068204D01*
X98925496Y-92976899D01*
X98837236Y-92811775D01*
X98718457Y-92667043D01*
X98573725Y-92548264D01*
X98573724Y-92548263D01*
X98408600Y-92460003D01*
X98229432Y-92405653D01*
X98043100Y-92387301D01*
X97856767Y-92405653D01*
X97677599Y-92460003D01*
X97512475Y-92548263D01*
X97367743Y-92667043D01*
X97248963Y-92811775D01*
X97160703Y-92976899D01*
X97106353Y-93156067D01*
X97088001Y-93342400D01*
X85666706Y-93342400D01*
X85778050Y-93282885D01*
X85938010Y-93151610D01*
X86069285Y-92991650D01*
X86166832Y-92809154D01*
X86226900Y-92611134D01*
X86247183Y-92405200D01*
X86226900Y-92199266D01*
X86166832Y-92001246D01*
X86069285Y-91818750D01*
X86003647Y-91738770D01*
X85938010Y-91658789D01*
X85797134Y-91543177D01*
X85778050Y-91527515D01*
X85677802Y-91473931D01*
X85595556Y-91429969D01*
X85595555Y-91429968D01*
X85595554Y-91429968D01*
X85496544Y-91399933D01*
X85461158Y-91389199D01*
X102372101Y-91389199D01*
X102390453Y-91575532D01*
X102444803Y-91754700D01*
X102479039Y-91818750D01*
X102533064Y-91919825D01*
X102651843Y-92064557D01*
X102796575Y-92183336D01*
X102961699Y-92271596D01*
X103140869Y-92325947D01*
X103327200Y-92344299D01*
X103513531Y-92325947D01*
X103692701Y-92271596D01*
X103857825Y-92183336D01*
X104002557Y-92064557D01*
X104121336Y-91919825D01*
X104209596Y-91754701D01*
X104263947Y-91575531D01*
X104282299Y-91389200D01*
X104263947Y-91202869D01*
X104209596Y-91023699D01*
X104121336Y-90858575D01*
X104002557Y-90713843D01*
X103883777Y-90616362D01*
X103857824Y-90595063D01*
X103692700Y-90506803D01*
X103513532Y-90452453D01*
X103420365Y-90443277D01*
X103327200Y-90434101D01*
X103327199Y-90434101D01*
X103140867Y-90452453D01*
X102961699Y-90506803D01*
X102796575Y-90595063D01*
X102651843Y-90713843D01*
X102533063Y-90858575D01*
X102444803Y-91023699D01*
X102390453Y-91202867D01*
X102372101Y-91389199D01*
X85461158Y-91389199D01*
X85397532Y-91369899D01*
X85191600Y-91349617D01*
X84985667Y-91369899D01*
X84787643Y-91429969D01*
X84605151Y-91527514D01*
X84445189Y-91658789D01*
X84313914Y-91818751D01*
X84216369Y-92001243D01*
X84156299Y-92199267D01*
X84136017Y-92405199D01*
X76711841Y-92405199D01*
X76711841Y-90788498D01*
X76731526Y-90721459D01*
X76784330Y-90675704D01*
X76853488Y-90665760D01*
X76917044Y-90694785D01*
X76928921Y-90706571D01*
X76942024Y-90721459D01*
X77082674Y-90881268D01*
X77271469Y-91033711D01*
X77483312Y-91152053D01*
X77712109Y-91232892D01*
X77951270Y-91273900D01*
X77951272Y-91273900D01*
X78480523Y-91273900D01*
X78483154Y-91273900D01*
X78664382Y-91258475D01*
X78802859Y-91222418D01*
X78872690Y-91224575D01*
X78930274Y-91264145D01*
X78957324Y-91328566D01*
X78957503Y-91330263D01*
X78971653Y-91473932D01*
X79026003Y-91653100D01*
X79080310Y-91754701D01*
X79114264Y-91818225D01*
X79233043Y-91962957D01*
X79377775Y-92081736D01*
X79542899Y-92169996D01*
X79722069Y-92224347D01*
X79908400Y-92242699D01*
X80094731Y-92224347D01*
X80273901Y-92169996D01*
X80439025Y-92081736D01*
X80583757Y-91962957D01*
X80702536Y-91818225D01*
X80790796Y-91653101D01*
X80824142Y-91543173D01*
X80862438Y-91484738D01*
X80926250Y-91456282D01*
X80953604Y-91455644D01*
X80990816Y-91458900D01*
X80993524Y-91458900D01*
X81501675Y-91458900D01*
X81504384Y-91458900D01*
X81674292Y-91444035D01*
X81894096Y-91385139D01*
X82100334Y-91288968D01*
X82286739Y-91158447D01*
X82447647Y-90997539D01*
X82578168Y-90811134D01*
X82674339Y-90604896D01*
X82733235Y-90385092D01*
X82753068Y-90158400D01*
X82733235Y-89931708D01*
X82674339Y-89711904D01*
X82578168Y-89505666D01*
X82543377Y-89455978D01*
X82447646Y-89319259D01*
X82286740Y-89158353D01*
X82100335Y-89027832D01*
X81894097Y-88931661D01*
X81674289Y-88872764D01*
X81507084Y-88858136D01*
X81507079Y-88858135D01*
X81504384Y-88857900D01*
X80990816Y-88857900D01*
X80988121Y-88858135D01*
X80988115Y-88858136D01*
X80820910Y-88872764D01*
X80601102Y-88931661D01*
X80394864Y-89027832D01*
X80208459Y-89158353D01*
X80047552Y-89319260D01*
X79987406Y-89405159D01*
X79932829Y-89448784D01*
X79863331Y-89455978D01*
X79800976Y-89424455D01*
X79770773Y-89380270D01*
X79768791Y-89375339D01*
X79700068Y-89204314D01*
X79572842Y-88997686D01*
X79412525Y-88815531D01*
X79321738Y-88742225D01*
X79223730Y-88663088D01*
X79011887Y-88544746D01*
X78783090Y-88463907D01*
X78543930Y-88422900D01*
X78543928Y-88422900D01*
X78012046Y-88422900D01*
X78009430Y-88423122D01*
X78009421Y-88423123D01*
X77830819Y-88438324D01*
X77595990Y-88499468D01*
X77374877Y-88599418D01*
X77173835Y-88735299D01*
X76998646Y-88903204D01*
X76935536Y-88988535D01*
X76879846Y-89030729D01*
X76810185Y-89036117D01*
X76748669Y-89002987D01*
X76714829Y-88941859D01*
X76711841Y-88914800D01*
X76711841Y-88239599D01*
X90078501Y-88239599D01*
X90096853Y-88425932D01*
X90151203Y-88605100D01*
X90224498Y-88742225D01*
X90239464Y-88770225D01*
X90358243Y-88914957D01*
X90502975Y-89033736D01*
X90668099Y-89121996D01*
X90847269Y-89176347D01*
X91033600Y-89194699D01*
X91219931Y-89176347D01*
X91399101Y-89121996D01*
X91399101Y-89121995D01*
X91410790Y-89118450D01*
X91411199Y-89119799D01*
X91466504Y-89108276D01*
X91492562Y-89113216D01*
X91573831Y-89137869D01*
X91608368Y-89148347D01*
X91626720Y-89150154D01*
X91794700Y-89166699D01*
X91981031Y-89148347D01*
X92160201Y-89093996D01*
X92290407Y-89024400D01*
X95360801Y-89024400D01*
X95379153Y-89210732D01*
X95433503Y-89389900D01*
X95517470Y-89546991D01*
X95521764Y-89555025D01*
X95640543Y-89699757D01*
X95785275Y-89818536D01*
X95950399Y-89906796D01*
X96129569Y-89961147D01*
X96315900Y-89979499D01*
X96502231Y-89961147D01*
X96681401Y-89906796D01*
X96846525Y-89818536D01*
X96991257Y-89699757D01*
X97110036Y-89555025D01*
X97198296Y-89389901D01*
X97252647Y-89210731D01*
X97270999Y-89024400D01*
X97252647Y-88838069D01*
X97198296Y-88658899D01*
X97110036Y-88493775D01*
X96991257Y-88349043D01*
X96846525Y-88230264D01*
X96846524Y-88230263D01*
X96681400Y-88142003D01*
X96502232Y-88087653D01*
X96315900Y-88069301D01*
X96129567Y-88087653D01*
X95950399Y-88142003D01*
X95785275Y-88230263D01*
X95640543Y-88349043D01*
X95521763Y-88493775D01*
X95433503Y-88658899D01*
X95379153Y-88838067D01*
X95360801Y-89024400D01*
X92290407Y-89024400D01*
X92325325Y-89005736D01*
X92470057Y-88886957D01*
X92588836Y-88742225D01*
X92677096Y-88577101D01*
X92731447Y-88397931D01*
X92749799Y-88211600D01*
X92731447Y-88025269D01*
X92677096Y-87846099D01*
X92588836Y-87680975D01*
X92470057Y-87536243D01*
X92325325Y-87417464D01*
X92325324Y-87417463D01*
X92160200Y-87329203D01*
X91981032Y-87274853D01*
X91794700Y-87256501D01*
X91608367Y-87274853D01*
X91417513Y-87332749D01*
X91417104Y-87331402D01*
X91361772Y-87342920D01*
X91335734Y-87337981D01*
X91219929Y-87302852D01*
X91033600Y-87284501D01*
X90847267Y-87302853D01*
X90668099Y-87357203D01*
X90502975Y-87445463D01*
X90358243Y-87564243D01*
X90239463Y-87708975D01*
X90151203Y-87874099D01*
X90096853Y-88053267D01*
X90078501Y-88239599D01*
X76711841Y-88239599D01*
X76711841Y-82472035D01*
X76712157Y-82463192D01*
X76714271Y-82433625D01*
X76716561Y-82401598D01*
X86457639Y-82401598D01*
X86457640Y-82401600D01*
X87176800Y-82401600D01*
X87176800Y-81682439D01*
X87176798Y-81682439D01*
X87042265Y-81723249D01*
X86868542Y-81816106D01*
X86716272Y-81941072D01*
X86591306Y-82093342D01*
X86498449Y-82267065D01*
X86457639Y-82401598D01*
X76716561Y-82401598D01*
X76719237Y-82364187D01*
X76721296Y-82348892D01*
X76744233Y-82233585D01*
X76775847Y-82088257D01*
X76779577Y-82074823D01*
X76819367Y-81957608D01*
X76820545Y-81954297D01*
X76869615Y-81822734D01*
X76874579Y-81811240D01*
X76930630Y-81697582D01*
X76932930Y-81693154D01*
X76998822Y-81572481D01*
X77004511Y-81563085D01*
X77075716Y-81456522D01*
X77079472Y-81451212D01*
X77161060Y-81342224D01*
X77167061Y-81334823D01*
X77251975Y-81238000D01*
X77257463Y-81232141D01*
X77353357Y-81136247D01*
X77359217Y-81130758D01*
X77456171Y-81045734D01*
X77463547Y-81039754D01*
X77572262Y-80958372D01*
X77577544Y-80954633D01*
X77684515Y-80883160D01*
X77693910Y-80877473D01*
X77813915Y-80811945D01*
X77818333Y-80809651D01*
X77932774Y-80753217D01*
X77944233Y-80748270D01*
X78074492Y-80699687D01*
X78077780Y-80698516D01*
X78196392Y-80658255D01*
X78209867Y-80654516D01*
X78352492Y-80623489D01*
X78452671Y-80603565D01*
X78476819Y-80601189D01*
X91296212Y-80601189D01*
X91363251Y-80620874D01*
G37*
%TD.AperFunction*%
%TD*%
%TA.AperFunction,Conductor*%
%TO.N,GND*%
G36*
X104449101Y-72197006D02*
G01*
X104517667Y-72232993D01*
X104682836Y-72273703D01*
X104682837Y-72273703D01*
X104852947Y-72273703D01*
X104852948Y-72273703D01*
X105018117Y-72232993D01*
X105086682Y-72197006D01*
X105144308Y-72182803D01*
X105704116Y-72182803D01*
X105733791Y-72186406D01*
X105841214Y-72212883D01*
X105841215Y-72212883D01*
X106011325Y-72212883D01*
X106011326Y-72212883D01*
X106118748Y-72186406D01*
X106148424Y-72182803D01*
X108606292Y-72182803D01*
X108673331Y-72202488D01*
X108719086Y-72255292D01*
X108730292Y-72306803D01*
X108730292Y-80440803D01*
X108710607Y-80507842D01*
X108657803Y-80553597D01*
X108606292Y-80564803D01*
X100116692Y-80564803D01*
X100049653Y-80545118D01*
X100003898Y-80492314D01*
X99992692Y-80440803D01*
X99992692Y-72306803D01*
X100012377Y-72239764D01*
X100065181Y-72194009D01*
X100116692Y-72182803D01*
X104391476Y-72182803D01*
X104449101Y-72197006D01*
G37*
%TD.AperFunction*%
%TD*%
%TA.AperFunction,Conductor*%
%TO.N,GND*%
G36*
X91377702Y-55997288D02*
G01*
X91423457Y-56050092D01*
X91433401Y-56119250D01*
X91429929Y-56135538D01*
X91385494Y-56291703D01*
X91365822Y-56504014D01*
X91385494Y-56716324D01*
X91443847Y-56921408D01*
X91444851Y-56923424D01*
X91445571Y-56927467D01*
X91446990Y-56932453D01*
X91446485Y-56932596D01*
X91457107Y-56992210D01*
X91434648Y-57046097D01*
X91436148Y-57047022D01*
X91430337Y-57056441D01*
X91430229Y-57056703D01*
X91430062Y-57056887D01*
X91336437Y-57208679D01*
X91281251Y-57375216D01*
X91271070Y-57474872D01*
X91271068Y-57474892D01*
X91270751Y-57478005D01*
X91270751Y-57481152D01*
X91270751Y-57481153D01*
X91270751Y-57703014D01*
X91222815Y-57703014D01*
X91138380Y-57717902D01*
X91039122Y-57775209D01*
X90965450Y-57863007D01*
X90926251Y-57970708D01*
X90926251Y-58085320D01*
X90927963Y-58090024D01*
X90821916Y-58118440D01*
X90668655Y-58189907D01*
X90599578Y-58200399D01*
X90563847Y-58189907D01*
X90410585Y-58118440D01*
X90304538Y-58090024D01*
X90306251Y-58085320D01*
X90306251Y-57970708D01*
X90267052Y-57863007D01*
X90193380Y-57775209D01*
X90094122Y-57717902D01*
X90009687Y-57703014D01*
X89952815Y-57703014D01*
X89920316Y-57708744D01*
X89890826Y-57598684D01*
X89798353Y-57400376D01*
X89753676Y-57336570D01*
X89731349Y-57270364D01*
X89731251Y-57265447D01*
X89731251Y-57058853D01*
X90231251Y-57058853D01*
X90231251Y-57778014D01*
X91001250Y-57778014D01*
X91001251Y-57058853D01*
X91001249Y-57058853D01*
X90866716Y-57099663D01*
X90682221Y-57198278D01*
X90681374Y-57196693D01*
X90630605Y-57218255D01*
X90561738Y-57206464D01*
X90542671Y-57194210D01*
X90365785Y-57099663D01*
X90231252Y-57058853D01*
X90231251Y-57058853D01*
X89731251Y-57058853D01*
X89731250Y-57058853D01*
X89632727Y-57088740D01*
X89562860Y-57089363D01*
X89525609Y-57071654D01*
X89338890Y-56940912D01*
X89140582Y-56848439D01*
X88929225Y-56791806D01*
X88711250Y-56772736D01*
X88493276Y-56791806D01*
X88281919Y-56848439D01*
X88083611Y-56940912D01*
X87896891Y-57071654D01*
X87830684Y-57093981D01*
X87789772Y-57088740D01*
X87691251Y-57058853D01*
X87691250Y-57058853D01*
X87691251Y-57265447D01*
X87671566Y-57332486D01*
X87668826Y-57336570D01*
X87624149Y-57400375D01*
X87531676Y-57598682D01*
X87502184Y-57708744D01*
X87469687Y-57703014D01*
X87412815Y-57703014D01*
X87328380Y-57717902D01*
X87229122Y-57775209D01*
X87155450Y-57863007D01*
X87116251Y-57970708D01*
X87116251Y-58085320D01*
X87117963Y-58090024D01*
X87011919Y-58118439D01*
X86813612Y-58210912D01*
X86749807Y-58255589D01*
X86683601Y-58277916D01*
X86678684Y-58278014D01*
X86472091Y-58278014D01*
X86501977Y-58376535D01*
X86502600Y-58446402D01*
X86484891Y-58483654D01*
X86354149Y-58670374D01*
X86261676Y-58868682D01*
X86205043Y-59080039D01*
X86185973Y-59298014D01*
X86205043Y-59515988D01*
X86261676Y-59727345D01*
X86311512Y-59834219D01*
X86354149Y-59925653D01*
X86479653Y-60104891D01*
X86634374Y-60259612D01*
X86813612Y-60385116D01*
X87011921Y-60477589D01*
X87223274Y-60534221D01*
X87441251Y-60553291D01*
X87659228Y-60534221D01*
X87870581Y-60477589D01*
X88023847Y-60406119D01*
X88092923Y-60395628D01*
X88128653Y-60406119D01*
X88281921Y-60477589D01*
X88493274Y-60534221D01*
X88711251Y-60553291D01*
X88929228Y-60534221D01*
X89140581Y-60477589D01*
X89293847Y-60406119D01*
X89362922Y-60395628D01*
X89398655Y-60406120D01*
X89551921Y-60477589D01*
X89763274Y-60534221D01*
X89981251Y-60553291D01*
X90199228Y-60534221D01*
X90410581Y-60477589D01*
X90563847Y-60406119D01*
X90632923Y-60395628D01*
X90668653Y-60406119D01*
X90821921Y-60477589D01*
X91033274Y-60534221D01*
X91251251Y-60553291D01*
X91469228Y-60534221D01*
X91680581Y-60477589D01*
X91833847Y-60406119D01*
X91902923Y-60395628D01*
X91938653Y-60406119D01*
X92091921Y-60477589D01*
X92303274Y-60534221D01*
X92448592Y-60546934D01*
X92521250Y-60553291D01*
X92521250Y-60553290D01*
X92521251Y-60553291D01*
X92739228Y-60534221D01*
X92950581Y-60477589D01*
X93148890Y-60385116D01*
X93328128Y-60259612D01*
X93426126Y-60161614D01*
X94766552Y-60161614D01*
X94784904Y-60347946D01*
X94839254Y-60527114D01*
X94919165Y-60676617D01*
X94927515Y-60692239D01*
X95046294Y-60836971D01*
X95191026Y-60955750D01*
X95356150Y-61044010D01*
X95535320Y-61098361D01*
X95596445Y-61104381D01*
X95661233Y-61130541D01*
X95701592Y-61187576D01*
X95704709Y-61257376D01*
X95693652Y-61286234D01*
X95660819Y-61347660D01*
X95660819Y-61347661D01*
X95600750Y-61545681D01*
X95580468Y-61751614D01*
X95600750Y-61957546D01*
X95617212Y-62011814D01*
X95660819Y-62155568D01*
X95758366Y-62338064D01*
X95809659Y-62400566D01*
X95889640Y-62498024D01*
X95947150Y-62545220D01*
X96049601Y-62629299D01*
X96232097Y-62726846D01*
X96430117Y-62786914D01*
X96636051Y-62807197D01*
X96841985Y-62786914D01*
X97040005Y-62726846D01*
X97222501Y-62629299D01*
X97382461Y-62498024D01*
X97513736Y-62338064D01*
X97611283Y-62155568D01*
X97671351Y-61957548D01*
X97691634Y-61751614D01*
X98120468Y-61751614D01*
X98140750Y-61957546D01*
X98157212Y-62011814D01*
X98200819Y-62155568D01*
X98298366Y-62338064D01*
X98349659Y-62400566D01*
X98429640Y-62498024D01*
X98487150Y-62545220D01*
X98589601Y-62629299D01*
X98772097Y-62726846D01*
X98970117Y-62786914D01*
X99176051Y-62807197D01*
X99381985Y-62786914D01*
X99580005Y-62726846D01*
X99762501Y-62629299D01*
X99831672Y-62572531D01*
X99895978Y-62545220D01*
X99964846Y-62557011D01*
X99993873Y-62576750D01*
X100007590Y-62589255D01*
X100188873Y-62701501D01*
X100387694Y-62778524D01*
X100597282Y-62817703D01*
X100597284Y-62817703D01*
X100810500Y-62817703D01*
X100810502Y-62817703D01*
X101020090Y-62778524D01*
X101218911Y-62701501D01*
X101400194Y-62589255D01*
X101557764Y-62445610D01*
X101686258Y-62275458D01*
X101686258Y-62275456D01*
X101686260Y-62275455D01*
X101733972Y-62179633D01*
X101781297Y-62084592D01*
X101827786Y-61921202D01*
X102596463Y-61921202D01*
X102616135Y-62133513D01*
X102674487Y-62338593D01*
X102769523Y-62529455D01*
X102898018Y-62699608D01*
X102898020Y-62699610D01*
X103055590Y-62843255D01*
X103236873Y-62955501D01*
X103435694Y-63032524D01*
X103645282Y-63071703D01*
X103645284Y-63071703D01*
X103858500Y-63071703D01*
X103858502Y-63071703D01*
X104068090Y-63032524D01*
X104266911Y-62955501D01*
X104448194Y-62843255D01*
X104605764Y-62699610D01*
X104734258Y-62529458D01*
X104734258Y-62529456D01*
X104734260Y-62529455D01*
X104784179Y-62429202D01*
X107422463Y-62429202D01*
X107442135Y-62641513D01*
X107500487Y-62846593D01*
X107595523Y-63037455D01*
X107724018Y-63207608D01*
X107724020Y-63207610D01*
X107881590Y-63351255D01*
X108062873Y-63463501D01*
X108261694Y-63540524D01*
X108471282Y-63579703D01*
X108471284Y-63579703D01*
X108684500Y-63579703D01*
X108684502Y-63579703D01*
X108894090Y-63540524D01*
X109092911Y-63463501D01*
X109274194Y-63351255D01*
X109431764Y-63207610D01*
X109560258Y-63037458D01*
X109560258Y-63037456D01*
X109560260Y-63037455D01*
X109622401Y-62912657D01*
X109655297Y-62846592D01*
X109713648Y-62641513D01*
X109733321Y-62429203D01*
X109713648Y-62216893D01*
X109655297Y-62011814D01*
X109610179Y-61921203D01*
X109560260Y-61820950D01*
X109431765Y-61650797D01*
X109274193Y-61507150D01*
X109092909Y-61394904D01*
X108894090Y-61317882D01*
X108867706Y-61312950D01*
X108684502Y-61278703D01*
X108471282Y-61278703D01*
X108331556Y-61304822D01*
X108261693Y-61317882D01*
X108062874Y-61394904D01*
X107881590Y-61507150D01*
X107724018Y-61650797D01*
X107595523Y-61820950D01*
X107500487Y-62011812D01*
X107442135Y-62216892D01*
X107422463Y-62429202D01*
X104784179Y-62429202D01*
X104829297Y-62338592D01*
X104887648Y-62133513D01*
X104907321Y-61921203D01*
X104887648Y-61708893D01*
X104829297Y-61503814D01*
X104828906Y-61503030D01*
X104734260Y-61312950D01*
X104605765Y-61142797D01*
X104577152Y-61116713D01*
X104448194Y-60999151D01*
X104448193Y-60999150D01*
X104326757Y-60923960D01*
X104266911Y-60886905D01*
X104266909Y-60886904D01*
X104068090Y-60809882D01*
X103858502Y-60770703D01*
X103645282Y-60770703D01*
X103505556Y-60796822D01*
X103435693Y-60809882D01*
X103236874Y-60886904D01*
X103055590Y-60999150D01*
X102898018Y-61142797D01*
X102769523Y-61312950D01*
X102674487Y-61503812D01*
X102616135Y-61708892D01*
X102596463Y-61921202D01*
X101827786Y-61921202D01*
X101839648Y-61879513D01*
X101859321Y-61667203D01*
X101839648Y-61454893D01*
X101781297Y-61249814D01*
X101780906Y-61249030D01*
X101686260Y-61058950D01*
X101557765Y-60888797D01*
X101555688Y-60886904D01*
X101400194Y-60745151D01*
X101400193Y-60745150D01*
X101218909Y-60632904D01*
X101020090Y-60555882D01*
X100987458Y-60549782D01*
X100810502Y-60516703D01*
X100597282Y-60516703D01*
X100457556Y-60542822D01*
X100387693Y-60555882D01*
X100188874Y-60632904D01*
X100007587Y-60745152D01*
X99892687Y-60849898D01*
X99829883Y-60880515D01*
X99760496Y-60872317D01*
X99750696Y-60867619D01*
X99580007Y-60776383D01*
X99580006Y-60776382D01*
X99580005Y-60776382D01*
X99477046Y-60745150D01*
X99381983Y-60716313D01*
X99198548Y-60698246D01*
X99176051Y-60696031D01*
X99176050Y-60696031D01*
X98970118Y-60716313D01*
X98772094Y-60776383D01*
X98589602Y-60873928D01*
X98429640Y-61005203D01*
X98298365Y-61165165D01*
X98200820Y-61347657D01*
X98140750Y-61545681D01*
X98120468Y-61751614D01*
X97691634Y-61751614D01*
X97671351Y-61545680D01*
X97611283Y-61347660D01*
X97513736Y-61165164D01*
X97426569Y-61058950D01*
X97382461Y-61005203D01*
X97283464Y-60923960D01*
X97222501Y-60873929D01*
X97040005Y-60776382D01*
X96937046Y-60745150D01*
X96841983Y-60716313D01*
X96704559Y-60702778D01*
X96639772Y-60676617D01*
X96599414Y-60619582D01*
X96596297Y-60549782D01*
X96600505Y-60538802D01*
X96600502Y-60538801D01*
X96607205Y-60516703D01*
X96658398Y-60347945D01*
X96676750Y-60161614D01*
X96658398Y-59975283D01*
X96604047Y-59796113D01*
X96515787Y-59630989D01*
X96397008Y-59486257D01*
X96252276Y-59367478D01*
X96252275Y-59367477D01*
X96087151Y-59279217D01*
X95907983Y-59224867D01*
X95721651Y-59206515D01*
X95535318Y-59224867D01*
X95356150Y-59279217D01*
X95191026Y-59367477D01*
X95046294Y-59486257D01*
X94927514Y-59630989D01*
X94839254Y-59796113D01*
X94784904Y-59975281D01*
X94766552Y-60161614D01*
X93426126Y-60161614D01*
X93482849Y-60104891D01*
X93608353Y-59925653D01*
X93700826Y-59727344D01*
X93757458Y-59515991D01*
X93776528Y-59298014D01*
X93757458Y-59080037D01*
X93709615Y-58901485D01*
X93711278Y-58831637D01*
X93711632Y-58830546D01*
X93761250Y-58680811D01*
X93771751Y-58578023D01*
X93771750Y-57478006D01*
X93761250Y-57375217D01*
X93706065Y-57208680D01*
X93632086Y-57088740D01*
X93606354Y-57047021D01*
X93609387Y-57045149D01*
X93587488Y-57005044D01*
X93592472Y-56935352D01*
X93597657Y-56923409D01*
X93598656Y-56921403D01*
X93657007Y-56716324D01*
X93676680Y-56504014D01*
X93657007Y-56291704D01*
X93651692Y-56273024D01*
X93612574Y-56135537D01*
X93613160Y-56065670D01*
X93651427Y-56007211D01*
X93715224Y-55978721D01*
X93731840Y-55977603D01*
X123113803Y-55977603D01*
X124070866Y-55978076D01*
X124070956Y-55978103D01*
X124118637Y-55978103D01*
X124126749Y-55978369D01*
X124207875Y-55983687D01*
X124388419Y-55996585D01*
X124403743Y-55998649D01*
X124519550Y-56021686D01*
X124661344Y-56052534D01*
X124674808Y-56056272D01*
X124791647Y-56095935D01*
X124795055Y-56097149D01*
X124924023Y-56145254D01*
X124935494Y-56150207D01*
X125048428Y-56205901D01*
X125052943Y-56208246D01*
X125171573Y-56273024D01*
X125181001Y-56278734D01*
X125286669Y-56349340D01*
X125292059Y-56353154D01*
X125371165Y-56412373D01*
X125399346Y-56433470D01*
X125406793Y-56439508D01*
X125502682Y-56523601D01*
X125508605Y-56529149D01*
X125603139Y-56623685D01*
X125608686Y-56629607D01*
X125692771Y-56725489D01*
X125698809Y-56732937D01*
X125779111Y-56840209D01*
X125782947Y-56845629D01*
X125853540Y-56951280D01*
X125859269Y-56960743D01*
X125924012Y-57079311D01*
X125926392Y-57083895D01*
X125982061Y-57196782D01*
X125987030Y-57208290D01*
X125990747Y-57218255D01*
X126035116Y-57337213D01*
X126036318Y-57340585D01*
X126073875Y-57451223D01*
X126075999Y-57457481D01*
X126079745Y-57470980D01*
X126110578Y-57612714D01*
X126133624Y-57728573D01*
X126135686Y-57743888D01*
X126148348Y-57920919D01*
X126153922Y-58005939D01*
X126154187Y-58014158D01*
X126135934Y-78484990D01*
X126135888Y-78485146D01*
X126135888Y-78532722D01*
X126135623Y-78540830D01*
X126130415Y-78620304D01*
X126117366Y-78802751D01*
X126115300Y-78818092D01*
X126092685Y-78931801D01*
X126061378Y-79075724D01*
X126057638Y-79089197D01*
X126018489Y-79204533D01*
X126017251Y-79208010D01*
X125968598Y-79338456D01*
X125963630Y-79349964D01*
X125908579Y-79461603D01*
X125906198Y-79466188D01*
X125840733Y-79586081D01*
X125835004Y-79595543D01*
X125765192Y-79700030D01*
X125761356Y-79705452D01*
X125680134Y-79813954D01*
X125674096Y-79821400D01*
X125590970Y-79916192D01*
X125585423Y-79922116D01*
X125489705Y-80017837D01*
X125483783Y-80023383D01*
X125389126Y-80106399D01*
X125381677Y-80112439D01*
X125272863Y-80193899D01*
X125267446Y-80197733D01*
X125163382Y-80267272D01*
X125153916Y-80273003D01*
X125033269Y-80338884D01*
X125028687Y-80341264D01*
X124917900Y-80395902D01*
X124906388Y-80400872D01*
X124774457Y-80450082D01*
X124770986Y-80451319D01*
X124657238Y-80489937D01*
X124643735Y-80493685D01*
X124496719Y-80525669D01*
X124386156Y-80547666D01*
X124370834Y-80549729D01*
X124177924Y-80563530D01*
X124109439Y-80568022D01*
X124101336Y-80568288D01*
X109463901Y-80569483D01*
X109396860Y-80549804D01*
X109351101Y-80497004D01*
X109339892Y-80445487D01*
X109339892Y-72172911D01*
X109359576Y-72105876D01*
X109398611Y-72067489D01*
X109528194Y-71987255D01*
X109685764Y-71843610D01*
X109814258Y-71673458D01*
X109814258Y-71673456D01*
X109814260Y-71673455D01*
X109882938Y-71535528D01*
X109909297Y-71482592D01*
X109967648Y-71277513D01*
X109987321Y-71065203D01*
X109967648Y-70852893D01*
X109963133Y-70837026D01*
X109939936Y-70755498D01*
X109909297Y-70647814D01*
X109908906Y-70647030D01*
X109814260Y-70456950D01*
X109685765Y-70286797D01*
X109528193Y-70143150D01*
X109386095Y-70055167D01*
X109346911Y-70030905D01*
X109346909Y-70030904D01*
X109148090Y-69953882D01*
X109109525Y-69946673D01*
X108938502Y-69914703D01*
X108725282Y-69914703D01*
X108618244Y-69934712D01*
X108515693Y-69953882D01*
X108316874Y-70030904D01*
X108135590Y-70143150D01*
X107978018Y-70286797D01*
X107849523Y-70456950D01*
X107754487Y-70647812D01*
X107696135Y-70852892D01*
X107676463Y-71065203D01*
X107696135Y-71277513D01*
X107754487Y-71482593D01*
X107849523Y-71673455D01*
X107886477Y-71722389D01*
X107911169Y-71787750D01*
X107896604Y-71856085D01*
X107847407Y-71905698D01*
X107786909Y-71921114D01*
X106963369Y-71917037D01*
X106896428Y-71897021D01*
X106850935Y-71843991D01*
X106841334Y-71774785D01*
X106845323Y-71757043D01*
X106850940Y-71738527D01*
X106863017Y-71698714D01*
X106881369Y-71512383D01*
X106863017Y-71326052D01*
X106808666Y-71146882D01*
X106720406Y-70981758D01*
X106601627Y-70837026D01*
X106456895Y-70718247D01*
X106456894Y-70718246D01*
X106291770Y-70629986D01*
X106112602Y-70575636D01*
X105926270Y-70557284D01*
X105739937Y-70575636D01*
X105560769Y-70629986D01*
X105395645Y-70718246D01*
X105376500Y-70733958D01*
X105312189Y-70761269D01*
X105243322Y-70749475D01*
X105239386Y-70747461D01*
X105214123Y-70733958D01*
X105133393Y-70690807D01*
X105133390Y-70690806D01*
X104954224Y-70636456D01*
X104767892Y-70618104D01*
X104581559Y-70636456D01*
X104402391Y-70690806D01*
X104237267Y-70779066D01*
X104092535Y-70897846D01*
X103973755Y-71042578D01*
X103885495Y-71207702D01*
X103831145Y-71386870D01*
X103812793Y-71573203D01*
X103831660Y-71764768D01*
X103818641Y-71833414D01*
X103770576Y-71884124D01*
X103707643Y-71900920D01*
X99078292Y-71878002D01*
X99078292Y-80440803D01*
X99058607Y-80507842D01*
X99005803Y-80553597D01*
X98954292Y-80564803D01*
X93586900Y-80564803D01*
X93519861Y-80545118D01*
X93474106Y-80492314D01*
X93464162Y-80423156D01*
X93468239Y-80404809D01*
X93505751Y-80281148D01*
X93526034Y-80075214D01*
X93505751Y-79869280D01*
X93445683Y-79671260D01*
X93348136Y-79488764D01*
X93282498Y-79408784D01*
X93216861Y-79328803D01*
X93065435Y-79204533D01*
X93056901Y-79197529D01*
X92874405Y-79099982D01*
X92775394Y-79069948D01*
X92676383Y-79039913D01*
X92492948Y-79021846D01*
X92470451Y-79019631D01*
X92470450Y-79019631D01*
X92264518Y-79039913D01*
X92066494Y-79099983D01*
X91884002Y-79197528D01*
X91724040Y-79328803D01*
X91592765Y-79488765D01*
X91495220Y-79671257D01*
X91435150Y-79869281D01*
X91414868Y-80075214D01*
X91435150Y-80281148D01*
X91472662Y-80404809D01*
X91473285Y-80474675D01*
X91436036Y-80533788D01*
X91372742Y-80563379D01*
X91354001Y-80564803D01*
X87838437Y-80564803D01*
X87771398Y-80545118D01*
X87725643Y-80492314D01*
X87715034Y-80428649D01*
X87723875Y-80338884D01*
X87734834Y-80227614D01*
X87714551Y-80021680D01*
X87654483Y-79823660D01*
X87556936Y-79641164D01*
X87482098Y-79549973D01*
X87425661Y-79481203D01*
X87328203Y-79401222D01*
X87265701Y-79349929D01*
X87083205Y-79252382D01*
X86984195Y-79222348D01*
X86885183Y-79192313D01*
X86679251Y-79172031D01*
X86473318Y-79192313D01*
X86275294Y-79252383D01*
X86092802Y-79349928D01*
X85932840Y-79481203D01*
X85801565Y-79641165D01*
X85704020Y-79823657D01*
X85643950Y-80021681D01*
X85623668Y-80227614D01*
X85643468Y-80428649D01*
X85630449Y-80497295D01*
X85582384Y-80548005D01*
X85520065Y-80564803D01*
X78672948Y-80564803D01*
X78664093Y-80564486D01*
X78508624Y-80553355D01*
X78493259Y-80551284D01*
X78378477Y-80528424D01*
X78350293Y-80522286D01*
X78234316Y-80497026D01*
X78220815Y-80493273D01*
X78104253Y-80453653D01*
X78100776Y-80452413D01*
X77970357Y-80403706D01*
X77958833Y-80398724D01*
X77845883Y-80342944D01*
X77841297Y-80340559D01*
X77721638Y-80275126D01*
X77712166Y-80269382D01*
X77606327Y-80198552D01*
X77600904Y-80194709D01*
X77492813Y-80113661D01*
X77485359Y-80107607D01*
X77389250Y-80023170D01*
X77383327Y-80017612D01*
X77288167Y-79922269D01*
X77282618Y-79916333D01*
X77198327Y-79820013D01*
X77192289Y-79812550D01*
X77111532Y-79704415D01*
X77107713Y-79699002D01*
X77036968Y-79592847D01*
X77031247Y-79583373D01*
X76966209Y-79463890D01*
X76963837Y-79459305D01*
X76908103Y-79345896D01*
X76903144Y-79334365D01*
X76854903Y-79204433D01*
X76853686Y-79201001D01*
X76814067Y-79083694D01*
X76810343Y-79070194D01*
X76779489Y-78927211D01*
X76756593Y-78811076D01*
X76754564Y-78795794D01*
X76742068Y-78616401D01*
X76736708Y-78532236D01*
X76736459Y-78524149D01*
X76736520Y-78493353D01*
X76736413Y-78492974D01*
X76736143Y-78235196D01*
X76734984Y-77128814D01*
X77546468Y-77128814D01*
X77566750Y-77334746D01*
X77566751Y-77334748D01*
X77626819Y-77532768D01*
X77724366Y-77715264D01*
X77766055Y-77766062D01*
X77855640Y-77875224D01*
X77917541Y-77926024D01*
X78015601Y-78006499D01*
X78198097Y-78104046D01*
X78396117Y-78164114D01*
X78602051Y-78184397D01*
X78807985Y-78164114D01*
X79006005Y-78104046D01*
X79188501Y-78006499D01*
X79348461Y-77875224D01*
X79479736Y-77715264D01*
X79521669Y-77636813D01*
X80188068Y-77636813D01*
X80208350Y-77842746D01*
X80208351Y-77842748D01*
X80268419Y-78040768D01*
X80365966Y-78223264D01*
X80417260Y-78285766D01*
X80497240Y-78383224D01*
X80577220Y-78448861D01*
X80657201Y-78514499D01*
X80839697Y-78612046D01*
X81037717Y-78672114D01*
X81243651Y-78692397D01*
X81449585Y-78672114D01*
X81647605Y-78612046D01*
X81830101Y-78514499D01*
X81990061Y-78383224D01*
X82121336Y-78223264D01*
X82218883Y-78040768D01*
X82278951Y-77842748D01*
X82299234Y-77636814D01*
X82278951Y-77430880D01*
X82218883Y-77232860D01*
X82190422Y-77179614D01*
X83947268Y-77179614D01*
X83967550Y-77385546D01*
X83967551Y-77385548D01*
X84027619Y-77583568D01*
X84125166Y-77766064D01*
X84176460Y-77828566D01*
X84256440Y-77926024D01*
X84336421Y-77991661D01*
X84416401Y-78057299D01*
X84598897Y-78154846D01*
X84796917Y-78214914D01*
X85002851Y-78235197D01*
X85208785Y-78214914D01*
X85406805Y-78154846D01*
X85589301Y-78057299D01*
X85749261Y-77926024D01*
X85880536Y-77766064D01*
X85978083Y-77583568D01*
X86038151Y-77385548D01*
X86058434Y-77179614D01*
X86053431Y-77128814D01*
X87350868Y-77128814D01*
X87371150Y-77334746D01*
X87371151Y-77334748D01*
X87431219Y-77532768D01*
X87528766Y-77715264D01*
X87570455Y-77766062D01*
X87660040Y-77875224D01*
X87721941Y-77926024D01*
X87820001Y-78006499D01*
X88002497Y-78104046D01*
X88200517Y-78164114D01*
X88406451Y-78184397D01*
X88612385Y-78164114D01*
X88810405Y-78104046D01*
X88992901Y-78006499D01*
X89152861Y-77875224D01*
X89284136Y-77715264D01*
X89381683Y-77532768D01*
X89441751Y-77334748D01*
X89462034Y-77128814D01*
X89441751Y-76922880D01*
X89381683Y-76724860D01*
X89284136Y-76542364D01*
X89218498Y-76462384D01*
X89152861Y-76382403D01*
X89031703Y-76282973D01*
X88992901Y-76251129D01*
X88810405Y-76153582D01*
X88694477Y-76118416D01*
X88612383Y-76093513D01*
X88406451Y-76073231D01*
X88200518Y-76093513D01*
X88002494Y-76153583D01*
X87820002Y-76251128D01*
X87660040Y-76382403D01*
X87528765Y-76542365D01*
X87431220Y-76724857D01*
X87371150Y-76922881D01*
X87350868Y-77128814D01*
X86053431Y-77128814D01*
X86038151Y-76973680D01*
X85978083Y-76775660D01*
X85880536Y-76593164D01*
X85800097Y-76495148D01*
X85772785Y-76430838D01*
X85784576Y-76361971D01*
X85831729Y-76310411D01*
X85883795Y-76293081D01*
X85970785Y-76284514D01*
X86168805Y-76224446D01*
X86351301Y-76126899D01*
X86511261Y-75995624D01*
X86642536Y-75835664D01*
X86740083Y-75653168D01*
X86800151Y-75455148D01*
X86820434Y-75249214D01*
X86800151Y-75043280D01*
X86740083Y-74845260D01*
X86642536Y-74662764D01*
X86576898Y-74582784D01*
X86511261Y-74502803D01*
X86413803Y-74422822D01*
X86351301Y-74371529D01*
X86168805Y-74273982D01*
X86069794Y-74243948D01*
X85970783Y-74213913D01*
X85764851Y-74193631D01*
X85558918Y-74213913D01*
X85360894Y-74273983D01*
X85178402Y-74371528D01*
X85018440Y-74502803D01*
X84887165Y-74662765D01*
X84789620Y-74845257D01*
X84729550Y-75043281D01*
X84709268Y-75249213D01*
X84729550Y-75455146D01*
X84729551Y-75455148D01*
X84789619Y-75653168D01*
X84887166Y-75835664D01*
X84938989Y-75898811D01*
X84967604Y-75933679D01*
X84994916Y-75997989D01*
X84983125Y-76066856D01*
X84935972Y-76118416D01*
X84883905Y-76135746D01*
X84796918Y-76144313D01*
X84598894Y-76204383D01*
X84416402Y-76301928D01*
X84256440Y-76433203D01*
X84125165Y-76593165D01*
X84027620Y-76775657D01*
X83967550Y-76973681D01*
X83947268Y-77179614D01*
X82190422Y-77179614D01*
X82121336Y-77050364D01*
X82055698Y-76970384D01*
X81990061Y-76890403D01*
X81850244Y-76775660D01*
X81830101Y-76759129D01*
X81647605Y-76661582D01*
X81548595Y-76631547D01*
X81449583Y-76601513D01*
X81243651Y-76581231D01*
X81037718Y-76601513D01*
X80839694Y-76661583D01*
X80657202Y-76759128D01*
X80497240Y-76890403D01*
X80365965Y-77050365D01*
X80268420Y-77232857D01*
X80208350Y-77430881D01*
X80188068Y-77636813D01*
X79521669Y-77636813D01*
X79577283Y-77532768D01*
X79637351Y-77334748D01*
X79657634Y-77128814D01*
X79637351Y-76922880D01*
X79577283Y-76724860D01*
X79479736Y-76542364D01*
X79414098Y-76462384D01*
X79348461Y-76382403D01*
X79227303Y-76282973D01*
X79188501Y-76251129D01*
X79006005Y-76153582D01*
X78890077Y-76118416D01*
X78807983Y-76093513D01*
X78602051Y-76073231D01*
X78396118Y-76093513D01*
X78198094Y-76153583D01*
X78015602Y-76251128D01*
X77855640Y-76382403D01*
X77724365Y-76542365D01*
X77626820Y-76724857D01*
X77566750Y-76922881D01*
X77546468Y-77128814D01*
X76734984Y-77128814D01*
X76729220Y-71628366D01*
X76748834Y-71561309D01*
X76801590Y-71515499D01*
X76870738Y-71505483D01*
X76934324Y-71534441D01*
X76946301Y-71546313D01*
X77015035Y-71624410D01*
X77097125Y-71717682D01*
X77285920Y-71870125D01*
X77497763Y-71988467D01*
X77726560Y-72069306D01*
X77965721Y-72110314D01*
X77965723Y-72110314D01*
X78494974Y-72110314D01*
X78497605Y-72110314D01*
X78678833Y-72094889D01*
X78835383Y-72054126D01*
X78913660Y-72033745D01*
X79024216Y-71983770D01*
X79134774Y-71933795D01*
X79335816Y-71797914D01*
X79417930Y-71719214D01*
X91416622Y-71719214D01*
X91436294Y-71931524D01*
X91494646Y-72136604D01*
X91589682Y-72327466D01*
X91718177Y-72497619D01*
X91718179Y-72497621D01*
X91875749Y-72641266D01*
X92057032Y-72753512D01*
X92255853Y-72830535D01*
X92465441Y-72869714D01*
X92465443Y-72869714D01*
X92678659Y-72869714D01*
X92678661Y-72869714D01*
X92888249Y-72830535D01*
X93087070Y-72753512D01*
X93268353Y-72641266D01*
X93425923Y-72497621D01*
X93554417Y-72327469D01*
X93554417Y-72327467D01*
X93554419Y-72327466D01*
X93631377Y-72172911D01*
X93649456Y-72136603D01*
X93707807Y-71931524D01*
X93726151Y-71733552D01*
X93751936Y-71668618D01*
X93808736Y-71627930D01*
X93878517Y-71624410D01*
X93908072Y-71635637D01*
X93964550Y-71665825D01*
X94143720Y-71720176D01*
X94330051Y-71738528D01*
X94516382Y-71720176D01*
X94695552Y-71665825D01*
X94860676Y-71577565D01*
X95005408Y-71458786D01*
X95124187Y-71314054D01*
X95212447Y-71148930D01*
X95223965Y-71110959D01*
X95227103Y-71100615D01*
X95265399Y-71042175D01*
X95287304Y-71027253D01*
X95406861Y-70963350D01*
X95551593Y-70844571D01*
X95670372Y-70699839D01*
X95758632Y-70534715D01*
X95812983Y-70355545D01*
X95831335Y-70169214D01*
X95812983Y-69982883D01*
X95758632Y-69803713D01*
X95670372Y-69638589D01*
X95551593Y-69493857D01*
X95406861Y-69375078D01*
X95406860Y-69375077D01*
X95241736Y-69286817D01*
X95062568Y-69232467D01*
X94876236Y-69214115D01*
X94689903Y-69232467D01*
X94510735Y-69286817D01*
X94345611Y-69375077D01*
X94200879Y-69493857D01*
X94082099Y-69638590D01*
X93993840Y-69803710D01*
X93979182Y-69852031D01*
X93940883Y-69910469D01*
X93918976Y-69925391D01*
X93799425Y-69989293D01*
X93738068Y-70039647D01*
X93673757Y-70066959D01*
X93604890Y-70055167D01*
X93553330Y-70008014D01*
X93550060Y-70002272D01*
X93518587Y-69943389D01*
X93518586Y-69943387D01*
X93443611Y-69852031D01*
X93399808Y-69798657D01*
X93273399Y-69694915D01*
X93255075Y-69679877D01*
X93089951Y-69591617D01*
X92910783Y-69537267D01*
X92817616Y-69528091D01*
X92724451Y-69518915D01*
X92724450Y-69518915D01*
X92538118Y-69537267D01*
X92358950Y-69591617D01*
X92193826Y-69679877D01*
X92049094Y-69798657D01*
X91930314Y-69943389D01*
X91842054Y-70108513D01*
X91787704Y-70287681D01*
X91769352Y-70474014D01*
X91787703Y-70660343D01*
X91816568Y-70755498D01*
X91817191Y-70825365D01*
X91781447Y-70883129D01*
X91718178Y-70940807D01*
X91589682Y-71110961D01*
X91494646Y-71301823D01*
X91436294Y-71506903D01*
X91416622Y-71719214D01*
X79417930Y-71719214D01*
X79511003Y-71630011D01*
X79655295Y-71434916D01*
X79764539Y-71218243D01*
X79781565Y-71162646D01*
X79820014Y-71104312D01*
X79883901Y-71076024D01*
X79952940Y-71086767D01*
X80001703Y-71127835D01*
X80062003Y-71213953D01*
X80222910Y-71374860D01*
X80409315Y-71505381D01*
X80409316Y-71505381D01*
X80409317Y-71505382D01*
X80615555Y-71601553D01*
X80835359Y-71660449D01*
X81005267Y-71675314D01*
X81007976Y-71675314D01*
X81516126Y-71675314D01*
X81518835Y-71675314D01*
X81688743Y-71660449D01*
X81908547Y-71601553D01*
X82114785Y-71505382D01*
X82301190Y-71374861D01*
X82462098Y-71213953D01*
X82592619Y-71027548D01*
X82688790Y-70821310D01*
X82747686Y-70601506D01*
X82767519Y-70374814D01*
X82747686Y-70148122D01*
X82688790Y-69928318D01*
X82592619Y-69722080D01*
X82590683Y-69719314D01*
X82462097Y-69535673D01*
X82301191Y-69374767D01*
X82114786Y-69244246D01*
X81908548Y-69148075D01*
X81688740Y-69089178D01*
X81521535Y-69074550D01*
X81521530Y-69074549D01*
X81518835Y-69074314D01*
X81005267Y-69074314D01*
X81002572Y-69074549D01*
X81002566Y-69074550D01*
X80835361Y-69089178D01*
X80615553Y-69148075D01*
X80409315Y-69244246D01*
X80222910Y-69374767D01*
X80062004Y-69535673D01*
X79931483Y-69722079D01*
X79850709Y-69895298D01*
X79804536Y-69947737D01*
X79737343Y-69966889D01*
X79670461Y-69946673D01*
X79632739Y-69907909D01*
X79587293Y-69834100D01*
X79426976Y-69651945D01*
X79403809Y-69633239D01*
X79238181Y-69499502D01*
X79026338Y-69381160D01*
X78797541Y-69300321D01*
X78558381Y-69259314D01*
X78558379Y-69259314D01*
X78026497Y-69259314D01*
X78023881Y-69259536D01*
X78023872Y-69259537D01*
X77845270Y-69274738D01*
X77610441Y-69335882D01*
X77389328Y-69435832D01*
X77188286Y-69571713D01*
X77013097Y-69739618D01*
X76950947Y-69823650D01*
X76895257Y-69865844D01*
X76825595Y-69871232D01*
X76764079Y-69838102D01*
X76730240Y-69776973D01*
X76727252Y-69750051D01*
X76726292Y-68833193D01*
X76726292Y-67781613D01*
X84150468Y-67781613D01*
X84170750Y-67987546D01*
X84200784Y-68086558D01*
X84230819Y-68185568D01*
X84328366Y-68368064D01*
X84379659Y-68430566D01*
X84459640Y-68528024D01*
X84517635Y-68575618D01*
X84619601Y-68659299D01*
X84802097Y-68756846D01*
X85000117Y-68816914D01*
X85206051Y-68837197D01*
X85411985Y-68816914D01*
X85610005Y-68756846D01*
X85681157Y-68718814D01*
X97102452Y-68718814D01*
X97120804Y-68905146D01*
X97175154Y-69084314D01*
X97179537Y-69092513D01*
X97263415Y-69249439D01*
X97382194Y-69394171D01*
X97526926Y-69512950D01*
X97692050Y-69601210D01*
X97871220Y-69655561D01*
X98057551Y-69673913D01*
X98243882Y-69655561D01*
X98263700Y-69649548D01*
X98333565Y-69648922D01*
X98392679Y-69686168D01*
X98418358Y-69732212D01*
X98446054Y-69823514D01*
X98512453Y-69947737D01*
X98534315Y-69988639D01*
X98653094Y-70133371D01*
X98797826Y-70252150D01*
X98962950Y-70340410D01*
X99142120Y-70394761D01*
X99328451Y-70413113D01*
X99514782Y-70394761D01*
X99693952Y-70340410D01*
X99859076Y-70252150D01*
X100003808Y-70133371D01*
X100122587Y-69988639D01*
X100210847Y-69823515D01*
X100241617Y-69722080D01*
X100268744Y-69632657D01*
X100270664Y-69633239D01*
X100291038Y-69582777D01*
X100348071Y-69542416D01*
X100417871Y-69539296D01*
X100466948Y-69563860D01*
X100476518Y-69571714D01*
X100525026Y-69611524D01*
X100589438Y-69645953D01*
X100639282Y-69694915D01*
X100649645Y-69719314D01*
X100681255Y-69823515D01*
X100747652Y-69947737D01*
X100769515Y-69988639D01*
X100888294Y-70133371D01*
X101033026Y-70252150D01*
X101198150Y-70340410D01*
X101377320Y-70394761D01*
X101563651Y-70413113D01*
X101749982Y-70394761D01*
X101929152Y-70340410D01*
X102094276Y-70252150D01*
X102239008Y-70133371D01*
X102357787Y-69988639D01*
X102446047Y-69823515D01*
X102500398Y-69644345D01*
X102518750Y-69458014D01*
X102500398Y-69271683D01*
X102446047Y-69092513D01*
X102357787Y-68927389D01*
X102239008Y-68782657D01*
X102094276Y-68663878D01*
X102029861Y-68629447D01*
X101980018Y-68580485D01*
X101969656Y-68556086D01*
X101938047Y-68451887D01*
X101849787Y-68286763D01*
X101849787Y-68286762D01*
X101731008Y-68142031D01*
X101586276Y-68023252D01*
X101586275Y-68023251D01*
X101421151Y-67934991D01*
X101241983Y-67880641D01*
X101055651Y-67862289D01*
X100869318Y-67880641D01*
X100690150Y-67934991D01*
X100525026Y-68023251D01*
X100380294Y-68142031D01*
X100261514Y-68286763D01*
X100173254Y-68451887D01*
X100115358Y-68642745D01*
X100113438Y-68642162D01*
X100093053Y-68692636D01*
X100036016Y-68732990D01*
X99966215Y-68736102D01*
X99917152Y-68711540D01*
X99859075Y-68663877D01*
X99693951Y-68575617D01*
X99514783Y-68521267D01*
X99328451Y-68502915D01*
X99142118Y-68521267D01*
X99122294Y-68527280D01*
X99052427Y-68527901D01*
X98993316Y-68490651D01*
X98967644Y-68444618D01*
X98939947Y-68353313D01*
X98851687Y-68188189D01*
X98732908Y-68043457D01*
X98588176Y-67924678D01*
X98588175Y-67924677D01*
X98423051Y-67836417D01*
X98243883Y-67782067D01*
X98057551Y-67763715D01*
X97871218Y-67782067D01*
X97692050Y-67836417D01*
X97526926Y-67924677D01*
X97382194Y-68043457D01*
X97263414Y-68188189D01*
X97175154Y-68353313D01*
X97120804Y-68532481D01*
X97102452Y-68718814D01*
X85681157Y-68718814D01*
X85792501Y-68659299D01*
X85952461Y-68528024D01*
X86083736Y-68368064D01*
X86181283Y-68185568D01*
X86241351Y-67987548D01*
X86261634Y-67781614D01*
X86241351Y-67575680D01*
X86181283Y-67377660D01*
X86083736Y-67195164D01*
X86018098Y-67115184D01*
X85952461Y-67035203D01*
X85811585Y-66919591D01*
X85792501Y-66903929D01*
X85692253Y-66850345D01*
X85610007Y-66806383D01*
X85610006Y-66806382D01*
X85610005Y-66806382D01*
X85510995Y-66776347D01*
X85475609Y-66765613D01*
X102386552Y-66765613D01*
X102404904Y-66951946D01*
X102459254Y-67131114D01*
X102493490Y-67195164D01*
X102547515Y-67296239D01*
X102666294Y-67440971D01*
X102811026Y-67559750D01*
X102976150Y-67648010D01*
X103155320Y-67702361D01*
X103341651Y-67720713D01*
X103527982Y-67702361D01*
X103707152Y-67648010D01*
X103872276Y-67559750D01*
X104017008Y-67440971D01*
X104135787Y-67296239D01*
X104224047Y-67131115D01*
X104278398Y-66951945D01*
X104296750Y-66765614D01*
X104278398Y-66579283D01*
X104224047Y-66400113D01*
X104135787Y-66234989D01*
X104017008Y-66090257D01*
X103898228Y-65992776D01*
X103872275Y-65971477D01*
X103707151Y-65883217D01*
X103527983Y-65828867D01*
X103434816Y-65819691D01*
X103341651Y-65810515D01*
X103341650Y-65810515D01*
X103155318Y-65828867D01*
X102976150Y-65883217D01*
X102811026Y-65971477D01*
X102666294Y-66090257D01*
X102547514Y-66234989D01*
X102459254Y-66400113D01*
X102404904Y-66579281D01*
X102386552Y-66765613D01*
X85475609Y-66765613D01*
X85411983Y-66746313D01*
X85206051Y-66726031D01*
X85000118Y-66746313D01*
X84802094Y-66806383D01*
X84619602Y-66903928D01*
X84459640Y-67035203D01*
X84328365Y-67195165D01*
X84230820Y-67377657D01*
X84170750Y-67575681D01*
X84150468Y-67781613D01*
X76726292Y-67781613D01*
X76726292Y-66164912D01*
X76745977Y-66097873D01*
X76798781Y-66052118D01*
X76867939Y-66042174D01*
X76931495Y-66071199D01*
X76943372Y-66082985D01*
X76956475Y-66097873D01*
X77097125Y-66257682D01*
X77285920Y-66410125D01*
X77497763Y-66528467D01*
X77726560Y-66609306D01*
X77965721Y-66650314D01*
X77965723Y-66650314D01*
X78494974Y-66650314D01*
X78497605Y-66650314D01*
X78678833Y-66634889D01*
X78817310Y-66598832D01*
X78887141Y-66600989D01*
X78944725Y-66640559D01*
X78971775Y-66704980D01*
X78971954Y-66706677D01*
X78986104Y-66850346D01*
X79040454Y-67029514D01*
X79094761Y-67131115D01*
X79128715Y-67194639D01*
X79247494Y-67339371D01*
X79392226Y-67458150D01*
X79557350Y-67546410D01*
X79736520Y-67600761D01*
X79922851Y-67619113D01*
X80109182Y-67600761D01*
X80288352Y-67546410D01*
X80453476Y-67458150D01*
X80598208Y-67339371D01*
X80716987Y-67194639D01*
X80805247Y-67029515D01*
X80838593Y-66919587D01*
X80876889Y-66861152D01*
X80940701Y-66832696D01*
X80968055Y-66832058D01*
X81005267Y-66835314D01*
X81007975Y-66835314D01*
X81516126Y-66835314D01*
X81518835Y-66835314D01*
X81688743Y-66820449D01*
X81908547Y-66761553D01*
X82114785Y-66665382D01*
X82301190Y-66534861D01*
X82462098Y-66373953D01*
X82592619Y-66187548D01*
X82688790Y-65981310D01*
X82747686Y-65761506D01*
X82767519Y-65534814D01*
X82747686Y-65308122D01*
X82688790Y-65088318D01*
X82592619Y-64882080D01*
X82557828Y-64832392D01*
X82462097Y-64695673D01*
X82301191Y-64534767D01*
X82114786Y-64404246D01*
X81908548Y-64308075D01*
X81688740Y-64249178D01*
X81521535Y-64234550D01*
X81521530Y-64234549D01*
X81518835Y-64234314D01*
X81005267Y-64234314D01*
X81002572Y-64234549D01*
X81002566Y-64234550D01*
X80835361Y-64249178D01*
X80615553Y-64308075D01*
X80409315Y-64404246D01*
X80222910Y-64534767D01*
X80062003Y-64695674D01*
X80001857Y-64781573D01*
X79947280Y-64825198D01*
X79877782Y-64832392D01*
X79815427Y-64800869D01*
X79785224Y-64756684D01*
X79783242Y-64751753D01*
X79714519Y-64580728D01*
X79587293Y-64374100D01*
X79426976Y-64191945D01*
X79336189Y-64118639D01*
X79238181Y-64039502D01*
X79026338Y-63921160D01*
X78797541Y-63840321D01*
X78558381Y-63799314D01*
X78558379Y-63799314D01*
X78026497Y-63799314D01*
X78023881Y-63799536D01*
X78023872Y-63799537D01*
X77845270Y-63814738D01*
X77610441Y-63875882D01*
X77389328Y-63975832D01*
X77188286Y-64111713D01*
X77013097Y-64279618D01*
X76949987Y-64364949D01*
X76894297Y-64407143D01*
X76824636Y-64412531D01*
X76763120Y-64379401D01*
X76729280Y-64318273D01*
X76726292Y-64291214D01*
X76726292Y-63616013D01*
X90092952Y-63616013D01*
X90111304Y-63802346D01*
X90165654Y-63981514D01*
X90238949Y-64118639D01*
X90253915Y-64146639D01*
X90372694Y-64291371D01*
X90517426Y-64410150D01*
X90682550Y-64498410D01*
X90861720Y-64552761D01*
X91048051Y-64571113D01*
X91234382Y-64552761D01*
X91413552Y-64498410D01*
X91413552Y-64498409D01*
X91425241Y-64494864D01*
X91425650Y-64496213D01*
X91480955Y-64484690D01*
X91507013Y-64489630D01*
X91588282Y-64514283D01*
X91622819Y-64524761D01*
X91641171Y-64526568D01*
X91809151Y-64543113D01*
X91995482Y-64524761D01*
X92174652Y-64470410D01*
X92304858Y-64400814D01*
X95375252Y-64400814D01*
X95393604Y-64587146D01*
X95447954Y-64766314D01*
X95531921Y-64923405D01*
X95536215Y-64931439D01*
X95654994Y-65076171D01*
X95799726Y-65194950D01*
X95964850Y-65283210D01*
X96144020Y-65337561D01*
X96330351Y-65355913D01*
X96516682Y-65337561D01*
X96695852Y-65283210D01*
X96860976Y-65194950D01*
X97005708Y-65076171D01*
X97124487Y-64931439D01*
X97212747Y-64766315D01*
X97267098Y-64587145D01*
X97285450Y-64400814D01*
X97267098Y-64214483D01*
X97212747Y-64035313D01*
X97124487Y-63870189D01*
X97005708Y-63725457D01*
X96860976Y-63606678D01*
X96860975Y-63606677D01*
X96695851Y-63518417D01*
X96516683Y-63464067D01*
X96330351Y-63445715D01*
X96144018Y-63464067D01*
X95964850Y-63518417D01*
X95799726Y-63606677D01*
X95654994Y-63725457D01*
X95536214Y-63870189D01*
X95447954Y-64035313D01*
X95393604Y-64214481D01*
X95375252Y-64400814D01*
X92304858Y-64400814D01*
X92339776Y-64382150D01*
X92484508Y-64263371D01*
X92603287Y-64118639D01*
X92691547Y-63953515D01*
X92745898Y-63774345D01*
X92764250Y-63588014D01*
X92745898Y-63401683D01*
X92691547Y-63222513D01*
X92603287Y-63057389D01*
X92484508Y-62912657D01*
X92339776Y-62793878D01*
X92339775Y-62793877D01*
X92174651Y-62705617D01*
X91995483Y-62651267D01*
X91809151Y-62632915D01*
X91622818Y-62651267D01*
X91431964Y-62709163D01*
X91431555Y-62707816D01*
X91376223Y-62719334D01*
X91350185Y-62714395D01*
X91234380Y-62679266D01*
X91048051Y-62660915D01*
X90861718Y-62679267D01*
X90682550Y-62733617D01*
X90517426Y-62821877D01*
X90372694Y-62940657D01*
X90253914Y-63085389D01*
X90165654Y-63250513D01*
X90111304Y-63429681D01*
X90092952Y-63616013D01*
X76726292Y-63616013D01*
X76726292Y-57848449D01*
X76726608Y-57839606D01*
X76728722Y-57810039D01*
X76731012Y-57778012D01*
X86472090Y-57778012D01*
X86472091Y-57778014D01*
X87191251Y-57778014D01*
X87191251Y-57058853D01*
X87191249Y-57058853D01*
X87056716Y-57099663D01*
X86882993Y-57192520D01*
X86730723Y-57317486D01*
X86605757Y-57469756D01*
X86512900Y-57643479D01*
X86472090Y-57778012D01*
X76731012Y-57778012D01*
X76733688Y-57740601D01*
X76735747Y-57725306D01*
X76758684Y-57609999D01*
X76790298Y-57464671D01*
X76794028Y-57451237D01*
X76833818Y-57334022D01*
X76834996Y-57330711D01*
X76884066Y-57199148D01*
X76889030Y-57187654D01*
X76945081Y-57073996D01*
X76947381Y-57069568D01*
X77013273Y-56948895D01*
X77018962Y-56939499D01*
X77090167Y-56832936D01*
X77093923Y-56827626D01*
X77175511Y-56718638D01*
X77181512Y-56711237D01*
X77266426Y-56614414D01*
X77271914Y-56608555D01*
X77367808Y-56512661D01*
X77373668Y-56507172D01*
X77470622Y-56422148D01*
X77477998Y-56416168D01*
X77586713Y-56334786D01*
X77591995Y-56331047D01*
X77698966Y-56259574D01*
X77708361Y-56253887D01*
X77828366Y-56188359D01*
X77832784Y-56186065D01*
X77947225Y-56129631D01*
X77958684Y-56124684D01*
X78088943Y-56076101D01*
X78092231Y-56074930D01*
X78210843Y-56034669D01*
X78224318Y-56030930D01*
X78366943Y-55999903D01*
X78467122Y-55979979D01*
X78491270Y-55977603D01*
X91310663Y-55977603D01*
X91377702Y-55997288D01*
G37*
%TD.AperFunction*%
%TD*%
M02*
